<svg version="1.1" id="Layer_1" xmlns="http://www.w3.org/2000/svg" xmlns:xlink="http://www.w3.org/1999/xlink" viewBox="233 341 568 287" xml:space="preserve">
<path fill="#000000" opacity="1.000000" stroke="none" 
	d="
M261.066040,353.943268 
	C269.724304,348.789551 278.598633,346.503693 288.459442,346.539612 
	C347.773438,346.755646 407.091095,346.961700 466.402313,346.501740 
	C492.352600,346.300476 514.793701,369.397705 514.539917,394.263550 
	C513.917725,455.238098 514.348022,516.223328 514.338318,577.204285 
	C514.334656,600.358093 492.736237,622.291443 469.516541,622.332825 
	C407.536102,622.443298 345.555298,622.417114 283.574768,622.349731 
	C263.308350,622.327698 242.719101,604.070068 239.651321,583.839905 
	C238.949417,579.211243 238.685944,574.593506 238.688110,569.923279 
	C238.714951,512.274658 238.744263,454.625916 238.677795,396.977356 
	C238.656876,378.822021 245.524033,364.357422 261.066040,353.943268 
M387.570068,449.056458 
	C381.494720,468.377899 381.605255,487.790680 387.571075,507.020660 
	C393.529541,526.226990 409.253082,538.776672 427.499817,539.742432 
	C450.483032,540.958923 466.819702,532.310486 474.989349,512.369324 
	C484.381134,489.445007 484.738190,465.762115 474.548004,442.922363 
	C464.309967,419.975372 440.640533,409.730713 417.743622,417.445709 
	C402.577576,422.555878 393.522888,433.879303 387.570068,449.056458 
M357.480347,514.945984 
	C347.138397,514.945984 336.796448,514.945984 326.056427,514.945984 
	C326.584381,513.321350 326.591125,512.909485 326.799011,512.727722 
	C327.796021,511.856232 328.843506,511.042053 329.880096,510.216309 
	C342.435272,500.215088 354.161591,489.527832 362.393921,475.395599 
	C374.028076,455.423492 365.531952,429.746918 350.356445,421.935944 
	C323.327454,408.023834 293.367493,413.321869 278.220978,445.920898 
	C277.489563,447.495087 276.767731,449.158997 278.851501,450.218842 
	C285.301971,453.499725 291.794373,456.698212 298.508698,460.047516 
	C301.922882,452.996704 305.337311,446.899353 310.468475,442.029358 
	C319.345581,433.604004 333.174225,437.027710 337.266541,448.514984 
	C339.449799,454.643402 339.291321,460.518036 336.422241,466.392517 
	C334.583221,470.157959 332.269104,473.594177 329.849243,476.984253 
	C315.797607,496.669586 297.828125,512.579407 280.006836,528.621521 
	C277.715851,530.683777 274.979736,532.505066 276.406311,536.007629 
	C277.655396,539.074463 280.754272,537.810974 283.048370,537.819336 
	C308.195251,537.910583 333.342682,537.936768 358.489655,537.866211 
	C371.705780,537.829102 369.790405,539.479004 369.801025,526.452698 
	C369.811462,513.670166 371.603302,514.977783 357.480347,514.945984 
z"/>
<path fill="#000000" opacity="1.000000" stroke="none" 
	d="
M605.349487,499.660339 
	C614.692139,510.962891 623.813904,521.988770 632.902100,533.042175 
	C633.161499,533.357666 633.064270,533.966431 633.264587,535.336121 
	C627.329468,535.336121 621.507446,534.680664 615.890991,535.476074 
	C605.053772,537.010864 598.020630,533.045898 592.107056,523.819580 
	C585.413452,513.376221 577.052979,504.001190 569.198425,493.879639 
	C567.624451,495.847351 568.135742,497.722809 568.126404,499.414490 
	C568.070251,509.571442 567.985962,519.731140 568.171204,529.885193 
	C568.244995,533.931458 566.897400,535.623474 562.698059,535.399048 
	C557.550842,535.124023 552.361206,535.078979 547.220581,535.409912 
	C542.641907,535.704773 540.951355,533.996277 541.055115,529.453064 
	C541.260315,520.466003 541.094849,511.470856 541.122559,502.479126 
	C541.199097,477.672394 541.396301,452.865295 541.288635,428.059448 
	C541.270203,423.824829 542.611572,422.542999 546.696045,422.608948 
	C559.181580,422.810638 571.676208,422.522736 584.158813,422.803802 
	C593.739319,423.019531 602.394348,426.079315 609.706787,432.582642 
	C622.416504,443.886108 623.305786,476.310638 601.436462,486.620422 
	C600.118652,487.241669 598.566711,487.582550 597.551392,489.298706 
	C599.109924,493.241241 602.736755,495.873779 605.349487,499.660339 
M577.098633,444.308594 
	C576.269775,444.293610 575.440979,444.267700 574.612122,444.265503 
	C568.137512,444.248108 568.132812,444.249481 568.119751,450.955292 
	C568.112000,454.934418 568.121765,458.913605 568.123657,462.892761 
	C568.128235,472.544098 568.128235,472.544128 577.856812,471.667908 
	C586.916138,470.851929 591.189575,465.969635 590.803467,456.876862 
	C590.494446,449.600586 586.975952,446.166260 577.098633,444.308594 
z"/>
<path fill="#000000" opacity="1.000000" stroke="none" 
	d="
M674.001465,504.208801 
	C669.174988,504.205933 664.846375,504.126801 660.521606,504.222656 
	C656.232300,504.317749 655.234680,506.455566 657.536255,510.355530 
	C661.822205,517.618103 675.525574,519.866028 682.405701,513.635986 
	C686.454529,509.969757 689.511230,509.939606 693.675659,512.586670 
	C697.144470,514.791626 701.277161,515.869995 704.964355,518.911560 
	C700.909363,526.041138 695.095581,530.849731 687.684387,533.918457 
	C666.571411,542.660645 643.259277,534.968445 633.712463,515.553406 
	C624.070312,495.944733 633.705688,473.887085 653.866638,465.848022 
	C667.288147,460.496246 680.699219,461.802185 692.841309,470.328796 
	C703.424622,477.760712 706.509644,488.636627 706.427307,500.869171 
	C706.406555,503.950317 704.276672,504.196869 701.960388,504.197693 
	C692.807251,504.200958 683.654114,504.205292 674.001465,504.208801 
M667.544312,489.682861 
	C672.075195,489.460571 676.682556,490.153259 681.267090,489.219635 
	C678.803223,479.463928 666.883179,476.177795 660.079712,482.786987 
	C658.516724,484.305389 656.748596,486.102875 657.644531,488.402924 
	C658.479553,490.546692 660.857056,489.497437 662.579895,489.664185 
	C663.900085,489.791901 665.242920,489.686249 667.544312,489.682861 
z"/>
<path fill="#000000" opacity="1.000000" stroke="none" 
	d="
M720.994507,464.766052 
	C734.636047,464.787476 734.615112,464.796661 739.849915,476.734253 
	C743.247375,484.481750 746.716797,492.197693 750.103516,499.814423 
	C752.355835,499.711334 752.423462,498.098419 752.918030,497.025909 
	C757.236389,487.660187 761.590088,478.307831 765.693176,468.847351 
	C767.023010,465.781036 768.869629,464.644470 772.166321,464.724304 
	C779.937500,464.912445 787.716309,464.784607 795.157715,464.784607 
	C796.374695,467.339203 795.160706,468.699280 794.404724,470.111542 
	C783.491272,490.498718 772.477600,510.832916 761.703369,531.293213 
	C760.037048,534.457520 757.932434,535.065308 754.667175,535.466553 
	C746.049194,536.525696 741.041565,533.778687 737.006897,525.412720 
	C727.982605,506.700409 717.505127,488.689178 707.641663,470.380493 
	C706.944763,469.086914 706.428528,467.695953 705.566528,465.763306 
	C710.711182,463.933746 715.685303,465.140991 720.994507,464.766052 
z"/>
<path fill="#000000" opacity="1.000000" stroke="none" 
	d="
M452.686523,459.588013 
	C455.261597,473.778748 455.361816,487.518311 451.320587,501.037689 
	C449.177704,508.206451 445.189362,514.097473 437.462555,516.181702 
	C427.975525,518.740723 419.130249,514.409485 415.047943,504.952148 
	C409.388428,491.841095 409.153625,478.122437 411.351562,464.240356 
	C412.643494,456.080627 414.412689,448.084534 421.358215,442.593231 
	C430.037628,435.731140 441.810791,437.824188 447.807556,447.161835 
	C450.180450,450.856659 451.456818,454.990540 452.686523,459.588013 
z"/>
</svg>