<svg xmlns="http://www.w3.org/2000/svg" xmlns:xlink="http://www.w3.org/1999/xlink" xmlns:inkscape="http://www.inkscape.org/namespaces/inkscape" version="1.1" width="563" height="782" viewBox="-10 -10 563 782">
<defs>
<clipPath id="clip_1">
<path transform="matrix(1,0,0,-1,0,792)" d="M0 792H612V0H0Z"/>
</clipPath>
</defs>
<g>
<g inkscape:groupmode="layer" inkscape:label="Layer 1">
<g clip-path="url(#clip_1)">
<path transform="matrix(1,0,0,-1,320.698,103.59741)" d="M0 0C0 .437 .355 .792 .792 .792 1.23 .792 1.584 .437 1.584 0 1.584-.437 1.23-.792 .792-.792 .355-.792 0-.437 0 0" fill="#231f20"/>
<path transform="matrix(1,0,0,-1,320.698,91.1828)" d="M0 0C0 .437 .355 .792 .792 .792 1.23 .792 1.584 .437 1.584 0 1.584-.437 1.23-.792 .792-.792 .355-.792 0-.437 0 0" fill="#231f20"/>
<path transform="matrix(1,0,0,-1,320.698,78.76819)" d="M0 0C0 .437 .355 .792 .792 .792 1.23 .792 1.584 .437 1.584 0 1.584-.437 1.23-.792 .792-.792 .355-.792 0-.437 0 0" fill="#231f20"/>
<path transform="matrix(1,0,0,-1,320.698,66.3537)" d="M0 0C0 .437 .355 .792 .792 .792 1.23 .792 1.584 .437 1.584 0 1.584-.437 1.23-.792 .792-.792 .355-.792 0-.437 0 0" fill="#231f20"/>
<path transform="matrix(1,0,0,-1,320.698,53.939088)" d="M0 0C0 .437 .355 .792 .792 .792 1.23 .792 1.584 .437 1.584 0 1.584-.437 1.23-.792 .792-.792 .355-.792 0-.437 0 0" fill="#231f20"/>
<path transform="matrix(1,0,0,-1,320.698,41.524477)" d="M0 0C0 .437 .355 .792 .792 .792 1.23 .792 1.584 .437 1.584 0 1.584-.437 1.23-.792 .792-.792 .355-.792 0-.437 0 0" fill="#231f20"/>
<path transform="matrix(1,0,0,-1,320.698,29.109986)" d="M0 0C0 .437 .355 .792 .792 .792 1.23 .792 1.584 .437 1.584 0 1.584-.437 1.23-.792 .792-.792 .355-.792 0-.437 0 0" fill="#231f20"/>
<path transform="matrix(1,0,0,-1,382.7498,573.4874)" d="M0 0C0 .437 .355 .792 .792 .792 1.23 .792 1.584 .437 1.584 0 1.584-.437 1.23-.792 .792-.792 .355-.792 0-.437 0 0" fill="#231f20"/>
<path transform="matrix(1,0,0,-1,382.7498,561.0729)" d="M0 0C0 .437 .355 .792 .792 .792 1.23 .792 1.584 .437 1.584 0 1.584-.437 1.23-.792 .792-.792 .355-.792 0-.437 0 0" fill="#231f20"/>
<path transform="matrix(1,0,0,-1,382.7498,548.6583)" d="M0 0C0 .437 .355 .792 .792 .792 1.23 .792 1.584 .437 1.584 0 1.584-.437 1.23-.792 .792-.792 .355-.792 0-.437 0 0" fill="#231f20"/>
<path transform="matrix(1,0,0,-1,382.7498,523.8292)" d="M0 0C0 .437 .355 .792 .792 .792 1.23 .792 1.584 .437 1.584 0 1.584-.437 1.23-.792 .792-.792 .355-.792 0-.437 0 0" fill="#231f20"/>
<path transform="matrix(1,0,0,-1,308.2834,41.524477)" d="M0 0C0 .437 .355 .792 .792 .792 1.23 .792 1.584 .437 1.584 0 1.584-.437 1.23-.792 .792-.792 .355-.792 0-.437 0 0" fill="#231f20"/>
<path transform="matrix(1,0,0,-1,308.2834,29.109986)" d="M0 0C0 .437 .355 .792 .792 .792 1.23 .792 1.584 .437 1.584 0 1.584-.437 1.23-.792 .792-.792 .355-.792 0-.437 0 0" fill="#231f20"/>
<path transform="matrix(1,0,0,-1,419.405,609.4444)" d="M0 0C0 .437 .355 .792 .792 .792 1.23 .792 1.584 .437 1.584 0 1.584-.437 1.23-.792 .792-.792 .355-.792 0-.437 0 0" fill="#231f20"/>
<path transform="matrix(1,0,0,-1,370.3352,573.4874)" d="M0 0C0 .437 .355 .792 .792 .792 1.23 .792 1.584 .437 1.584 0 1.584-.437 1.23-.792 .792-.792 .355-.792 0-.437 0 0" fill="#231f20"/>
<path transform="matrix(1,0,0,-1,370.3352,561.0729)" d="M0 0C0 .437 .355 .792 .792 .792 1.23 .792 1.584 .437 1.584 0 1.584-.437 1.23-.792 .792-.792 .355-.792 0-.437 0 0" fill="#231f20"/>
<path transform="matrix(1,0,0,-1,370.3352,548.6583)" d="M0 0C0 .437 .355 .792 .792 .792 1.23 .792 1.584 .437 1.584 0 1.584-.437 1.23-.792 .792-.792 .355-.792 0-.437 0 0" fill="#231f20"/>
<path transform="matrix(1,0,0,-1,370.3352,523.8292)" d="M0 0C0 .437 .355 .792 .792 .792 1.23 .792 1.584 .437 1.584 0 1.584-.437 1.23-.792 .792-.792 .355-.792 0-.437 0 0" fill="#231f20"/>
<path transform="matrix(1,0,0,-1,295.8689,66.3537)" d="M0 0C0 .437 .355 .792 .792 .792 1.23 .792 1.584 .437 1.584 0 1.584-.437 1.23-.792 .792-.792 .355-.792 0-.437 0 0" fill="#231f20"/>
<path transform="matrix(1,0,0,-1,295.8689,53.939088)" d="M0 0C0 .437 .355 .792 .792 .792 1.23 .792 1.584 .437 1.584 0 1.584-.437 1.23-.792 .792-.792 .355-.792 0-.437 0 0" fill="#231f20"/>
<path transform="matrix(1,0,0,-1,295.8689,41.524477)" d="M0 0C0 .437 .355 .792 .792 .792 1.23 .792 1.584 .437 1.584 0 1.584-.437 1.23-.792 .792-.792 .355-.792 0-.437 0 0" fill="#231f20"/>
<path transform="matrix(1,0,0,-1,406.9904,634.2736)" d="M0 0C0 .437 .355 .792 .792 .792 1.23 .792 1.584 .437 1.584 0 1.584-.437 1.23-.792 .792-.792 .355-.792 0-.437 0 0" fill="#231f20"/>
<path transform="matrix(1,0,0,-1,406.9904,621.859)" d="M0 0C0 .437 .355 .792 .792 .792 1.23 .792 1.584 .437 1.584 0 1.584-.437 1.23-.792 .792-.792 .355-.792 0-.437 0 0" fill="#231f20"/>
<path transform="matrix(1,0,0,-1,357.9206,561.0729)" d="M0 0C0 .437 .355 .792 .792 .792 1.23 .792 1.584 .437 1.584 0 1.584-.437 1.23-.792 .792-.792 .355-.792 0-.437 0 0" fill="#231f20"/>
<path transform="matrix(1,0,0,-1,357.9206,548.6583)" d="M0 0C0 .437 .355 .792 .792 .792 1.23 .792 1.584 .437 1.584 0 1.584-.437 1.23-.792 .792-.792 .355-.792 0-.437 0 0" fill="#231f20"/>
<path transform="matrix(1,0,0,-1,283.4543,53.939088)" d="M0 0C0 .437 .355 .792 .792 .792 1.23 .792 1.584 .437 1.584 0 1.584-.437 1.23-.792 .792-.792 .355-.792 0-.437 0 0" fill="#231f20"/>
<path transform="matrix(1,0,0,-1,283.4543,41.524477)" d="M0 0C0 .437 .355 .792 .792 .792 1.23 .792 1.584 .437 1.584 0 1.584-.437 1.23-.792 .792-.792 .355-.792 0-.437 0 0" fill="#231f20"/>
<path transform="matrix(1,0,0,-1,345.5061,561.0729)" d="M0 0C0 .437 .355 .792 .792 .792 1.23 .792 1.584 .437 1.584 0 1.584-.437 1.23-.792 .792-.792 .355-.792 0-.437 0 0" fill="#231f20"/>
<path transform="matrix(1,0,0,-1,345.5061,548.6583)" d="M0 0C0 .437 .355 .792 .792 .792 1.23 .792 1.584 .437 1.584 0 1.584-.437 1.23-.792 .792-.792 .355-.792 0-.437 0 0" fill="#231f20"/>
<path transform="matrix(1,0,0,-1,271.0398,53.939088)" d="M0 0C0 .437 .355 .792 .792 .792 1.23 .792 1.584 .437 1.584 0 1.584-.437 1.23-.792 .792-.792 .355-.792 0-.437 0 0" fill="#231f20"/>
<path transform="matrix(1,0,0,-1,271.0398,41.524477)" d="M0 0C0 .437 .355 .792 .792 .792 1.23 .792 1.584 .437 1.584 0 1.584-.437 1.23-.792 .792-.792 .355-.792 0-.437 0 0" fill="#231f20"/>
<path transform="matrix(1,0,0,-1,333.0915,548.6583)" d="M0 0C0 .437 .355 .792 .792 .792 1.23 .792 1.584 .437 1.584 0 1.584-.437 1.23-.792 .792-.792 .355-.792 0-.437 0 0" fill="#231f20"/>
<path transform="matrix(1,0,0,-1,369.7467,638.247)" d="M0 0C0 .437 .355 .792 .792 .792 1.23 .792 1.584 .437 1.584 0 1.584-.437 1.23-.792 .792-.792 .355-.792 0-.437 0 0" fill="#231f20"/>
<path transform="matrix(1,0,0,-1,115.7313,193.06427)" d="M0 0C0 .437 .355 .792 .792 .792 1.23 .792 1.584 .437 1.584 0 1.584-.437 1.23-.792 .792-.792 .355-.792 0-.437 0 0" fill="#231f20"/>
<path transform="matrix(1,0,0,-1,115.7313,180.64972)" d="M0 0C0 .437 .355 .792 .792 .792 1.23 .792 1.584 .437 1.584 0 1.584-.437 1.23-.792 .792-.792 .355-.792 0-.437 0 0" fill="#231f20"/>
<path transform="matrix(1,0,0,-1,115.7313,168.2351)" d="M0 0C0 .437 .355 .792 .792 .792 1.23 .792 1.584 .437 1.584 0 1.584-.437 1.23-.792 .792-.792 .355-.792 0-.437 0 0" fill="#231f20"/>
<path transform="matrix(1,0,0,-1,103.3168,168.2351)" d="M0 0C0 .437 .355 .792 .792 .792 1.23 .792 1.584 .437 1.584 0 1.584-.437 1.23-.792 .792-.792 .355-.792 0-.437 0 0" fill="#231f20"/>
<path transform="matrix(1,0,0,-1,103.3168,155.82062)" d="M0 0C0 .437 .355 .792 .792 .792 1.23 .792 1.584 .437 1.584 0 1.584-.437 1.23-.792 .792-.792 .355-.792 0-.437 0 0" fill="#231f20"/>
<path transform="matrix(1,0,0,-1,90.9022,155.82062)" d="M0 0C0 .437 .355 .792 .792 .792 1.23 .792 1.584 .437 1.584 0 1.584-.437 1.23-.792 .792-.792 .355-.792 0-.437 0 0" fill="#231f20"/>
<path transform="matrix(1,0,0,-1,382.7498,511.4146)" d="M0 0C0 .437 .355 .792 .792 .792 1.23 .792 1.584 .437 1.584 0 1.584-.437 1.23-.792 .792-.792 .355-.792 0-.437 0 0" fill="#231f20"/>
<path transform="matrix(1,0,0,-1,382.7498,499)" d="M0 0C0 .437 .355 .792 .792 .792 1.23 .792 1.584 .437 1.584 0 1.584-.437 1.23-.792 .792-.792 .355-.792 0-.437 0 0" fill="#231f20"/>
<path transform="matrix(1,0,0,-1,382.7498,486.5855)" d="M0 0C0 .437 .355 .792 .792 .792 1.23 .792 1.584 .437 1.584 0 1.584-.437 1.23-.792 .792-.792 .355-.792 0-.437 0 0" fill="#231f20"/>
<path transform="matrix(1,0,0,-1,382.7498,474.1709)" d="M0 0C0 .437 .355 .792 .792 .792 1.23 .792 1.584 .437 1.584 0 1.584-.437 1.23-.792 .792-.792 .355-.792 0-.437 0 0" fill="#231f20"/>
<path transform="matrix(1,0,0,-1,382.7498,461.7563)" d="M0 0C0 .437 .355 .792 .792 .792 1.23 .792 1.584 .437 1.584 0 1.584-.437 1.23-.792 .792-.792 .355-.792 0-.437 0 0" fill="#231f20"/>
<path transform="matrix(1,0,0,-1,382.7498,449.3418)" d="M0 0C0 .437 .355 .792 .792 .792 1.23 .792 1.584 .437 1.584 0 1.584-.437 1.23-.792 .792-.792 .355-.792 0-.437 0 0" fill="#231f20"/>
<path transform="matrix(1,0,0,-1,382.7498,436.9272)" d="M0 0C0 .437 .355 .792 .792 .792 1.23 .792 1.584 .437 1.584 0 1.584-.437 1.23-.792 .792-.792 .355-.792 0-.437 0 0" fill="#231f20"/>
<path transform="matrix(1,0,0,-1,382.7498,424.5127)" d="M0 0C0 .437 .355 .792 .792 .792 1.23 .792 1.584 .437 1.584 0 1.584-.437 1.23-.792 .792-.792 .355-.792 0-.437 0 0" fill="#231f20"/>
<path transform="matrix(1,0,0,-1,382.7498,412.0981)" d="M0 0C0 .437 .355 .792 .792 .792 1.23 .792 1.584 .437 1.584 0 1.584-.437 1.23-.792 .792-.792 .355-.792 0-.437 0 0" fill="#231f20"/>
<path transform="matrix(1,0,0,-1,382.7498,399.6835)" d="M0 0C0 .437 .355 .792 .792 .792 1.23 .792 1.584 .437 1.584 0 1.584-.437 1.23-.792 .792-.792 .355-.792 0-.437 0 0" fill="#231f20"/>
<path transform="matrix(1,0,0,-1,382.7498,387.269)" d="M0 0C0 .437 .355 .792 .792 .792 1.23 .792 1.584 .437 1.584 0 1.584-.437 1.23-.792 .792-.792 .355-.792 0-.437 0 0" fill="#231f20"/>
<path transform="matrix(1,0,0,-1,370.3352,499)" d="M0 0C0 .437 .355 .792 .792 .792 1.23 .792 1.584 .437 1.584 0 1.584-.437 1.23-.792 .792-.792 .355-.792 0-.437 0 0" fill="#231f20"/>
<path transform="matrix(1,0,0,-1,370.3352,486.5855)" d="M0 0C0 .437 .355 .792 .792 .792 1.23 .792 1.584 .437 1.584 0 1.584-.437 1.23-.792 .792-.792 .355-.792 0-.437 0 0" fill="#231f20"/>
<path transform="matrix(1,0,0,-1,370.3352,474.1709)" d="M0 0C0 .437 .355 .792 .792 .792 1.23 .792 1.584 .437 1.584 0 1.584-.437 1.23-.792 .792-.792 .355-.792 0-.437 0 0" fill="#231f20"/>
<path transform="matrix(1,0,0,-1,370.3352,461.7563)" d="M0 0C0 .437 .355 .792 .792 .792 1.23 .792 1.584 .437 1.584 0 1.584-.437 1.23-.792 .792-.792 .355-.792 0-.437 0 0" fill="#231f20"/>
<path transform="matrix(1,0,0,-1,370.3352,449.3418)" d="M0 0C0 .437 .355 .792 .792 .792 1.23 .792 1.584 .437 1.584 0 1.584-.437 1.23-.792 .792-.792 .355-.792 0-.437 0 0" fill="#231f20"/>
<path transform="matrix(1,0,0,-1,370.3352,436.9272)" d="M0 0C0 .437 .355 .792 .792 .792 1.23 .792 1.584 .437 1.584 0 1.584-.437 1.23-.792 .792-.792 .355-.792 0-.437 0 0" fill="#231f20"/>
<path transform="matrix(1,0,0,-1,370.3352,424.5127)" d="M0 0C0 .437 .355 .792 .792 .792 1.23 .792 1.584 .437 1.584 0 1.584-.437 1.23-.792 .792-.792 .355-.792 0-.437 0 0" fill="#231f20"/>
<path transform="matrix(1,0,0,-1,370.3352,412.0981)" d="M0 0C0 .437 .355 .792 .792 .792 1.23 .792 1.584 .437 1.584 0 1.584-.437 1.23-.792 .792-.792 .355-.792 0-.437 0 0" fill="#231f20"/>
<path transform="matrix(1,0,0,-1,370.3352,399.6835)" d="M0 0C0 .437 .355 .792 .792 .792 1.23 .792 1.584 .437 1.584 0 1.584-.437 1.23-.792 .792-.792 .355-.792 0-.437 0 0" fill="#231f20"/>
<path transform="matrix(1,0,0,-1,370.3352,387.269)" d="M0 0C0 .437 .355 .792 .792 .792 1.23 .792 1.584 .437 1.584 0 1.584-.437 1.23-.792 .792-.792 .355-.792 0-.437 0 0" fill="#231f20"/>
<path transform="matrix(1,0,0,-1,370.3352,374.8544)" d="M0 0C0 .437 .355 .792 .792 .792 1.23 .792 1.584 .437 1.584 0 1.584-.437 1.23-.792 .792-.792 .355-.792 0-.437 0 0" fill="#231f20"/>
<path transform="matrix(1,0,0,-1,357.9206,486.5855)" d="M0 0C0 .437 .355 .792 .792 .792 1.23 .792 1.584 .437 1.584 0 1.584-.437 1.23-.792 .792-.792 .355-.792 0-.437 0 0" fill="#231f20"/>
<path transform="matrix(1,0,0,-1,357.9206,474.1709)" d="M0 0C0 .437 .355 .792 .792 .792 1.23 .792 1.584 .437 1.584 0 1.584-.437 1.23-.792 .792-.792 .355-.792 0-.437 0 0" fill="#231f20"/>
<path transform="matrix(1,0,0,-1,357.9206,461.7563)" d="M0 0C0 .437 .355 .792 .792 .792 1.23 .792 1.584 .437 1.584 0 1.584-.437 1.23-.792 .792-.792 .355-.792 0-.437 0 0" fill="#231f20"/>
<path transform="matrix(1,0,0,-1,357.9206,449.3418)" d="M0 0C0 .437 .355 .792 .792 .792 1.23 .792 1.584 .437 1.584 0 1.584-.437 1.23-.792 .792-.792 .355-.792 0-.437 0 0" fill="#231f20"/>
<path transform="matrix(1,0,0,-1,357.9206,436.9272)" d="M0 0C0 .437 .355 .792 .792 .792 1.23 .792 1.584 .437 1.584 0 1.584-.437 1.23-.792 .792-.792 .355-.792 0-.437 0 0" fill="#231f20"/>
<path transform="matrix(1,0,0,-1,357.9206,424.5127)" d="M0 0C0 .437 .355 .792 .792 .792 1.23 .792 1.584 .437 1.584 0 1.584-.437 1.23-.792 .792-.792 .355-.792 0-.437 0 0" fill="#231f20"/>
<path transform="matrix(1,0,0,-1,357.9206,412.0981)" d="M0 0C0 .437 .355 .792 .792 .792 1.23 .792 1.584 .437 1.584 0 1.584-.437 1.23-.792 .792-.792 .355-.792 0-.437 0 0" fill="#231f20"/>
<path transform="matrix(1,0,0,-1,357.9206,399.6835)" d="M0 0C0 .437 .355 .792 .792 .792 1.23 .792 1.584 .437 1.584 0 1.584-.437 1.23-.792 .792-.792 .355-.792 0-.437 0 0" fill="#231f20"/>
<path transform="matrix(1,0,0,-1,357.9206,387.269)" d="M0 0C0 .437 .355 .792 .792 .792 1.23 .792 1.584 .437 1.584 0 1.584-.437 1.23-.792 .792-.792 .355-.792 0-.437 0 0" fill="#231f20"/>
<path transform="matrix(1,0,0,-1,357.9206,374.8544)" d="M0 0C0 .437 .355 .792 .792 .792 1.23 .792 1.584 .437 1.584 0 1.584-.437 1.23-.792 .792-.792 .355-.792 0-.437 0 0" fill="#231f20"/>
<path transform="matrix(1,0,0,-1,357.9206,362.4398)" d="M0 0C0 .437 .355 .792 .792 .792 1.23 .792 1.584 .437 1.584 0 1.584-.437 1.23-.792 .792-.792 .355-.792 0-.437 0 0" fill="#231f20"/>
<path transform="matrix(1,0,0,-1,345.5061,461.7563)" d="M0 0C0 .437 .355 .792 .792 .792 1.23 .792 1.584 .437 1.584 0 1.584-.437 1.23-.792 .792-.792 .355-.792 0-.437 0 0" fill="#231f20"/>
<path transform="matrix(1,0,0,-1,345.5061,449.3418)" d="M0 0C0 .437 .355 .792 .792 .792 1.23 .792 1.584 .437 1.584 0 1.584-.437 1.23-.792 .792-.792 .355-.792 0-.437 0 0" fill="#231f20"/>
<path transform="matrix(1,0,0,-1,345.5061,436.9272)" d="M0 0C0 .437 .355 .792 .792 .792 1.23 .792 1.584 .437 1.584 0 1.584-.437 1.23-.792 .792-.792 .355-.792 0-.437 0 0" fill="#231f20"/>
<path transform="matrix(1,0,0,-1,345.5061,424.5127)" d="M0 0C0 .437 .355 .792 .792 .792 1.23 .792 1.584 .437 1.584 0 1.584-.437 1.23-.792 .792-.792 .355-.792 0-.437 0 0" fill="#231f20"/>
<path transform="matrix(1,0,0,-1,345.5061,412.0981)" d="M0 0C0 .437 .355 .792 .792 .792 1.23 .792 1.584 .437 1.584 0 1.584-.437 1.23-.792 .792-.792 .355-.792 0-.437 0 0" fill="#231f20"/>
<path transform="matrix(1,0,0,-1,345.5061,399.6835)" d="M0 0C0 .437 .355 .792 .792 .792 1.23 .792 1.584 .437 1.584 0 1.584-.437 1.23-.792 .792-.792 .355-.792 0-.437 0 0" fill="#231f20"/>
<path transform="matrix(1,0,0,-1,345.5061,387.269)" d="M0 0C0 .437 .355 .792 .792 .792 1.23 .792 1.584 .437 1.584 0 1.584-.437 1.23-.792 .792-.792 .355-.792 0-.437 0 0" fill="#231f20"/>
<path transform="matrix(1,0,0,-1,345.5061,374.8544)" d="M0 0C0 .437 .355 .792 .792 .792 1.23 .792 1.584 .437 1.584 0 1.584-.437 1.23-.792 .792-.792 .355-.792 0-.437 0 0" fill="#231f20"/>
<path transform="matrix(1,0,0,-1,345.5061,362.4398)" d="M0 0C0 .437 .355 .792 .792 .792 1.23 .792 1.584 .437 1.584 0 1.584-.437 1.23-.792 .792-.792 .355-.792 0-.437 0 0" fill="#231f20"/>
<path transform="matrix(1,0,0,-1,333.0915,474.1709)" d="M0 0C0 .437 .355 .792 .792 .792 1.23 .792 1.584 .437 1.584 0 1.584-.437 1.23-.792 .792-.792 .355-.792 0-.437 0 0" fill="#231f20"/>
<path transform="matrix(1,0,0,-1,333.0915,461.7563)" d="M0 0C0 .437 .355 .792 .792 .792 1.23 .792 1.584 .437 1.584 0 1.584-.437 1.23-.792 .792-.792 .355-.792 0-.437 0 0" fill="#231f20"/>
<path transform="matrix(1,0,0,-1,333.0915,449.3418)" d="M0 0C0 .437 .355 .792 .792 .792 1.23 .792 1.584 .437 1.584 0 1.584-.437 1.23-.792 .792-.792 .355-.792 0-.437 0 0" fill="#231f20"/>
<path transform="matrix(1,0,0,-1,333.0915,436.9272)" d="M0 0C0 .437 .355 .792 .792 .792 1.23 .792 1.584 .437 1.584 0 1.584-.437 1.23-.792 .792-.792 .355-.792 0-.437 0 0" fill="#231f20"/>
<path transform="matrix(1,0,0,-1,333.0915,424.5127)" d="M0 0C0 .437 .355 .792 .792 .792 1.23 .792 1.584 .437 1.584 0 1.584-.437 1.23-.792 .792-.792 .355-.792 0-.437 0 0" fill="#231f20"/>
<path transform="matrix(1,0,0,-1,333.0915,412.0981)" d="M0 0C0 .437 .355 .792 .792 .792 1.23 .792 1.584 .437 1.584 0 1.584-.437 1.23-.792 .792-.792 .355-.792 0-.437 0 0" fill="#231f20"/>
<path transform="matrix(1,0,0,-1,333.0915,399.6835)" d="M0 0C0 .437 .355 .792 .792 .792 1.23 .792 1.584 .437 1.584 0 1.584-.437 1.23-.792 .792-.792 .355-.792 0-.437 0 0" fill="#231f20"/>
<path transform="matrix(1,0,0,-1,333.0915,387.269)" d="M0 0C0 .437 .355 .792 .792 .792 1.23 .792 1.584 .437 1.584 0 1.584-.437 1.23-.792 .792-.792 .355-.792 0-.437 0 0" fill="#231f20"/>
<path transform="matrix(1,0,0,-1,333.0915,374.8544)" d="M0 0C0 .437 .355 .792 .792 .792 1.23 .792 1.584 .437 1.584 0 1.584-.437 1.23-.792 .792-.792 .355-.792 0-.437 0 0" fill="#231f20"/>
<path transform="matrix(1,0,0,-1,333.0915,362.4398)" d="M0 0C0 .437 .355 .792 .792 .792 1.23 .792 1.584 .437 1.584 0 1.584-.437 1.23-.792 .792-.792 .355-.792 0-.437 0 0" fill="#231f20"/>
<path transform="matrix(1,0,0,-1,333.0915,325.1961)" d="M0 0C0 .437 .355 .792 .792 .792 1.23 .792 1.584 .437 1.584 0 1.584-.437 1.23-.792 .792-.792 .355-.792 0-.437 0 0" fill="#231f20"/>
<path transform="matrix(1,0,0,-1,320.6769,461.7563)" d="M0 0C0 .437 .355 .792 .792 .792 1.23 .792 1.584 .437 1.584 0 1.584-.437 1.23-.792 .792-.792 .355-.792 0-.437 0 0" fill="#231f20"/>
<path transform="matrix(1,0,0,-1,320.6769,449.3418)" d="M0 0C0 .437 .355 .792 .792 .792 1.23 .792 1.584 .437 1.584 0 1.584-.437 1.23-.792 .792-.792 .355-.792 0-.437 0 0" fill="#231f20"/>
<path transform="matrix(1,0,0,-1,320.6769,436.9272)" d="M0 0C0 .437 .355 .792 .792 .792 1.23 .792 1.584 .437 1.584 0 1.584-.437 1.23-.792 .792-.792 .355-.792 0-.437 0 0" fill="#231f20"/>
<path transform="matrix(1,0,0,-1,320.6769,424.5127)" d="M0 0C0 .437 .355 .792 .792 .792 1.23 .792 1.584 .437 1.584 0 1.584-.437 1.23-.792 .792-.792 .355-.792 0-.437 0 0" fill="#231f20"/>
<path transform="matrix(1,0,0,-1,320.6769,412.0981)" d="M0 0C0 .437 .355 .792 .792 .792 1.23 .792 1.584 .437 1.584 0 1.584-.437 1.23-.792 .792-.792 .355-.792 0-.437 0 0" fill="#231f20"/>
<path transform="matrix(1,0,0,-1,320.6769,399.6835)" d="M0 0C0 .437 .355 .792 .792 .792 1.23 .792 1.584 .437 1.584 0 1.584-.437 1.23-.792 .792-.792 .355-.792 0-.437 0 0" fill="#231f20"/>
<path transform="matrix(1,0,0,-1,320.6769,387.269)" d="M0 0C0 .437 .355 .792 .792 .792 1.23 .792 1.584 .437 1.584 0 1.584-.437 1.23-.792 .792-.792 .355-.792 0-.437 0 0" fill="#231f20"/>
<path transform="matrix(1,0,0,-1,320.6769,374.8544)" d="M0 0C0 .437 .355 .792 .792 .792 1.23 .792 1.584 .437 1.584 0 1.584-.437 1.23-.792 .792-.792 .355-.792 0-.437 0 0" fill="#231f20"/>
<path transform="matrix(1,0,0,-1,320.6769,337.6107)" d="M0 0C0 .437 .355 .792 .792 .792 1.23 .792 1.584 .437 1.584 0 1.584-.437 1.23-.792 .792-.792 .355-.792 0-.437 0 0" fill="#231f20"/>
<path transform="matrix(1,0,0,-1,320.6769,325.1961)" d="M0 0C0 .437 .355 .792 .792 .792 1.23 .792 1.584 .437 1.584 0 1.584-.437 1.23-.792 .792-.792 .355-.792 0-.437 0 0" fill="#231f20"/>
<path transform="matrix(1,0,0,-1,320.6769,312.7816)" d="M0 0C0 .437 .355 .792 .792 .792 1.23 .792 1.584 .437 1.584 0 1.584-.437 1.23-.792 .792-.792 .355-.792 0-.437 0 0" fill="#231f20"/>
<path transform="matrix(1,0,0,-1,320.6769,300.367)" d="M0 0C0 .437 .355 .792 .792 .792 1.23 .792 1.584 .437 1.584 0 1.584-.437 1.23-.792 .792-.792 .355-.792 0-.437 0 0" fill="#231f20"/>
<path transform="matrix(1,0,0,-1,308.2624,486.5855)" d="M0 0C0 .437 .355 .792 .792 .792 1.23 .792 1.584 .437 1.584 0 1.584-.437 1.23-.792 .792-.792 .355-.792 0-.437 0 0" fill="#231f20"/>
<path transform="matrix(1,0,0,-1,308.2624,474.1709)" d="M0 0C0 .437 .355 .792 .792 .792 1.23 .792 1.584 .437 1.584 0 1.584-.437 1.23-.792 .792-.792 .355-.792 0-.437 0 0" fill="#231f20"/>
<path transform="matrix(1,0,0,-1,308.2624,461.7563)" d="M0 0C0 .437 .355 .792 .792 .792 1.23 .792 1.584 .437 1.584 0 1.584-.437 1.23-.792 .792-.792 .355-.792 0-.437 0 0" fill="#231f20"/>
<path transform="matrix(1,0,0,-1,308.2624,449.3418)" d="M0 0C0 .437 .355 .792 .792 .792 1.23 .792 1.584 .437 1.584 0 1.584-.437 1.23-.792 .792-.792 .355-.792 0-.437 0 0" fill="#231f20"/>
<path transform="matrix(1,0,0,-1,308.2624,436.9272)" d="M0 0C0 .437 .355 .792 .792 .792 1.23 .792 1.584 .437 1.584 0 1.584-.437 1.23-.792 .792-.792 .355-.792 0-.437 0 0" fill="#231f20"/>
<path transform="matrix(1,0,0,-1,308.2624,424.5127)" d="M0 0C0 .437 .355 .792 .792 .792 1.23 .792 1.584 .437 1.584 0 1.584-.437 1.23-.792 .792-.792 .355-.792 0-.437 0 0" fill="#231f20"/>
<path transform="matrix(1,0,0,-1,308.2624,412.0981)" d="M0 0C0 .437 .355 .792 .792 .792 1.23 .792 1.584 .437 1.584 0 1.584-.437 1.23-.792 .792-.792 .355-.792 0-.437 0 0" fill="#231f20"/>
<path transform="matrix(1,0,0,-1,308.2624,399.6835)" d="M0 0C0 .437 .355 .792 .792 .792 1.23 .792 1.584 .437 1.584 0 1.584-.437 1.23-.792 .792-.792 .355-.792 0-.437 0 0" fill="#231f20"/>
<path transform="matrix(1,0,0,-1,308.2624,387.269)" d="M0 0C0 .437 .355 .792 .792 .792 1.23 .792 1.584 .437 1.584 0 1.584-.437 1.23-.792 .792-.792 .355-.792 0-.437 0 0" fill="#231f20"/>
<path transform="matrix(1,0,0,-1,308.2624,374.8544)" d="M0 0C0 .437 .355 .792 .792 .792 1.23 .792 1.584 .437 1.584 0 1.584-.437 1.23-.792 .792-.792 .355-.792 0-.437 0 0" fill="#231f20"/>
<path transform="matrix(1,0,0,-1,308.2624,312.7816)" d="M0 0C0 .437 .355 .792 .792 .792 1.23 .792 1.584 .437 1.584 0 1.584-.437 1.23-.792 .792-.792 .355-.792 0-.437 0 0" fill="#231f20"/>
<path transform="matrix(1,0,0,-1,308.2624,300.367)" d="M0 0C0 .437 .355 .792 .792 .792 1.23 .792 1.584 .437 1.584 0 1.584-.437 1.23-.792 .792-.792 .355-.792 0-.437 0 0" fill="#231f20"/>
<path transform="matrix(1,0,0,-1,295.8478,461.7563)" d="M0 0C0 .437 .355 .792 .792 .792 1.23 .792 1.584 .437 1.584 0 1.584-.437 1.23-.792 .792-.792 .355-.792 0-.437 0 0" fill="#231f20"/>
<path transform="matrix(1,0,0,-1,295.8478,449.3418)" d="M0 0C0 .437 .355 .792 .792 .792 1.23 .792 1.584 .437 1.584 0 1.584-.437 1.23-.792 .792-.792 .355-.792 0-.437 0 0" fill="#231f20"/>
<path transform="matrix(1,0,0,-1,295.8478,424.5127)" d="M0 0C0 .437 .355 .792 .792 .792 1.23 .792 1.584 .437 1.584 0 1.584-.437 1.23-.792 .792-.792 .355-.792 0-.437 0 0" fill="#231f20"/>
<path transform="matrix(1,0,0,-1,295.8478,412.0981)" d="M0 0C0 .437 .355 .792 .792 .792 1.23 .792 1.584 .437 1.584 0 1.584-.437 1.23-.792 .792-.792 .355-.792 0-.437 0 0" fill="#231f20"/>
<path transform="matrix(1,0,0,-1,295.8478,399.6835)" d="M0 0C0 .437 .355 .792 .792 .792 1.23 .792 1.584 .437 1.584 0 1.584-.437 1.23-.792 .792-.792 .355-.792 0-.437 0 0" fill="#231f20"/>
<path transform="matrix(1,0,0,-1,295.8478,387.269)" d="M0 0C0 .437 .355 .792 .792 .792 1.23 .792 1.584 .437 1.584 0 1.584-.437 1.23-.792 .792-.792 .355-.792 0-.437 0 0" fill="#231f20"/>
<path transform="matrix(1,0,0,-1,295.8478,374.8544)" d="M0 0C0 .437 .355 .792 .792 .792 1.23 .792 1.584 .437 1.584 0 1.584-.437 1.23-.792 .792-.792 .355-.792 0-.437 0 0" fill="#231f20"/>
<path transform="matrix(1,0,0,-1,295.8478,312.7816)" d="M0 0C0 .437 .355 .792 .792 .792 1.23 .792 1.584 .437 1.584 0 1.584-.437 1.23-.792 .792-.792 .355-.792 0-.437 0 0" fill="#231f20"/>
<path transform="matrix(1,0,0,-1,283.4333,449.3418)" d="M0 0C0 .437 .355 .792 .792 .792 1.23 .792 1.584 .437 1.584 0 1.584-.437 1.23-.792 .792-.792 .355-.792 0-.437 0 0" fill="#231f20"/>
<path transform="matrix(1,0,0,-1,283.4333,424.5127)" d="M0 0C0 .437 .355 .792 .792 .792 1.23 .792 1.584 .437 1.584 0 1.584-.437 1.23-.792 .792-.792 .355-.792 0-.437 0 0" fill="#231f20"/>
<path transform="matrix(1,0,0,-1,283.4333,412.0981)" d="M0 0C0 .437 .355 .792 .792 .792 1.23 .792 1.584 .437 1.584 0 1.584-.437 1.23-.792 .792-.792 .355-.792 0-.437 0 0" fill="#231f20"/>
<path transform="matrix(1,0,0,-1,283.4333,399.6835)" d="M0 0C0 .437 .355 .792 .792 .792 1.23 .792 1.584 .437 1.584 0 1.584-.437 1.23-.792 .792-.792 .355-.792 0-.437 0 0" fill="#231f20"/>
<path transform="matrix(1,0,0,-1,283.4333,374.8544)" d="M0 0C0 .437 .355 .792 .792 .792 1.23 .792 1.584 .437 1.584 0 1.584-.437 1.23-.792 .792-.792 .355-.792 0-.437 0 0" fill="#231f20"/>
<path transform="matrix(1,0,0,-1,283.4333,312.7816)" d="M0 0C0 .437 .355 .792 .792 .792 1.23 .792 1.584 .437 1.584 0 1.584-.437 1.23-.792 .792-.792 .355-.792 0-.437 0 0" fill="#231f20"/>
<path transform="matrix(1,0,0,-1,271.0187,424.5127)" d="M0 0C0 .437 .355 .792 .792 .792 1.23 .792 1.584 .437 1.584 0 1.584-.437 1.23-.792 .792-.792 .355-.792 0-.437 0 0" fill="#231f20"/>
<path transform="matrix(1,0,0,-1,271.0187,412.0981)" d="M0 0C0 .437 .355 .792 .792 .792 1.23 .792 1.584 .437 1.584 0 1.584-.437 1.23-.792 .792-.792 .355-.792 0-.437 0 0" fill="#231f20"/>
<path transform="matrix(1,0,0,-1,271.0187,399.6835)" d="M0 0C0 .437 .355 .792 .792 .792 1.23 .792 1.584 .437 1.584 0 1.584-.437 1.23-.792 .792-.792 .355-.792 0-.437 0 0" fill="#231f20"/>
<path transform="matrix(1,0,0,-1,258.6041,424.5127)" d="M0 0C0 .437 .355 .792 .792 .792 1.23 .792 1.584 .437 1.584 0 1.584-.437 1.23-.792 .792-.792 .355-.792 0-.437 0 0" fill="#231f20"/>
<path transform="matrix(1,0,0,-1,258.6041,412.0981)" d="M0 0C0 .437 .355 .792 .792 .792 1.23 .792 1.584 .437 1.584 0 1.584-.437 1.23-.792 .792-.792 .355-.792 0-.437 0 0" fill="#231f20"/>
<path transform="matrix(1,0,0,-1,246.1896,412.0981)" d="M0 0C0 .437 .355 .792 .792 .792 1.23 .792 1.584 .437 1.584 0 1.584-.437 1.23-.792 .792-.792 .355-.792 0-.437 0 0" fill="#231f20"/>
<path transform="matrix(1,0,0,-1,233.775,412.0981)" d="M0 0C0 .437 .355 .792 .792 .792 1.23 .792 1.584 .437 1.584 0 1.584-.437 1.23-.792 .792-.792 .355-.792 0-.437 0 0" fill="#231f20"/>
<path transform="matrix(1,0,0,-1,507.4309,29.863099)" d="M0 0C0 .437 .355 .792 .792 .792 1.23 .792 1.584 .437 1.584 0 1.584-.437 1.23-.792 .792-.792 .355-.792 0-.437 0 0" fill="#231f20"/>
<path transform="matrix(1,0,0,-1,495.0163,42.277589)" d="M0 0C0 .437 .355 .792 .792 .792 1.23 .792 1.584 .437 1.584 0 1.584-.437 1.23-.792 .792-.792 .355-.792 0-.437 0 0" fill="#231f20"/>
<path transform="matrix(1,0,0,-1,495.0163,29.863099)" d="M0 0C0 .437 .355 .792 .792 .792 1.23 .792 1.584 .437 1.584 0 1.584-.437 1.23-.792 .792-.792 .355-.792 0-.437 0 0" fill="#231f20"/>
<path transform="matrix(1,0,0,-1,482.6018,54.6922)" d="M0 0C0 .437 .355 .792 .792 .792 1.23 .792 1.584 .437 1.584 0 1.584-.437 1.23-.792 .792-.792 .355-.792 0-.437 0 0" fill="#231f20"/>
<path transform="matrix(1,0,0,-1,482.6018,42.277589)" d="M0 0C0 .437 .355 .792 .792 .792 1.23 .792 1.584 .437 1.584 0 1.584-.437 1.23-.792 .792-.792 .355-.792 0-.437 0 0" fill="#231f20"/>
<path transform="matrix(1,0,0,-1,482.6018,29.863099)" d="M0 0C0 .437 .355 .792 .792 .792 1.23 .792 1.584 .437 1.584 0 1.584-.437 1.23-.792 .792-.792 .355-.792 0-.437 0 0" fill="#231f20"/>
<path transform="matrix(1,0,0,-1,470.1872,42.277589)" d="M0 0C0 .437 .355 .792 .792 .792 1.23 .792 1.584 .437 1.584 0 1.584-.437 1.23-.792 .792-.792 .355-.792 0-.437 0 0" fill="#231f20"/>
<path transform="matrix(1,0,0,-1,457.7726,42.277589)" d="M0 0C0 .437 .355 .792 .792 .792 1.23 .792 1.584 .437 1.584 0 1.584-.437 1.23-.792 .792-.792 .355-.792 0-.437 0 0" fill="#231f20"/>
<path transform="matrix(1,0,0,-1,68.4494,739.492)" d="M0 0C0-.437-.355-.792-.792-.792-1.23-.792-1.584-.437-1.584 0-1.584 .437-1.23 .792-.792 .792-.355 .792 0 .437 0 0" fill="#231f20"/>
<path transform="matrix(1,0,0,-1,80.864,677.4192)" d="M0 0C0-.437-.355-.792-.792-.792-1.23-.792-1.584-.437-1.584 0-1.584 .437-1.23 .792-.792 .792-.355 .792 0 .437 0 0" fill="#231f20"/>
<path transform="matrix(1,0,0,-1,80.864,689.8337)" d="M0 0C0-.437-.355-.792-.792-.792-1.23-.792-1.584-.437-1.584 0-1.584 .437-1.23 .792-.792 .792-.355 .792 0 .437 0 0" fill="#231f20"/>
<path transform="matrix(1,0,0,-1,80.864,702.2483)" d="M0 0C0-.437-.355-.792-.792-.792-1.23-.792-1.584-.437-1.584 0-1.584 .437-1.23 .792-.792 .792-.355 .792 0 .437 0 0" fill="#231f20"/>
<path transform="matrix(1,0,0,-1,80.864,714.6629)" d="M0 0C0-.437-.355-.792-.792-.792-1.23-.792-1.584-.437-1.584 0-1.584 .437-1.23 .792-.792 .792-.355 .792 0 .437 0 0" fill="#231f20"/>
<path transform="matrix(1,0,0,-1,80.864,739.492)" d="M0 0C0-.437-.355-.792-.792-.792-1.23-.792-1.584-.437-1.584 0-1.584 .437-1.23 .792-.792 .792-.355 .792 0 .437 0 0" fill="#231f20"/>
<path transform="matrix(1,0,0,-1,93.2785,689.8337)" d="M0 0C0-.437-.355-.792-.792-.792-1.23-.792-1.584-.437-1.584 0-1.584 .437-1.23 .792-.792 .792-.355 .792 0 .437 0 0" fill="#231f20"/>
<path transform="matrix(1,0,0,-1,93.2785,702.2483)" d="M0 0C0-.437-.355-.792-.792-.792-1.23-.792-1.584-.437-1.584 0-1.584 .437-1.23 .792-.792 .792-.355 .792 0 .437 0 0" fill="#231f20"/>
<path transform="matrix(1,0,0,-1,93.2785,714.6629)" d="M0 0C0-.437-.355-.792-.792-.792-1.23-.792-1.584-.437-1.584 0-1.584 .437-1.23 .792-.792 .792-.355 .792 0 .437 0 0" fill="#231f20"/>
<path transform="matrix(1,0,0,-1,93.2785,727.0774)" d="M0 0C0-.437-.355-.792-.792-.792-1.23-.792-1.584-.437-1.584 0-1.584 .437-1.23 .792-.792 .792-.355 .792 0 .437 0 0" fill="#231f20"/>
<path transform="matrix(1,0,0,-1,93.2785,739.492)" d="M0 0C0-.437-.355-.792-.792-.792-1.23-.792-1.584-.437-1.584 0-1.584 .437-1.23 .792-.792 .792-.355 .792 0 .437 0 0" fill="#231f20"/>
<path transform="matrix(1,0,0,-1,105.6931,702.2483)" d="M0 0C0-.437-.355-.792-.792-.792-1.23-.792-1.584-.437-1.584 0-1.584 .437-1.23 .792-.792 .792-.355 .792 0 .437 0 0" fill="#231f20"/>
<path transform="matrix(1,0,0,-1,105.6931,714.6629)" d="M0 0C0-.437-.355-.792-.792-.792-1.23-.792-1.584-.437-1.584 0-1.584 .437-1.23 .792-.792 .792-.355 .792 0 .437 0 0" fill="#231f20"/>
<path transform="matrix(1,0,0,-1,105.6931,727.0774)" d="M0 0C0-.437-.355-.792-.792-.792-1.23-.792-1.584-.437-1.584 0-1.584 .437-1.23 .792-.792 .792-.355 .792 0 .437 0 0" fill="#231f20"/>
<path transform="matrix(1,0,0,-1,118.1076,727.0774)" d="M0 0C0-.437-.355-.792-.792-.792-1.23-.792-1.584-.437-1.584 0-1.584 .437-1.23 .792-.792 .792-.355 .792 0 .437 0 0" fill="#231f20"/>
<path transform="matrix(1,0,0,-1,130.5222,727.0774)" d="M0 0C0-.437-.355-.792-.792-.792-1.23-.792-1.584-.437-1.584 0-1.584 .437-1.23 .792-.792 .792-.355 .792 0 .437 0 0" fill="#231f20"/>
<path transform="matrix(1,0,0,-1,142.9368,714.6629)" d="M0 0C0-.437-.355-.792-.792-.792-1.23-.792-1.584-.437-1.584 0-1.584 .437-1.23 .792-.792 .792-.355 .792 0 .437 0 0" fill="#231f20"/>
<path transform="matrix(1,0,0,-1,142.9368,727.0774)" d="M0 0C0-.437-.355-.792-.792-.792-1.23-.792-1.584-.437-1.584 0-1.584 .437-1.23 .792-.792 .792-.355 .792 0 .437 0 0" fill="#231f20"/>
<path transform="matrix(1,0,0,-1,155.3513,727.0774)" d="M0 0C0-.437-.355-.792-.792-.792-1.23-.792-1.584-.437-1.584 0-1.584 .437-1.23 .792-.792 .792-.355 .792 0 .437 0 0" fill="#231f20"/>
<path transform="matrix(1,0,0,-1,68.4494,751.9066)" d="M0 0C0-.437-.355-.792-.792-.792-1.23-.792-1.584-.437-1.584 0-1.584 .437-1.23 .792-.792 .792-.355 .792 0 .437 0 0" fill="#231f20"/>
<path transform="matrix(1,0,0,-1,80.864,751.9066)" d="M0 0C0-.437-.355-.792-.792-.792-1.23-.792-1.584-.437-1.584 0-1.584 .437-1.23 .792-.792 .792-.355 .792 0 .437 0 0" fill="#231f20"/>
<path transform="matrix(1,0,0,-1,80.864,764.3211)" d="M0 0C0-.437-.355-.792-.792-.792-1.23-.792-1.584-.437-1.584 0-1.584 .437-1.23 .792-.792 .792-.355 .792 0 .437 0 0" fill="#231f20"/>
<path transform="matrix(1,0,0,-1,93.2785,751.9066)" d="M0 0C0-.437-.355-.792-.792-.792-1.23-.792-1.584-.437-1.584 0-1.584 .437-1.23 .792-.792 .792-.355 .792 0 .437 0 0" fill="#231f20"/>
<path transform="matrix(1,0,0,-1,105.6931,751.9066)" d="M0 0C0-.437-.355-.792-.792-.792-1.23-.792-1.584-.437-1.584 0-1.584 .437-1.23 .792-.792 .792-.355 .792 0 .437 0 0" fill="#231f20"/>
<path transform="matrix(1,0,0,-1,519.3099,585.902)" d="M0 0C0 .437 .355 .792 .792 .792 1.23 .792 1.584 .437 1.584 0 1.584-.437 1.23-.792 .792-.792 .355-.792 0-.437 0 0" fill="#231f20"/>
<path transform="matrix(1,0,0,-1,519.3099,536.2437)" d="M0 0C0 .437 .355 .792 .792 .792 1.23 .792 1.584 .437 1.584 0 1.584-.437 1.23-.792 .792-.792 .355-.792 0-.437 0 0" fill="#231f20"/>
<path transform="matrix(1,0,0,-1,444.8437,91.1828)" d="M0 0C0 .437 .355 .792 .792 .792 1.23 .792 1.584 .437 1.584 0 1.584-.437 1.23-.792 .792-.792 .355-.792 0-.437 0 0" fill="#231f20"/>
<path transform="matrix(1,0,0,-1,506.8954,585.902)" d="M0 0C0 .437 .355 .792 .792 .792 1.23 .792 1.584 .437 1.584 0 1.584-.437 1.23-.792 .792-.792 .355-.792 0-.437 0 0" fill="#231f20"/>
<path transform="matrix(1,0,0,-1,506.8954,573.4874)" d="M0 0C0 .437 .355 .792 .792 .792 1.23 .792 1.584 .437 1.584 0 1.584-.437 1.23-.792 .792-.792 .355-.792 0-.437 0 0" fill="#231f20"/>
<path transform="matrix(1,0,0,-1,506.8954,536.2437)" d="M0 0C0 .437 .355 .792 .792 .792 1.23 .792 1.584 .437 1.584 0 1.584-.437 1.23-.792 .792-.792 .355-.792 0-.437 0 0" fill="#231f20"/>
<path transform="matrix(1,0,0,-1,432.4291,103.59741)" d="M0 0C0 .437 .355 .792 .792 .792 1.23 .792 1.584 .437 1.584 0 1.584-.437 1.23-.792 .792-.792 .355-.792 0-.437 0 0" fill="#231f20"/>
<path transform="matrix(1,0,0,-1,543.5506,646.6881)" d="M0 0C0 .437 .355 .792 .792 .792 1.23 .792 1.584 .437 1.584 0 1.584-.437 1.23-.792 .792-.792 .355-.792 0-.437 0 0" fill="#231f20"/>
<path transform="matrix(1,0,0,-1,543.5506,621.859)" d="M0 0C0 .437 .355 .792 .792 .792 1.23 .792 1.584 .437 1.584 0 1.584-.437 1.23-.792 .792-.792 .355-.792 0-.437 0 0" fill="#231f20"/>
<path transform="matrix(1,0,0,-1,494.4808,536.2437)" d="M0 0C0 .437 .355 .792 .792 .792 1.23 .792 1.584 .437 1.584 0 1.584-.437 1.23-.792 .792-.792 .355-.792 0-.437 0 0" fill="#231f20"/>
<path transform="matrix(1,0,0,-1,494.4808,523.8292)" d="M0 0C0 .437 .355 .792 .792 .792 1.23 .792 1.584 .437 1.584 0 1.584-.437 1.23-.792 .792-.792 .355-.792 0-.437 0 0" fill="#231f20"/>
<path transform="matrix(1,0,0,-1,420.0145,103.59741)" d="M0 0C0 .437 .355 .792 .792 .792 1.23 .792 1.584 .437 1.584 0 1.584-.437 1.23-.792 .792-.792 .355-.792 0-.437 0 0" fill="#231f20"/>
<path transform="matrix(1,0,0,-1,420.0145,91.1828)" d="M0 0C0 .437 .355 .792 .792 .792 1.23 .792 1.584 .437 1.584 0 1.584-.437 1.23-.792 .792-.792 .355-.792 0-.437 0 0" fill="#231f20"/>
<path transform="matrix(1,0,0,-1,531.136,646.6881)" d="M0 0C0 .437 .355 .792 .792 .792 1.23 .792 1.584 .437 1.584 0 1.584-.437 1.23-.792 .792-.792 .355-.792 0-.437 0 0" fill="#231f20"/>
<path transform="matrix(1,0,0,-1,531.136,634.2736)" d="M0 0C0 .437 .355 .792 .792 .792 1.23 .792 1.584 .437 1.584 0 1.584-.437 1.23-.792 .792-.792 .355-.792 0-.437 0 0" fill="#231f20"/>
<path transform="matrix(1,0,0,-1,531.136,621.859)" d="M0 0C0 .437 .355 .792 .792 .792 1.23 .792 1.584 .437 1.584 0 1.584-.437 1.23-.792 .792-.792 .355-.792 0-.437 0 0" fill="#231f20"/>
<path transform="matrix(1,0,0,-1,482.0663,536.2437)" d="M0 0C0 .437 .355 .792 .792 .792 1.23 .792 1.584 .437 1.584 0 1.584-.437 1.23-.792 .792-.792 .355-.792 0-.437 0 0" fill="#231f20"/>
<path transform="matrix(1,0,0,-1,482.0663,523.8292)" d="M0 0C0 .437 .355 .792 .792 .792 1.23 .792 1.584 .437 1.584 0 1.584-.437 1.23-.792 .792-.792 .355-.792 0-.437 0 0" fill="#231f20"/>
<path transform="matrix(1,0,0,-1,407.6,103.59741)" d="M0 0C0 .437 .355 .792 .792 .792 1.23 .792 1.584 .437 1.584 0 1.584-.437 1.23-.792 .792-.792 .355-.792 0-.437 0 0" fill="#231f20"/>
<path transform="matrix(1,0,0,-1,407.6,91.1828)" d="M0 0C0 .437 .355 .792 .792 .792 1.23 .792 1.584 .437 1.584 0 1.584-.437 1.23-.792 .792-.792 .355-.792 0-.437 0 0" fill="#231f20"/>
<path transform="matrix(1,0,0,-1,407.6,78.76819)" d="M0 0C0 .437 .355 .792 .792 .792 1.23 .792 1.584 .437 1.584 0 1.584-.437 1.23-.792 .792-.792 .355-.792 0-.437 0 0" fill="#231f20"/>
<path transform="matrix(1,0,0,-1,457.6,66.3537)" d="M0 0C0 .437 .355 .792 .792 .792 1.23 .792 1.584 .437 1.584 0 1.584-.437 1.23-.792 .792-.792 .355-.792 0-.437 0 0" fill="#231f20"/>
<path transform="matrix(1,0,0,-1,518.7215,659.1027)" d="M0 0C0 .437 .355 .792 .792 .792 1.23 .792 1.584 .437 1.584 0 1.584-.437 1.23-.792 .792-.792 .355-.792 0-.437 0 0" fill="#231f20"/>
<path transform="matrix(1,0,0,-1,518.7215,646.6881)" d="M0 0C0 .437 .355 .792 .792 .792 1.23 .792 1.584 .437 1.584 0 1.584-.437 1.23-.792 .792-.792 .355-.792 0-.437 0 0" fill="#231f20"/>
<path transform="matrix(1,0,0,-1,518.7215,634.2736)" d="M0 0C0 .437 .355 .792 .792 .792 1.23 .792 1.584 .437 1.584 0 1.584-.437 1.23-.792 .792-.792 .355-.792 0-.437 0 0" fill="#231f20"/>
<path transform="matrix(1,0,0,-1,518.7215,621.859)" d="M0 0C0 .437 .355 .792 .792 .792 1.23 .792 1.584 .437 1.584 0 1.584-.437 1.23-.792 .792-.792 .355-.792 0-.437 0 0" fill="#231f20"/>
<path transform="matrix(1,0,0,-1,469.6517,561.0729)" d="M0 0C0 .437 .355 .792 .792 .792 1.23 .792 1.584 .437 1.584 0 1.584-.437 1.23-.792 .792-.792 .355-.792 0-.437 0 0" fill="#231f20"/>
<path transform="matrix(1,0,0,-1,469.6517,548.6583)" d="M0 0C0 .437 .355 .792 .792 .792 1.23 .792 1.584 .437 1.584 0 1.584-.437 1.23-.792 .792-.792 .355-.792 0-.437 0 0" fill="#231f20"/>
<path transform="matrix(1,0,0,-1,469.6517,536.2437)" d="M0 0C0 .437 .355 .792 .792 .792 1.23 .792 1.584 .437 1.584 0 1.584-.437 1.23-.792 .792-.792 .355-.792 0-.437 0 0" fill="#231f20"/>
<path transform="matrix(1,0,0,-1,469.6517,523.8292)" d="M0 0C0 .437 .355 .792 .792 .792 1.23 .792 1.584 .437 1.584 0 1.584-.437 1.23-.792 .792-.792 .355-.792 0-.437 0 0" fill="#231f20"/>
<path transform="matrix(1,0,0,-1,395.1854,91.1828)" d="M0 0C0 .437 .355 .792 .792 .792 1.23 .792 1.584 .437 1.584 0 1.584-.437 1.23-.792 .792-.792 .355-.792 0-.437 0 0" fill="#231f20"/>
<path transform="matrix(1,0,0,-1,395.1854,78.76819)" d="M0 0C0 .437 .355 .792 .792 .792 1.23 .792 1.584 .437 1.584 0 1.584-.437 1.23-.792 .792-.792 .355-.792 0-.437 0 0" fill="#231f20"/>
<path transform="matrix(1,0,0,-1,395.1854,66.3537)" d="M0 0C0 .437 .355 .792 .792 .792 1.23 .792 1.584 .437 1.584 0 1.584-.437 1.23-.792 .792-.792 .355-.792 0-.437 0 0" fill="#231f20"/>
<path transform="matrix(1,0,0,-1,395.1854,41.524477)" d="M0 0C0 .437 .355 .792 .792 .792 1.23 .792 1.584 .437 1.584 0 1.584-.437 1.23-.792 .792-.792 .355-.792 0-.437 0 0" fill="#231f20"/>
<path transform="matrix(1,0,0,-1,506.3069,659.1027)" d="M0 0C0 .437 .355 .792 .792 .792 1.23 .792 1.584 .437 1.584 0 1.584-.437 1.23-.792 .792-.792 .355-.792 0-.437 0 0" fill="#231f20"/>
<path transform="matrix(1,0,0,-1,506.3069,646.6881)" d="M0 0C0 .437 .355 .792 .792 .792 1.23 .792 1.584 .437 1.584 0 1.584-.437 1.23-.792 .792-.792 .355-.792 0-.437 0 0" fill="#231f20"/>
<path transform="matrix(1,0,0,-1,506.3069,634.2736)" d="M0 0C0 .437 .355 .792 .792 .792 1.23 .792 1.584 .437 1.584 0 1.584-.437 1.23-.792 .792-.792 .355-.792 0-.437 0 0" fill="#231f20"/>
<path transform="matrix(1,0,0,-1,506.3069,621.859)" d="M0 0C0 .437 .355 .792 .792 .792 1.23 .792 1.584 .437 1.584 0 1.584-.437 1.23-.792 .792-.792 .355-.792 0-.437 0 0" fill="#231f20"/>
<path transform="matrix(1,0,0,-1,506.3069,609.4444)" d="M0 0C0 .437 .355 .792 .792 .792 1.23 .792 1.584 .437 1.584 0 1.584-.437 1.23-.792 .792-.792 .355-.792 0-.437 0 0" fill="#231f20"/>
<path transform="matrix(1,0,0,-1,457.2372,548.6583)" d="M0 0C0 .437 .355 .792 .792 .792 1.23 .792 1.584 .437 1.584 0 1.584-.437 1.23-.792 .792-.792 .355-.792 0-.437 0 0" fill="#231f20"/>
<path transform="matrix(1,0,0,-1,457.2372,536.2437)" d="M0 0C0 .437 .355 .792 .792 .792 1.23 .792 1.584 .437 1.584 0 1.584-.437 1.23-.792 .792-.792 .355-.792 0-.437 0 0" fill="#231f20"/>
<path transform="matrix(1,0,0,-1,382.7708,103.59741)" d="M0 0C0 .437 .355 .792 .792 .792 1.23 .792 1.584 .437 1.584 0 1.584-.437 1.23-.792 .792-.792 .355-.792 0-.437 0 0" fill="#231f20"/>
<path transform="matrix(1,0,0,-1,382.7708,91.1828)" d="M0 0C0 .437 .355 .792 .792 .792 1.23 .792 1.584 .437 1.584 0 1.584-.437 1.23-.792 .792-.792 .355-.792 0-.437 0 0" fill="#231f20"/>
<path transform="matrix(1,0,0,-1,382.7708,78.76819)" d="M0 0C0 .437 .355 .792 .792 .792 1.23 .792 1.584 .437 1.584 0 1.584-.437 1.23-.792 .792-.792 .355-.792 0-.437 0 0" fill="#231f20"/>
<path transform="matrix(1,0,0,-1,382.7708,66.3537)" d="M0 0C0 .437 .355 .792 .792 .792 1.23 .792 1.584 .437 1.584 0 1.584-.437 1.23-.792 .792-.792 .355-.792 0-.437 0 0" fill="#231f20"/>
<path transform="matrix(1,0,0,-1,382.7708,53.939088)" d="M0 0C0 .437 .355 .792 .792 .792 1.23 .792 1.584 .437 1.584 0 1.584-.437 1.23-.792 .792-.792 .355-.792 0-.437 0 0" fill="#231f20"/>
<path transform="matrix(1,0,0,-1,382.7708,41.524477)" d="M0 0C0 .437 .355 .792 .792 .792 1.23 .792 1.584 .437 1.584 0 1.584-.437 1.23-.792 .792-.792 .355-.792 0-.437 0 0" fill="#231f20"/>
<path transform="matrix(1,0,0,-1,382.7708,29.109986)" d="M0 0C0 .437 .355 .792 .792 .792 1.23 .792 1.584 .437 1.584 0 1.584-.437 1.23-.792 .792-.792 .355-.792 0-.437 0 0" fill="#231f20"/>
<path transform="matrix(1,0,0,-1,493.8924,646.6881)" d="M0 0C0 .437 .355 .792 .792 .792 1.23 .792 1.584 .437 1.584 0 1.584-.437 1.23-.792 .792-.792 .355-.792 0-.437 0 0" fill="#231f20"/>
<path transform="matrix(1,0,0,-1,493.8924,634.2736)" d="M0 0C0 .437 .355 .792 .792 .792 1.23 .792 1.584 .437 1.584 0 1.584-.437 1.23-.792 .792-.792 .355-.792 0-.437 0 0" fill="#231f20"/>
<path transform="matrix(1,0,0,-1,493.8924,621.859)" d="M0 0C0 .437 .355 .792 .792 .792 1.23 .792 1.584 .437 1.584 0 1.584-.437 1.23-.792 .792-.792 .355-.792 0-.437 0 0" fill="#231f20"/>
<path transform="matrix(1,0,0,-1,493.8924,609.4444)" d="M0 0C0 .437 .355 .792 .792 .792 1.23 .792 1.584 .437 1.584 0 1.584-.437 1.23-.792 .792-.792 .355-.792 0-.437 0 0" fill="#231f20"/>
<path transform="matrix(1,0,0,-1,370.3563,91.1828)" d="M0 0C0 .437 .355 .792 .792 .792 1.23 .792 1.584 .437 1.584 0 1.584-.437 1.23-.792 .792-.792 .355-.792 0-.437 0 0" fill="#231f20"/>
<path transform="matrix(1,0,0,-1,370.3563,78.76819)" d="M0 0C0 .437 .355 .792 .792 .792 1.23 .792 1.584 .437 1.584 0 1.584-.437 1.23-.792 .792-.792 .355-.792 0-.437 0 0" fill="#231f20"/>
<path transform="matrix(1,0,0,-1,370.3563,66.3537)" d="M0 0C0 .437 .355 .792 .792 .792 1.23 .792 1.584 .437 1.584 0 1.584-.437 1.23-.792 .792-.792 .355-.792 0-.437 0 0" fill="#231f20"/>
<path transform="matrix(1,0,0,-1,481.4778,634.2736)" d="M0 0C0 .437 .355 .792 .792 .792 1.23 .792 1.584 .437 1.584 0 1.584-.437 1.23-.792 .792-.792 .355-.792 0-.437 0 0" fill="#231f20"/>
<path transform="matrix(1,0,0,-1,481.4778,621.859)" d="M0 0C0 .437 .355 .792 .792 .792 1.23 .792 1.584 .437 1.584 0 1.584-.437 1.23-.792 .792-.792 .355-.792 0-.437 0 0" fill="#231f20"/>
<path transform="matrix(1,0,0,-1,481.4778,609.4444)" d="M0 0C0 .437 .355 .792 .792 .792 1.23 .792 1.584 .437 1.584 0 1.584-.437 1.23-.792 .792-.792 .355-.792 0-.437 0 0" fill="#231f20"/>
<path transform="matrix(1,0,0,-1,481.4778,597.0299)" d="M0 0C0 .437 .355 .792 .792 .792 1.23 .792 1.584 .437 1.584 0 1.584-.437 1.23-.792 .792-.792 .355-.792 0-.437 0 0" fill="#231f20"/>
<path transform="matrix(1,0,0,-1,432.408,548.6583)" d="M0 0C0 .437 .355 .792 .792 .792 1.23 .792 1.584 .437 1.584 0 1.584-.437 1.23-.792 .792-.792 .355-.792 0-.437 0 0" fill="#231f20"/>
<path transform="matrix(1,0,0,-1,432.408,536.2437)" d="M0 0C0 .437 .355 .792 .792 .792 1.23 .792 1.584 .437 1.584 0 1.584-.437 1.23-.792 .792-.792 .355-.792 0-.437 0 0" fill="#231f20"/>
<path transform="matrix(1,0,0,-1,432.408,523.8292)" d="M0 0C0 .437 .355 .792 .792 .792 1.23 .792 1.584 .437 1.584 0 1.584-.437 1.23-.792 .792-.792 .355-.792 0-.437 0 0" fill="#231f20"/>
<path transform="matrix(1,0,0,-1,357.9417,66.3537)" d="M0 0C0 .437 .355 .792 .792 .792 1.23 .792 1.584 .437 1.584 0 1.584-.437 1.23-.792 .792-.792 .355-.792 0-.437 0 0" fill="#231f20"/>
<path transform="matrix(1,0,0,-1,357.9417,53.939088)" d="M0 0C0 .437 .355 .792 .792 .792 1.23 .792 1.584 .437 1.584 0 1.584-.437 1.23-.792 .792-.792 .355-.792 0-.437 0 0" fill="#231f20"/>
<path transform="matrix(1,0,0,-1,469.0632,634.2736)" d="M0 0C0 .437 .355 .792 .792 .792 1.23 .792 1.584 .437 1.584 0 1.584-.437 1.23-.792 .792-.792 .355-.792 0-.437 0 0" fill="#231f20"/>
<path transform="matrix(1,0,0,-1,469.0632,621.859)" d="M0 0C0 .437 .355 .792 .792 .792 1.23 .792 1.584 .437 1.584 0 1.584-.437 1.23-.792 .792-.792 .355-.792 0-.437 0 0" fill="#231f20"/>
<path transform="matrix(1,0,0,-1,419.9935,573.4874)" d="M0 0C0 .437 .355 .792 .792 .792 1.23 .792 1.584 .437 1.584 0 1.584-.437 1.23-.792 .792-.792 .355-.792 0-.437 0 0" fill="#231f20"/>
<path transform="matrix(1,0,0,-1,419.9935,561.0729)" d="M0 0C0 .437 .355 .792 .792 .792 1.23 .792 1.584 .437 1.584 0 1.584-.437 1.23-.792 .792-.792 .355-.792 0-.437 0 0" fill="#231f20"/>
<path transform="matrix(1,0,0,-1,419.9935,548.6583)" d="M0 0C0 .437 .355 .792 .792 .792 1.23 .792 1.584 .437 1.584 0 1.584-.437 1.23-.792 .792-.792 .355-.792 0-.437 0 0" fill="#231f20"/>
<path transform="matrix(1,0,0,-1,419.9935,536.2437)" d="M0 0C0 .437 .355 .792 .792 .792 1.23 .792 1.584 .437 1.584 0 1.584-.437 1.23-.792 .792-.792 .355-.792 0-.437 0 0" fill="#231f20"/>
<path transform="matrix(1,0,0,-1,419.9935,523.8292)" d="M0 0C0 .437 .355 .792 .792 .792 1.23 .792 1.584 .437 1.584 0 1.584-.437 1.23-.792 .792-.792 .355-.792 0-.437 0 0" fill="#231f20"/>
<path transform="matrix(1,0,0,-1,345.5271,91.1828)" d="M0 0C0 .437 .355 .792 .792 .792 1.23 .792 1.584 .437 1.584 0 1.584-.437 1.23-.792 .792-.792 .355-.792 0-.437 0 0" fill="#231f20"/>
<path transform="matrix(1,0,0,-1,345.5271,78.76819)" d="M0 0C0 .437 .355 .792 .792 .792 1.23 .792 1.584 .437 1.584 0 1.584-.437 1.23-.792 .792-.792 .355-.792 0-.437 0 0" fill="#231f20"/>
<path transform="matrix(1,0,0,-1,345.5271,66.3537)" d="M0 0C0 .437 .355 .792 .792 .792 1.23 .792 1.584 .437 1.584 0 1.584-.437 1.23-.792 .792-.792 .355-.792 0-.437 0 0" fill="#231f20"/>
<path transform="matrix(1,0,0,-1,345.5271,53.939088)" d="M0 0C0 .437 .355 .792 .792 .792 1.23 .792 1.584 .437 1.584 0 1.584-.437 1.23-.792 .792-.792 .355-.792 0-.437 0 0" fill="#231f20"/>
<path transform="matrix(1,0,0,-1,345.5271,41.524477)" d="M0 0C0 .437 .355 .792 .792 .792 1.23 .792 1.584 .437 1.584 0 1.584-.437 1.23-.792 .792-.792 .355-.792 0-.437 0 0" fill="#231f20"/>
<path transform="matrix(1,0,0,-1,456.6487,621.859)" d="M0 0C0 .437 .355 .792 .792 .792 1.23 .792 1.584 .437 1.584 0 1.584-.437 1.23-.792 .792-.792 .355-.792 0-.437 0 0" fill="#231f20"/>
<path transform="matrix(1,0,0,-1,456.6487,609.4444)" d="M0 0C0 .437 .355 .792 .792 .792 1.23 .792 1.584 .437 1.584 0 1.584-.437 1.23-.792 .792-.792 .355-.792 0-.437 0 0" fill="#231f20"/>
<path transform="matrix(1,0,0,-1,407.5789,548.6583)" d="M0 0C0 .437 .355 .792 .792 .792 1.23 .792 1.584 .437 1.584 0 1.584-.437 1.23-.792 .792-.792 .355-.792 0-.437 0 0" fill="#231f20"/>
<path transform="matrix(1,0,0,-1,407.5789,536.2437)" d="M0 0C0 .437 .355 .792 .792 .792 1.23 .792 1.584 .437 1.584 0 1.584-.437 1.23-.792 .792-.792 .355-.792 0-.437 0 0" fill="#231f20"/>
<path transform="matrix(1,0,0,-1,407.5789,523.8292)" d="M0 0C0 .437 .355 .792 .792 .792 1.23 .792 1.584 .437 1.584 0 1.584-.437 1.23-.792 .792-.792 .355-.792 0-.437 0 0" fill="#231f20"/>
<path transform="matrix(1,0,0,-1,333.1126,78.76819)" d="M0 0C0 .437 .355 .792 .792 .792 1.23 .792 1.584 .437 1.584 0 1.584-.437 1.23-.792 .792-.792 .355-.792 0-.437 0 0" fill="#231f20"/>
<path transform="matrix(1,0,0,-1,333.1126,66.3537)" d="M0 0C0 .437 .355 .792 .792 .792 1.23 .792 1.584 .437 1.584 0 1.584-.437 1.23-.792 .792-.792 .355-.792 0-.437 0 0" fill="#231f20"/>
<path transform="matrix(1,0,0,-1,333.1126,53.939088)" d="M0 0C0 .437 .355 .792 .792 .792 1.23 .792 1.584 .437 1.584 0 1.584-.437 1.23-.792 .792-.792 .355-.792 0-.437 0 0" fill="#231f20"/>
<path transform="matrix(1,0,0,-1,395.1643,561.0729)" d="M0 0C0 .437 .355 .792 .792 .792 1.23 .792 1.584 .437 1.584 0 1.584-.437 1.23-.792 .792-.792 .355-.792 0-.437 0 0" fill="#231f20"/>
<path transform="matrix(1,0,0,-1,395.1643,548.6583)" d="M0 0C0 .437 .355 .792 .792 .792 1.23 .792 1.584 .437 1.584 0 1.584-.437 1.23-.792 .792-.792 .355-.792 0-.437 0 0" fill="#231f20"/>
<path transform="matrix(1,0,0,-1,395.1643,523.8292)" d="M0 0C0 .437 .355 .792 .792 .792 1.23 .792 1.584 .437 1.584 0 1.584-.437 1.23-.792 .792-.792 .355-.792 0-.437 0 0" fill="#231f20"/>
<path transform="matrix(1,0,0,-1,494.4808,399.6835)" d="M0 0C0 .437 .355 .792 .792 .792 1.23 .792 1.584 .437 1.584 0 1.584-.437 1.23-.792 .792-.792 .355-.792 0-.437 0 0" fill="#231f20"/>
<path transform="matrix(1,0,0,-1,482.0663,511.4146)" d="M0 0C0 .437 .355 .792 .792 .792 1.23 .792 1.584 .437 1.584 0 1.584-.437 1.23-.792 .792-.792 .355-.792 0-.437 0 0" fill="#231f20"/>
<path transform="matrix(1,0,0,-1,482.0663,399.6835)" d="M0 0C0 .437 .355 .792 .792 .792 1.23 .792 1.584 .437 1.584 0 1.584-.437 1.23-.792 .792-.792 .355-.792 0-.437 0 0" fill="#231f20"/>
<path transform="matrix(1,0,0,-1,469.6517,399.6835)" d="M0 0C0 .437 .355 .792 .792 .792 1.23 .792 1.584 .437 1.584 0 1.584-.437 1.23-.792 .792-.792 .355-.792 0-.437 0 0" fill="#231f20"/>
<path transform="matrix(1,0,0,-1,469.6517,387.269)" d="M0 0C0 .437 .355 .792 .792 .792 1.23 .792 1.584 .437 1.584 0 1.584-.437 1.23-.792 .792-.792 .355-.792 0-.437 0 0" fill="#231f20"/>
<path transform="matrix(1,0,0,-1,444.8226,237.31989)" d="M0 0C0 .437 .355 .792 .792 .792 1.23 .792 1.584 .437 1.584 0 1.584-.437 1.23-.792 .792-.792 .355-.792 0-.437 0 0" fill="#231f20"/>
<path transform="matrix(1,0,0,-1,457.2372,436.9272)" d="M0 0C0 .437 .355 .792 .792 .792 1.23 .792 1.584 .437 1.584 0 1.584-.437 1.23-.792 .792-.792 .355-.792 0-.437 0 0" fill="#231f20"/>
<path transform="matrix(1,0,0,-1,457.2372,412.0981)" d="M0 0C0 .437 .355 .792 .792 .792 1.23 .792 1.584 .437 1.584 0 1.584-.437 1.23-.792 .792-.792 .355-.792 0-.437 0 0" fill="#231f20"/>
<path transform="matrix(1,0,0,-1,457.2372,399.6835)" d="M0 0C0 .437 .355 .792 .792 .792 1.23 .792 1.584 .437 1.584 0 1.584-.437 1.23-.792 .792-.792 .355-.792 0-.437 0 0" fill="#231f20"/>
<path transform="matrix(1,0,0,-1,457.2372,387.269)" d="M0 0C0 .437 .355 .792 .792 .792 1.23 .792 1.584 .437 1.584 0 1.584-.437 1.23-.792 .792-.792 .355-.792 0-.437 0 0" fill="#231f20"/>
<path transform="matrix(1,0,0,-1,432.408,237.31989)" d="M0 0C0 .437 .355 .792 .792 .792 1.23 .792 1.584 .437 1.584 0 1.584-.437 1.23-.792 .792-.792 .355-.792 0-.437 0 0" fill="#231f20"/>
<path transform="matrix(1,0,0,-1,444.8226,474.1709)" d="M0 0C0 .437 .355 .792 .792 .792 1.23 .792 1.584 .437 1.584 0 1.584-.437 1.23-.792 .792-.792 .355-.792 0-.437 0 0" fill="#231f20"/>
<path transform="matrix(1,0,0,-1,444.8226,449.3418)" d="M0 0C0 .437 .355 .792 .792 .792 1.23 .792 1.584 .437 1.584 0 1.584-.437 1.23-.792 .792-.792 .355-.792 0-.437 0 0" fill="#231f20"/>
<path transform="matrix(1,0,0,-1,444.8226,436.9272)" d="M0 0C0 .437 .355 .792 .792 .792 1.23 .792 1.584 .437 1.584 0 1.584-.437 1.23-.792 .792-.792 .355-.792 0-.437 0 0" fill="#231f20"/>
<path transform="matrix(1,0,0,-1,444.8226,412.0981)" d="M0 0C0 .437 .355 .792 .792 .792 1.23 .792 1.584 .437 1.584 0 1.584-.437 1.23-.792 .792-.792 .355-.792 0-.437 0 0" fill="#231f20"/>
<path transform="matrix(1,0,0,-1,444.8226,399.6835)" d="M0 0C0 .437 .355 .792 .792 .792 1.23 .792 1.584 .437 1.584 0 1.584-.437 1.23-.792 .792-.792 .355-.792 0-.437 0 0" fill="#231f20"/>
<path transform="matrix(1,0,0,-1,444.8226,387.269)" d="M0 0C0 .437 .355 .792 .792 .792 1.23 .792 1.584 .437 1.584 0 1.584-.437 1.23-.792 .792-.792 .355-.792 0-.437 0 0" fill="#231f20"/>
<path transform="matrix(1,0,0,-1,419.9935,249.7345)" d="M0 0C0 .437 .355 .792 .792 .792 1.23 .792 1.584 .437 1.584 0 1.584-.437 1.23-.792 .792-.792 .355-.792 0-.437 0 0" fill="#231f20"/>
<path transform="matrix(1,0,0,-1,419.9935,237.31989)" d="M0 0C0 .437 .355 .792 .792 .792 1.23 .792 1.584 .437 1.584 0 1.584-.437 1.23-.792 .792-.792 .355-.792 0-.437 0 0" fill="#231f20"/>
<path transform="matrix(1,0,0,-1,432.408,511.4146)" d="M0 0C0 .437 .355 .792 .792 .792 1.23 .792 1.584 .437 1.584 0 1.584-.437 1.23-.792 .792-.792 .355-.792 0-.437 0 0" fill="#231f20"/>
<path transform="matrix(1,0,0,-1,432.408,486.5855)" d="M0 0C0 .437 .355 .792 .792 .792 1.23 .792 1.584 .437 1.584 0 1.584-.437 1.23-.792 .792-.792 .355-.792 0-.437 0 0" fill="#231f20"/>
<path transform="matrix(1,0,0,-1,432.408,474.1709)" d="M0 0C0 .437 .355 .792 .792 .792 1.23 .792 1.584 .437 1.584 0 1.584-.437 1.23-.792 .792-.792 .355-.792 0-.437 0 0" fill="#231f20"/>
<path transform="matrix(1,0,0,-1,432.408,449.3418)" d="M0 0C0 .437 .355 .792 .792 .792 1.23 .792 1.584 .437 1.584 0 1.584-.437 1.23-.792 .792-.792 .355-.792 0-.437 0 0" fill="#231f20"/>
<path transform="matrix(1,0,0,-1,432.408,436.9272)" d="M0 0C0 .437 .355 .792 .792 .792 1.23 .792 1.584 .437 1.584 0 1.584-.437 1.23-.792 .792-.792 .355-.792 0-.437 0 0" fill="#231f20"/>
<path transform="matrix(1,0,0,-1,432.408,424.5127)" d="M0 0C0 .437 .355 .792 .792 .792 1.23 .792 1.584 .437 1.584 0 1.584-.437 1.23-.792 .792-.792 .355-.792 0-.437 0 0" fill="#231f20"/>
<path transform="matrix(1,0,0,-1,432.408,412.0981)" d="M0 0C0 .437 .355 .792 .792 .792 1.23 .792 1.584 .437 1.584 0 1.584-.437 1.23-.792 .792-.792 .355-.792 0-.437 0 0" fill="#231f20"/>
<path transform="matrix(1,0,0,-1,432.408,399.6835)" d="M0 0C0 .437 .355 .792 .792 .792 1.23 .792 1.584 .437 1.584 0 1.584-.437 1.23-.792 .792-.792 .355-.792 0-.437 0 0" fill="#231f20"/>
<path transform="matrix(1,0,0,-1,407.5789,249.7345)" d="M0 0C0 .437 .355 .792 .792 .792 1.23 .792 1.584 .437 1.584 0 1.584-.437 1.23-.792 .792-.792 .355-.792 0-.437 0 0" fill="#231f20"/>
<path transform="matrix(1,0,0,-1,419.9935,511.4146)" d="M0 0C0 .437 .355 .792 .792 .792 1.23 .792 1.584 .437 1.584 0 1.584-.437 1.23-.792 .792-.792 .355-.792 0-.437 0 0" fill="#231f20"/>
<path transform="matrix(1,0,0,-1,419.9935,499)" d="M0 0C0 .437 .355 .792 .792 .792 1.23 .792 1.584 .437 1.584 0 1.584-.437 1.23-.792 .792-.792 .355-.792 0-.437 0 0" fill="#231f20"/>
<path transform="matrix(1,0,0,-1,419.9935,486.5855)" d="M0 0C0 .437 .355 .792 .792 .792 1.23 .792 1.584 .437 1.584 0 1.584-.437 1.23-.792 .792-.792 .355-.792 0-.437 0 0" fill="#231f20"/>
<path transform="matrix(1,0,0,-1,419.9935,474.1709)" d="M0 0C0 .437 .355 .792 .792 .792 1.23 .792 1.584 .437 1.584 0 1.584-.437 1.23-.792 .792-.792 .355-.792 0-.437 0 0" fill="#231f20"/>
<path transform="matrix(1,0,0,-1,419.9935,461.7563)" d="M0 0C0 .437 .355 .792 .792 .792 1.23 .792 1.584 .437 1.584 0 1.584-.437 1.23-.792 .792-.792 .355-.792 0-.437 0 0" fill="#231f20"/>
<path transform="matrix(1,0,0,-1,419.9935,449.3418)" d="M0 0C0 .437 .355 .792 .792 .792 1.23 .792 1.584 .437 1.584 0 1.584-.437 1.23-.792 .792-.792 .355-.792 0-.437 0 0" fill="#231f20"/>
<path transform="matrix(1,0,0,-1,419.9935,436.9272)" d="M0 0C0 .437 .355 .792 .792 .792 1.23 .792 1.584 .437 1.584 0 1.584-.437 1.23-.792 .792-.792 .355-.792 0-.437 0 0" fill="#231f20"/>
<path transform="matrix(1,0,0,-1,419.9935,424.5127)" d="M0 0C0 .437 .355 .792 .792 .792 1.23 .792 1.584 .437 1.584 0 1.584-.437 1.23-.792 .792-.792 .355-.792 0-.437 0 0" fill="#231f20"/>
<path transform="matrix(1,0,0,-1,395.1643,262.149)" d="M0 0C0 .437 .355 .792 .792 .792 1.23 .792 1.584 .437 1.584 0 1.584-.437 1.23-.792 .792-.792 .355-.792 0-.437 0 0" fill="#231f20"/>
<path transform="matrix(1,0,0,-1,395.1643,249.7345)" d="M0 0C0 .437 .355 .792 .792 .792 1.23 .792 1.584 .437 1.584 0 1.584-.437 1.23-.792 .792-.792 .355-.792 0-.437 0 0" fill="#231f20"/>
<path transform="matrix(1,0,0,-1,407.5789,511.4146)" d="M0 0C0 .437 .355 .792 .792 .792 1.23 .792 1.584 .437 1.584 0 1.584-.437 1.23-.792 .792-.792 .355-.792 0-.437 0 0" fill="#231f20"/>
<path transform="matrix(1,0,0,-1,407.5789,499)" d="M0 0C0 .437 .355 .792 .792 .792 1.23 .792 1.584 .437 1.584 0 1.584-.437 1.23-.792 .792-.792 .355-.792 0-.437 0 0" fill="#231f20"/>
<path transform="matrix(1,0,0,-1,407.5789,486.5855)" d="M0 0C0 .437 .355 .792 .792 .792 1.23 .792 1.584 .437 1.584 0 1.584-.437 1.23-.792 .792-.792 .355-.792 0-.437 0 0" fill="#231f20"/>
<path transform="matrix(1,0,0,-1,407.5789,474.1709)" d="M0 0C0 .437 .355 .792 .792 .792 1.23 .792 1.584 .437 1.584 0 1.584-.437 1.23-.792 .792-.792 .355-.792 0-.437 0 0" fill="#231f20"/>
<path transform="matrix(1,0,0,-1,407.5789,461.7563)" d="M0 0C0 .437 .355 .792 .792 .792 1.23 .792 1.584 .437 1.584 0 1.584-.437 1.23-.792 .792-.792 .355-.792 0-.437 0 0" fill="#231f20"/>
<path transform="matrix(1,0,0,-1,407.5789,449.3418)" d="M0 0C0 .437 .355 .792 .792 .792 1.23 .792 1.584 .437 1.584 0 1.584-.437 1.23-.792 .792-.792 .355-.792 0-.437 0 0" fill="#231f20"/>
<path transform="matrix(1,0,0,-1,407.5789,436.9272)" d="M0 0C0 .437 .355 .792 .792 .792 1.23 .792 1.584 .437 1.584 0 1.584-.437 1.23-.792 .792-.792 .355-.792 0-.437 0 0" fill="#231f20"/>
<path transform="matrix(1,0,0,-1,407.5789,424.5127)" d="M0 0C0 .437 .355 .792 .792 .792 1.23 .792 1.584 .437 1.584 0 1.584-.437 1.23-.792 .792-.792 .355-.792 0-.437 0 0" fill="#231f20"/>
<path transform="matrix(1,0,0,-1,382.7498,286.9782)" d="M0 0C0 .437 .355 .792 .792 .792 1.23 .792 1.584 .437 1.584 0 1.584-.437 1.23-.792 .792-.792 .355-.792 0-.437 0 0" fill="#231f20"/>
<path transform="matrix(1,0,0,-1,382.7498,274.56373)" d="M0 0C0 .437 .355 .792 .792 .792 1.23 .792 1.584 .437 1.584 0 1.584-.437 1.23-.792 .792-.792 .355-.792 0-.437 0 0" fill="#231f20"/>
<path transform="matrix(1,0,0,-1,382.7498,262.149)" d="M0 0C0 .437 .355 .792 .792 .792 1.23 .792 1.584 .437 1.584 0 1.584-.437 1.23-.792 .792-.792 .355-.792 0-.437 0 0" fill="#231f20"/>
<path transform="matrix(1,0,0,-1,382.7498,249.7345)" d="M0 0C0 .437 .355 .792 .792 .792 1.23 .792 1.584 .437 1.584 0 1.584-.437 1.23-.792 .792-.792 .355-.792 0-.437 0 0" fill="#231f20"/>
<path transform="matrix(1,0,0,-1,382.7498,237.31989)" d="M0 0C0 .437 .355 .792 .792 .792 1.23 .792 1.584 .437 1.584 0 1.584-.437 1.23-.792 .792-.792 .355-.792 0-.437 0 0" fill="#231f20"/>
<path transform="matrix(1,0,0,-1,395.1643,511.4146)" d="M0 0C0 .437 .355 .792 .792 .792 1.23 .792 1.584 .437 1.584 0 1.584-.437 1.23-.792 .792-.792 .355-.792 0-.437 0 0" fill="#231f20"/>
<path transform="matrix(1,0,0,-1,395.1643,499)" d="M0 0C0 .437 .355 .792 .792 .792 1.23 .792 1.584 .437 1.584 0 1.584-.437 1.23-.792 .792-.792 .355-.792 0-.437 0 0" fill="#231f20"/>
<path transform="matrix(1,0,0,-1,395.1643,486.5855)" d="M0 0C0 .437 .355 .792 .792 .792 1.23 .792 1.584 .437 1.584 0 1.584-.437 1.23-.792 .792-.792 .355-.792 0-.437 0 0" fill="#231f20"/>
<path transform="matrix(1,0,0,-1,395.1643,474.1709)" d="M0 0C0 .437 .355 .792 .792 .792 1.23 .792 1.584 .437 1.584 0 1.584-.437 1.23-.792 .792-.792 .355-.792 0-.437 0 0" fill="#231f20"/>
<path transform="matrix(1,0,0,-1,395.1643,461.7563)" d="M0 0C0 .437 .355 .792 .792 .792 1.23 .792 1.584 .437 1.584 0 1.584-.437 1.23-.792 .792-.792 .355-.792 0-.437 0 0" fill="#231f20"/>
<path transform="matrix(1,0,0,-1,395.1643,449.3418)" d="M0 0C0 .437 .355 .792 .792 .792 1.23 .792 1.584 .437 1.584 0 1.584-.437 1.23-.792 .792-.792 .355-.792 0-.437 0 0" fill="#231f20"/>
<path transform="matrix(1,0,0,-1,395.1643,436.9272)" d="M0 0C0 .437 .355 .792 .792 .792 1.23 .792 1.584 .437 1.584 0 1.584-.437 1.23-.792 .792-.792 .355-.792 0-.437 0 0" fill="#231f20"/>
<path transform="matrix(1,0,0,-1,395.1643,424.5127)" d="M0 0C0 .437 .355 .792 .792 .792 1.23 .792 1.584 .437 1.584 0 1.584-.437 1.23-.792 .792-.792 .355-.792 0-.437 0 0" fill="#231f20"/>
<path transform="matrix(1,0,0,-1,395.1643,412.0981)" d="M0 0C0 .437 .355 .792 .792 .792 1.23 .792 1.584 .437 1.584 0 1.584-.437 1.23-.792 .792-.792 .355-.792 0-.437 0 0" fill="#231f20"/>
<path transform="matrix(1,0,0,-1,395.1643,399.6835)" d="M0 0C0 .437 .355 .792 .792 .792 1.23 .792 1.584 .437 1.584 0 1.584-.437 1.23-.792 .792-.792 .355-.792 0-.437 0 0" fill="#231f20"/>
<path transform="matrix(1,0,0,-1,370.3352,249.7345)" d="M0 0C0 .437 .355 .792 .792 .792 1.23 .792 1.584 .437 1.584 0 1.584-.437 1.23-.792 .792-.792 .355-.792 0-.437 0 0" fill="#231f20"/>
</g>
</g>
</g>
</svg>
