<svg xmlns="http://www.w3.org/2000/svg" xmlns:xlink="http://www.w3.org/1999/xlink" xmlns:inkscape="http://www.inkscape.org/namespaces/inkscape" version="1.1" width="619" height="693" viewBox="-10 -10 619 693">
<defs>
<clipPath id="clip_1">
<path transform="matrix(1,0,0,-1,0,792)" d="M0 792H612V0H0Z"/>
</clipPath>
</defs>
<g>
<g inkscape:groupmode="layer" inkscape:label="Layer 1">
<g clip-path="url(#clip_1)">
<path transform="matrix(1,0,0,-1,354.2191,526.3229)" d="M0 0C0 .479-.389 .868-.868 .868-1.348 .868-1.736 .479-1.736 0-1.736-.479-1.348-.868-.868-.868-.389-.868 0-.479 0 0" fill="#231f20"/>
<path transform="matrix(1,0,0,-1,340.6134,499.1116)" d="M0 0C0 .479-.389 .868-.868 .868-1.348 .868-1.736 .479-1.736 0-1.736-.479-1.348-.868-.868-.868-.389-.868 0-.479 0 0" fill="#231f20"/>
<path transform="matrix(1,0,0,-1,340.6134,485.506)" d="M0 0C0 .479-.389 .868-.868 .868-1.348 .868-1.736 .479-1.736 0-1.736-.479-1.348-.868-.868-.868-.389-.868 0-.479 0 0" fill="#231f20"/>
<path transform="matrix(1,0,0,-1,340.6134,471.9004)" d="M0 0C0 .479-.389 .868-.868 .868-1.348 .868-1.736 .479-1.736 0-1.736-.479-1.348-.868-.868-.868-.389-.868 0-.479 0 0" fill="#231f20"/>
<path transform="matrix(1,0,0,-1,340.6134,458.2947)" d="M0 0C0 .479-.389 .868-.868 .868-1.348 .868-1.736 .479-1.736 0-1.736-.479-1.348-.868-.868-.868-.389-.868 0-.479 0 0" fill="#231f20"/>
<path transform="matrix(1,0,0,-1,340.6134,444.6891)" d="M0 0C0 .479-.389 .868-.868 .868-1.348 .868-1.736 .479-1.736 0-1.736-.479-1.348-.868-.868-.868-.389-.868 0-.479 0 0" fill="#231f20"/>
<path transform="matrix(1,0,0,-1,340.6134,431.0835)" d="M0 0C0 .479-.389 .868-.868 .868-1.348 .868-1.736 .479-1.736 0-1.736-.479-1.348-.868-.868-.868-.389-.868 0-.479 0 0" fill="#231f20"/>
<path transform="matrix(1,0,0,-1,340.6134,417.4778)" d="M0 0C0 .479-.389 .868-.868 .868-1.348 .868-1.736 .479-1.736 0-1.736-.479-1.348-.868-.868-.868-.389-.868 0-.479 0 0" fill="#231f20"/>
<path transform="matrix(1,0,0,-1,340.6134,403.8722)" d="M0 0C0 .479-.389 .868-.868 .868-1.348 .868-1.736 .479-1.736 0-1.736-.479-1.348-.868-.868-.868-.389-.868 0-.479 0 0" fill="#231f20"/>
<path transform="matrix(1,0,0,-1,340.6134,390.2665)" d="M0 0C0 .479-.389 .868-.868 .868-1.348 .868-1.736 .479-1.736 0-1.736-.479-1.348-.868-.868-.868-.389-.868 0-.479 0 0" fill="#231f20"/>
<path transform="matrix(1,0,0,-1,340.6134,376.6609)" d="M0 0C0 .479-.389 .868-.868 .868-1.348 .868-1.736 .479-1.736 0-1.736-.479-1.348-.868-.868-.868-.389-.868 0-.479 0 0" fill="#231f20"/>
<path transform="matrix(1,0,0,-1,340.6134,363.0553)" d="M0 0C0 .479-.389 .868-.868 .868-1.348 .868-1.736 .479-1.736 0-1.736-.479-1.348-.868-.868-.868-.389-.868 0-.479 0 0" fill="#231f20"/>
<path transform="matrix(1,0,0,-1,340.6134,349.4496)" d="M0 0C0 .479-.389 .868-.868 .868-1.348 .868-1.736 .479-1.736 0-1.736-.479-1.348-.868-.868-.868-.389-.868 0-.479 0 0" fill="#231f20"/>
<path transform="matrix(1,0,0,-1,340.6134,335.844)" d="M0 0C0 .479-.389 .868-.868 .868-1.348 .868-1.736 .479-1.736 0-1.736-.479-1.348-.868-.868-.868-.389-.868 0-.479 0 0" fill="#231f20"/>
<path transform="matrix(1,0,0,-1,340.6134,322.2384)" d="M0 0C0 .479-.389 .868-.868 .868-1.348 .868-1.736 .479-1.736 0-1.736-.479-1.348-.868-.868-.868-.389-.868 0-.479 0 0" fill="#231f20"/>
<path transform="matrix(1,0,0,-1,340.6134,308.6327)" d="M0 0C0 .479-.389 .868-.868 .868-1.348 .868-1.736 .479-1.736 0-1.736-.479-1.348-.868-.868-.868-.389-.868 0-.479 0 0" fill="#231f20"/>
<path transform="matrix(1,0,0,-1,340.6134,295.0271)" d="M0 0C0 .479-.389 .868-.868 .868-1.348 .868-1.736 .479-1.736 0-1.736-.479-1.348-.868-.868-.868-.389-.868 0-.479 0 0" fill="#231f20"/>
<path transform="matrix(1,0,0,-1,340.6134,281.4214)" d="M0 0C0 .479-.389 .868-.868 .868-1.348 .868-1.736 .479-1.736 0-1.736-.479-1.348-.868-.868-.868-.389-.868 0-.479 0 0" fill="#231f20"/>
<path transform="matrix(1,0,0,-1,340.6134,267.8158)" d="M0 0C0 .479-.389 .868-.868 .868-1.348 .868-1.736 .479-1.736 0-1.736-.479-1.348-.868-.868-.868-.389-.868 0-.479 0 0" fill="#231f20"/>
<path transform="matrix(1,0,0,-1,340.6134,254.2102)" d="M0 0C0 .479-.389 .868-.868 .868-1.348 .868-1.736 .479-1.736 0-1.736-.479-1.348-.868-.868-.868-.389-.868 0-.479 0 0" fill="#231f20"/>
<path transform="matrix(1,0,0,-1,340.6134,240.60462)" d="M0 0C0 .479-.389 .868-.868 .868-1.348 .868-1.736 .479-1.736 0-1.736-.479-1.348-.868-.868-.868-.389-.868 0-.479 0 0" fill="#231f20"/>
<path transform="matrix(1,0,0,-1,354.2191,512.7173)" d="M0 0C0 .479-.389 .868-.868 .868-1.348 .868-1.736 .479-1.736 0-1.736-.479-1.348-.868-.868-.868-.389-.868 0-.479 0 0" fill="#231f20"/>
<path transform="matrix(1,0,0,-1,354.2191,499.1116)" d="M0 0C0 .479-.389 .868-.868 .868-1.348 .868-1.736 .479-1.736 0-1.736-.479-1.348-.868-.868-.868-.389-.868 0-.479 0 0" fill="#231f20"/>
<path transform="matrix(1,0,0,-1,354.2191,485.506)" d="M0 0C0 .479-.389 .868-.868 .868-1.348 .868-1.736 .479-1.736 0-1.736-.479-1.348-.868-.868-.868-.389-.868 0-.479 0 0" fill="#231f20"/>
<path transform="matrix(1,0,0,-1,354.2191,471.9004)" d="M0 0C0 .479-.389 .868-.868 .868-1.348 .868-1.736 .479-1.736 0-1.736-.479-1.348-.868-.868-.868-.389-.868 0-.479 0 0" fill="#231f20"/>
<path transform="matrix(1,0,0,-1,354.2191,458.2947)" d="M0 0C0 .479-.389 .868-.868 .868-1.348 .868-1.736 .479-1.736 0-1.736-.479-1.348-.868-.868-.868-.389-.868 0-.479 0 0" fill="#231f20"/>
<path transform="matrix(1,0,0,-1,354.2191,444.6891)" d="M0 0C0 .479-.389 .868-.868 .868-1.348 .868-1.736 .479-1.736 0-1.736-.479-1.348-.868-.868-.868-.389-.868 0-.479 0 0" fill="#231f20"/>
<path transform="matrix(1,0,0,-1,354.2191,431.0835)" d="M0 0C0 .479-.389 .868-.868 .868-1.348 .868-1.736 .479-1.736 0-1.736-.479-1.348-.868-.868-.868-.389-.868 0-.479 0 0" fill="#231f20"/>
<path transform="matrix(1,0,0,-1,354.2191,417.4778)" d="M0 0C0 .479-.389 .868-.868 .868-1.348 .868-1.736 .479-1.736 0-1.736-.479-1.348-.868-.868-.868-.389-.868 0-.479 0 0" fill="#231f20"/>
<path transform="matrix(1,0,0,-1,354.2191,403.8722)" d="M0 0C0 .479-.389 .868-.868 .868-1.348 .868-1.736 .479-1.736 0-1.736-.479-1.348-.868-.868-.868-.389-.868 0-.479 0 0" fill="#231f20"/>
<path transform="matrix(1,0,0,-1,354.2191,390.2665)" d="M0 0C0 .479-.389 .868-.868 .868-1.348 .868-1.736 .479-1.736 0-1.736-.479-1.348-.868-.868-.868-.389-.868 0-.479 0 0" fill="#231f20"/>
<path transform="matrix(1,0,0,-1,354.2191,376.6609)" d="M0 0C0 .479-.389 .868-.868 .868-1.348 .868-1.736 .479-1.736 0-1.736-.479-1.348-.868-.868-.868-.389-.868 0-.479 0 0" fill="#231f20"/>
<path transform="matrix(1,0,0,-1,354.2191,363.0553)" d="M0 0C0 .479-.389 .868-.868 .868-1.348 .868-1.736 .479-1.736 0-1.736-.479-1.348-.868-.868-.868-.389-.868 0-.479 0 0" fill="#231f20"/>
<path transform="matrix(1,0,0,-1,354.2191,349.4496)" d="M0 0C0 .479-.389 .868-.868 .868-1.348 .868-1.736 .479-1.736 0-1.736-.479-1.348-.868-.868-.868-.389-.868 0-.479 0 0" fill="#231f20"/>
<path transform="matrix(1,0,0,-1,354.2191,335.844)" d="M0 0C0 .479-.389 .868-.868 .868-1.348 .868-1.736 .479-1.736 0-1.736-.479-1.348-.868-.868-.868-.389-.868 0-.479 0 0" fill="#231f20"/>
<path transform="matrix(1,0,0,-1,354.2191,322.2384)" d="M0 0C0 .479-.389 .868-.868 .868-1.348 .868-1.736 .479-1.736 0-1.736-.479-1.348-.868-.868-.868-.389-.868 0-.479 0 0" fill="#231f20"/>
<path transform="matrix(1,0,0,-1,354.2191,308.6327)" d="M0 0C0 .479-.389 .868-.868 .868-1.348 .868-1.736 .479-1.736 0-1.736-.479-1.348-.868-.868-.868-.389-.868 0-.479 0 0" fill="#231f20"/>
<path transform="matrix(1,0,0,-1,354.2191,295.0271)" d="M0 0C0 .479-.389 .868-.868 .868-1.348 .868-1.736 .479-1.736 0-1.736-.479-1.348-.868-.868-.868-.389-.868 0-.479 0 0" fill="#231f20"/>
<path transform="matrix(1,0,0,-1,367.8247,512.7173)" d="M0 0C0 .479-.389 .868-.868 .868-1.348 .868-1.736 .479-1.736 0-1.736-.479-1.348-.868-.868-.868-.389-.868 0-.479 0 0" fill="#231f20"/>
<path transform="matrix(1,0,0,-1,367.8247,499.1116)" d="M0 0C0 .479-.389 .868-.868 .868-1.348 .868-1.736 .479-1.736 0-1.736-.479-1.348-.868-.868-.868-.389-.868 0-.479 0 0" fill="#231f20"/>
<path transform="matrix(1,0,0,-1,367.8247,485.506)" d="M0 0C0 .479-.389 .868-.868 .868-1.348 .868-1.736 .479-1.736 0-1.736-.479-1.348-.868-.868-.868-.389-.868 0-.479 0 0" fill="#231f20"/>
<path transform="matrix(1,0,0,-1,367.8247,471.9004)" d="M0 0C0 .479-.389 .868-.868 .868-1.348 .868-1.736 .479-1.736 0-1.736-.479-1.348-.868-.868-.868-.389-.868 0-.479 0 0" fill="#231f20"/>
<path transform="matrix(1,0,0,-1,367.8247,458.2947)" d="M0 0C0 .479-.389 .868-.868 .868-1.348 .868-1.736 .479-1.736 0-1.736-.479-1.348-.868-.868-.868-.389-.868 0-.479 0 0" fill="#231f20"/>
<path transform="matrix(1,0,0,-1,367.8247,444.6891)" d="M0 0C0 .479-.389 .868-.868 .868-1.348 .868-1.736 .479-1.736 0-1.736-.479-1.348-.868-.868-.868-.389-.868 0-.479 0 0" fill="#231f20"/>
<path transform="matrix(1,0,0,-1,367.8247,431.0835)" d="M0 0C0 .479-.389 .868-.868 .868-1.348 .868-1.736 .479-1.736 0-1.736-.479-1.348-.868-.868-.868-.389-.868 0-.479 0 0" fill="#231f20"/>
<path transform="matrix(1,0,0,-1,367.8247,417.4778)" d="M0 0C0 .479-.389 .868-.868 .868-1.348 .868-1.736 .479-1.736 0-1.736-.479-1.348-.868-.868-.868-.389-.868 0-.479 0 0" fill="#231f20"/>
<path transform="matrix(1,0,0,-1,367.8247,403.8722)" d="M0 0C0 .479-.389 .868-.868 .868-1.348 .868-1.736 .479-1.736 0-1.736-.479-1.348-.868-.868-.868-.389-.868 0-.479 0 0" fill="#231f20"/>
<path transform="matrix(1,0,0,-1,367.8247,390.2665)" d="M0 0C0 .479-.389 .868-.868 .868-1.348 .868-1.736 .479-1.736 0-1.736-.479-1.348-.868-.868-.868-.389-.868 0-.479 0 0" fill="#231f20"/>
<path transform="matrix(1,0,0,-1,367.8247,376.6609)" d="M0 0C0 .479-.389 .868-.868 .868-1.348 .868-1.736 .479-1.736 0-1.736-.479-1.348-.868-.868-.868-.389-.868 0-.479 0 0" fill="#231f20"/>
<path transform="matrix(1,0,0,-1,367.8247,363.0553)" d="M0 0C0 .479-.389 .868-.868 .868-1.348 .868-1.736 .479-1.736 0-1.736-.479-1.348-.868-.868-.868-.389-.868 0-.479 0 0" fill="#231f20"/>
<path transform="matrix(1,0,0,-1,367.8247,349.4496)" d="M0 0C0 .479-.389 .868-.868 .868-1.348 .868-1.736 .479-1.736 0-1.736-.479-1.348-.868-.868-.868-.389-.868 0-.479 0 0" fill="#231f20"/>
<path transform="matrix(1,0,0,-1,367.8247,335.844)" d="M0 0C0 .479-.389 .868-.868 .868-1.348 .868-1.736 .479-1.736 0-1.736-.479-1.348-.868-.868-.868-.389-.868 0-.479 0 0" fill="#231f20"/>
<path transform="matrix(1,0,0,-1,367.8247,322.2384)" d="M0 0C0 .479-.389 .868-.868 .868-1.348 .868-1.736 .479-1.736 0-1.736-.479-1.348-.868-.868-.868-.389-.868 0-.479 0 0" fill="#231f20"/>
<path transform="matrix(1,0,0,-1,367.8247,308.6327)" d="M0 0C0 .479-.389 .868-.868 .868-1.348 .868-1.736 .479-1.736 0-1.736-.479-1.348-.868-.868-.868-.389-.868 0-.479 0 0" fill="#231f20"/>
<path transform="matrix(1,0,0,-1,367.8247,295.0271)" d="M0 0C0 .479-.389 .868-.868 .868-1.348 .868-1.736 .479-1.736 0-1.736-.479-1.348-.868-.868-.868-.389-.868 0-.479 0 0" fill="#231f20"/>
<path transform="matrix(1,0,0,-1,367.8247,281.4214)" d="M0 0C0 .479-.389 .868-.868 .868-1.348 .868-1.736 .479-1.736 0-1.736-.479-1.348-.868-.868-.868-.389-.868 0-.479 0 0" fill="#231f20"/>
<path transform="matrix(1,0,0,-1,367.8247,267.8158)" d="M0 0C0 .479-.389 .868-.868 .868-1.348 .868-1.736 .479-1.736 0-1.736-.479-1.348-.868-.868-.868-.389-.868 0-.479 0 0" fill="#231f20"/>
<path transform="matrix(1,0,0,-1,381.4304,458.2947)" d="M0 0C0 .479-.389 .868-.868 .868-1.348 .868-1.736 .479-1.736 0-1.736-.479-1.348-.868-.868-.868-.389-.868 0-.479 0 0" fill="#231f20"/>
<path transform="matrix(1,0,0,-1,381.4304,444.6891)" d="M0 0C0 .479-.389 .868-.868 .868-1.348 .868-1.736 .479-1.736 0-1.736-.479-1.348-.868-.868-.868-.389-.868 0-.479 0 0" fill="#231f20"/>
<path transform="matrix(1,0,0,-1,381.4304,431.0835)" d="M0 0C0 .479-.389 .868-.868 .868-1.348 .868-1.736 .479-1.736 0-1.736-.479-1.348-.868-.868-.868-.389-.868 0-.479 0 0" fill="#231f20"/>
<path transform="matrix(1,0,0,-1,381.4304,417.4778)" d="M0 0C0 .479-.389 .868-.868 .868-1.348 .868-1.736 .479-1.736 0-1.736-.479-1.348-.868-.868-.868-.389-.868 0-.479 0 0" fill="#231f20"/>
<path transform="matrix(1,0,0,-1,381.4304,403.8722)" d="M0 0C0 .479-.389 .868-.868 .868-1.348 .868-1.736 .479-1.736 0-1.736-.479-1.348-.868-.868-.868-.389-.868 0-.479 0 0" fill="#231f20"/>
<path transform="matrix(1,0,0,-1,381.4304,390.2665)" d="M0 0C0 .479-.389 .868-.868 .868-1.348 .868-1.736 .479-1.736 0-1.736-.479-1.348-.868-.868-.868-.389-.868 0-.479 0 0" fill="#231f20"/>
<path transform="matrix(1,0,0,-1,381.4304,376.6609)" d="M0 0C0 .479-.389 .868-.868 .868-1.348 .868-1.736 .479-1.736 0-1.736-.479-1.348-.868-.868-.868-.389-.868 0-.479 0 0" fill="#231f20"/>
<path transform="matrix(1,0,0,-1,381.4304,363.0553)" d="M0 0C0 .479-.389 .868-.868 .868-1.348 .868-1.736 .479-1.736 0-1.736-.479-1.348-.868-.868-.868-.389-.868 0-.479 0 0" fill="#231f20"/>
<path transform="matrix(1,0,0,-1,381.4304,349.4496)" d="M0 0C0 .479-.389 .868-.868 .868-1.348 .868-1.736 .479-1.736 0-1.736-.479-1.348-.868-.868-.868-.389-.868 0-.479 0 0" fill="#231f20"/>
<path transform="matrix(1,0,0,-1,381.4304,335.844)" d="M0 0C0 .479-.389 .868-.868 .868-1.348 .868-1.736 .479-1.736 0-1.736-.479-1.348-.868-.868-.868-.389-.868 0-.479 0 0" fill="#231f20"/>
<path transform="matrix(1,0,0,-1,381.4304,322.2384)" d="M0 0C0 .479-.389 .868-.868 .868-1.348 .868-1.736 .479-1.736 0-1.736-.479-1.348-.868-.868-.868-.389-.868 0-.479 0 0" fill="#231f20"/>
<path transform="matrix(1,0,0,-1,381.4304,308.6327)" d="M0 0C0 .479-.389 .868-.868 .868-1.348 .868-1.736 .479-1.736 0-1.736-.479-1.348-.868-.868-.868-.389-.868 0-.479 0 0" fill="#231f20"/>
<path transform="matrix(1,0,0,-1,381.4304,295.0271)" d="M0 0C0 .479-.389 .868-.868 .868-1.348 .868-1.736 .479-1.736 0-1.736-.479-1.348-.868-.868-.868-.389-.868 0-.479 0 0" fill="#231f20"/>
<path transform="matrix(1,0,0,-1,381.4304,281.4214)" d="M0 0C0 .479-.389 .868-.868 .868-1.348 .868-1.736 .479-1.736 0-1.736-.479-1.348-.868-.868-.868-.389-.868 0-.479 0 0" fill="#231f20"/>
<path transform="matrix(1,0,0,-1,381.4304,267.8158)" d="M0 0C0 .479-.389 .868-.868 .868-1.348 .868-1.736 .479-1.736 0-1.736-.479-1.348-.868-.868-.868-.389-.868 0-.479 0 0" fill="#231f20"/>
<path transform="matrix(1,0,0,-1,381.4304,254.2102)" d="M0 0C0 .479-.389 .868-.868 .868-1.348 .868-1.736 .479-1.736 0-1.736-.479-1.348-.868-.868-.868-.389-.868 0-.479 0 0" fill="#231f20"/>
<path transform="matrix(1,0,0,-1,381.4304,240.60462)" d="M0 0C0 .479-.389 .868-.868 .868-1.348 .868-1.736 .479-1.736 0-1.736-.479-1.348-.868-.868-.868-.389-.868 0-.479 0 0" fill="#231f20"/>
<path transform="matrix(1,0,0,-1,395.036,471.9004)" d="M0 0C0 .479-.389 .868-.868 .868-1.348 .868-1.736 .479-1.736 0-1.736-.479-1.348-.868-.868-.868-.389-.868 0-.479 0 0" fill="#231f20"/>
<path transform="matrix(1,0,0,-1,395.036,458.2947)" d="M0 0C0 .479-.389 .868-.868 .868-1.348 .868-1.736 .479-1.736 0-1.736-.479-1.348-.868-.868-.868-.389-.868 0-.479 0 0" fill="#231f20"/>
<path transform="matrix(1,0,0,-1,395.036,444.6891)" d="M0 0C0 .479-.389 .868-.868 .868-1.348 .868-1.736 .479-1.736 0-1.736-.479-1.348-.868-.868-.868-.389-.868 0-.479 0 0" fill="#231f20"/>
<path transform="matrix(1,0,0,-1,395.036,431.0835)" d="M0 0C0 .479-.389 .868-.868 .868-1.348 .868-1.736 .479-1.736 0-1.736-.479-1.348-.868-.868-.868-.389-.868 0-.479 0 0" fill="#231f20"/>
<path transform="matrix(1,0,0,-1,395.036,417.4778)" d="M0 0C0 .479-.389 .868-.868 .868-1.348 .868-1.736 .479-1.736 0-1.736-.479-1.348-.868-.868-.868-.389-.868 0-.479 0 0" fill="#231f20"/>
<path transform="matrix(1,0,0,-1,395.036,403.8722)" d="M0 0C0 .479-.389 .868-.868 .868-1.348 .868-1.736 .479-1.736 0-1.736-.479-1.348-.868-.868-.868-.389-.868 0-.479 0 0" fill="#231f20"/>
<path transform="matrix(1,0,0,-1,395.036,390.2665)" d="M0 0C0 .479-.389 .868-.868 .868-1.348 .868-1.736 .479-1.736 0-1.736-.479-1.348-.868-.868-.868-.389-.868 0-.479 0 0" fill="#231f20"/>
<path transform="matrix(1,0,0,-1,395.036,376.6609)" d="M0 0C0 .479-.389 .868-.868 .868-1.348 .868-1.736 .479-1.736 0-1.736-.479-1.348-.868-.868-.868-.389-.868 0-.479 0 0" fill="#231f20"/>
<path transform="matrix(1,0,0,-1,395.036,363.0553)" d="M0 0C0 .479-.389 .868-.868 .868-1.348 .868-1.736 .479-1.736 0-1.736-.479-1.348-.868-.868-.868-.389-.868 0-.479 0 0" fill="#231f20"/>
<path transform="matrix(1,0,0,-1,395.036,349.4496)" d="M0 0C0 .479-.389 .868-.868 .868-1.348 .868-1.736 .479-1.736 0-1.736-.479-1.348-.868-.868-.868-.389-.868 0-.479 0 0" fill="#231f20"/>
<path transform="matrix(1,0,0,-1,395.036,335.844)" d="M0 0C0 .479-.389 .868-.868 .868-1.348 .868-1.736 .479-1.736 0-1.736-.479-1.348-.868-.868-.868-.389-.868 0-.479 0 0" fill="#231f20"/>
<path transform="matrix(1,0,0,-1,395.036,322.2384)" d="M0 0C0 .479-.389 .868-.868 .868-1.348 .868-1.736 .479-1.736 0-1.736-.479-1.348-.868-.868-.868-.389-.868 0-.479 0 0" fill="#231f20"/>
<path transform="matrix(1,0,0,-1,395.036,308.6327)" d="M0 0C0 .479-.389 .868-.868 .868-1.348 .868-1.736 .479-1.736 0-1.736-.479-1.348-.868-.868-.868-.389-.868 0-.479 0 0" fill="#231f20"/>
<path transform="matrix(1,0,0,-1,395.036,295.0271)" d="M0 0C0 .479-.389 .868-.868 .868-1.348 .868-1.736 .479-1.736 0-1.736-.479-1.348-.868-.868-.868-.389-.868 0-.479 0 0" fill="#231f20"/>
<path transform="matrix(1,0,0,-1,395.036,281.4214)" d="M0 0C0 .479-.389 .868-.868 .868-1.348 .868-1.736 .479-1.736 0-1.736-.479-1.348-.868-.868-.868-.389-.868 0-.479 0 0" fill="#231f20"/>
<path transform="matrix(1,0,0,-1,395.036,267.8158)" d="M0 0C0 .479-.389 .868-.868 .868-1.348 .868-1.736 .479-1.736 0-1.736-.479-1.348-.868-.868-.868-.389-.868 0-.479 0 0" fill="#231f20"/>
<path transform="matrix(1,0,0,-1,395.036,254.2102)" d="M0 0C0 .479-.389 .868-.868 .868-1.348 .868-1.736 .479-1.736 0-1.736-.479-1.348-.868-.868-.868-.389-.868 0-.479 0 0" fill="#231f20"/>
<path transform="matrix(1,0,0,-1,395.036,240.60462)" d="M0 0C0 .479-.389 .868-.868 .868-1.348 .868-1.736 .479-1.736 0-1.736-.479-1.348-.868-.868-.868-.389-.868 0-.479 0 0" fill="#231f20"/>
<path transform="matrix(1,0,0,-1,395.036,226.9989)" d="M0 0C0 .479-.389 .868-.868 .868-1.348 .868-1.736 .479-1.736 0-1.736-.479-1.348-.868-.868-.868-.389-.868 0-.479 0 0" fill="#231f20"/>
<path transform="matrix(1,0,0,-1,408.6416,485.506)" d="M0 0C0 .479-.389 .868-.868 .868-1.348 .868-1.736 .479-1.736 0-1.736-.479-1.348-.868-.868-.868-.389-.868 0-.479 0 0" fill="#231f20"/>
<path transform="matrix(1,0,0,-1,408.6416,471.9004)" d="M0 0C0 .479-.389 .868-.868 .868-1.348 .868-1.736 .479-1.736 0-1.736-.479-1.348-.868-.868-.868-.389-.868 0-.479 0 0" fill="#231f20"/>
<path transform="matrix(1,0,0,-1,408.6416,458.2947)" d="M0 0C0 .479-.389 .868-.868 .868-1.348 .868-1.736 .479-1.736 0-1.736-.479-1.348-.868-.868-.868-.389-.868 0-.479 0 0" fill="#231f20"/>
<path transform="matrix(1,0,0,-1,408.6416,444.6891)" d="M0 0C0 .479-.389 .868-.868 .868-1.348 .868-1.736 .479-1.736 0-1.736-.479-1.348-.868-.868-.868-.389-.868 0-.479 0 0" fill="#231f20"/>
<path transform="matrix(1,0,0,-1,408.6416,431.0835)" d="M0 0C0 .479-.389 .868-.868 .868-1.348 .868-1.736 .479-1.736 0-1.736-.479-1.348-.868-.868-.868-.389-.868 0-.479 0 0" fill="#231f20"/>
<path transform="matrix(1,0,0,-1,408.6416,417.4778)" d="M0 0C0 .479-.389 .868-.868 .868-1.348 .868-1.736 .479-1.736 0-1.736-.479-1.348-.868-.868-.868-.389-.868 0-.479 0 0" fill="#231f20"/>
<path transform="matrix(1,0,0,-1,408.6416,403.8722)" d="M0 0C0 .479-.389 .868-.868 .868-1.348 .868-1.736 .479-1.736 0-1.736-.479-1.348-.868-.868-.868-.389-.868 0-.479 0 0" fill="#231f20"/>
<path transform="matrix(1,0,0,-1,408.6416,390.2665)" d="M0 0C0 .479-.389 .868-.868 .868-1.348 .868-1.736 .479-1.736 0-1.736-.479-1.348-.868-.868-.868-.389-.868 0-.479 0 0" fill="#231f20"/>
<path transform="matrix(1,0,0,-1,408.6416,376.6609)" d="M0 0C0 .479-.389 .868-.868 .868-1.348 .868-1.736 .479-1.736 0-1.736-.479-1.348-.868-.868-.868-.389-.868 0-.479 0 0" fill="#231f20"/>
<path transform="matrix(1,0,0,-1,408.6416,363.0553)" d="M0 0C0 .479-.389 .868-.868 .868-1.348 .868-1.736 .479-1.736 0-1.736-.479-1.348-.868-.868-.868-.389-.868 0-.479 0 0" fill="#231f20"/>
<path transform="matrix(1,0,0,-1,408.6416,349.4496)" d="M0 0C0 .479-.389 .868-.868 .868-1.348 .868-1.736 .479-1.736 0-1.736-.479-1.348-.868-.868-.868-.389-.868 0-.479 0 0" fill="#231f20"/>
<path transform="matrix(1,0,0,-1,408.6416,335.844)" d="M0 0C0 .479-.389 .868-.868 .868-1.348 .868-1.736 .479-1.736 0-1.736-.479-1.348-.868-.868-.868-.389-.868 0-.479 0 0" fill="#231f20"/>
<path transform="matrix(1,0,0,-1,408.6416,322.2384)" d="M0 0C0 .479-.389 .868-.868 .868-1.348 .868-1.736 .479-1.736 0-1.736-.479-1.348-.868-.868-.868-.389-.868 0-.479 0 0" fill="#231f20"/>
<path transform="matrix(1,0,0,-1,408.6416,308.6327)" d="M0 0C0 .479-.389 .868-.868 .868-1.348 .868-1.736 .479-1.736 0-1.736-.479-1.348-.868-.868-.868-.389-.868 0-.479 0 0" fill="#231f20"/>
<path transform="matrix(1,0,0,-1,408.6416,295.0271)" d="M0 0C0 .479-.389 .868-.868 .868-1.348 .868-1.736 .479-1.736 0-1.736-.479-1.348-.868-.868-.868-.389-.868 0-.479 0 0" fill="#231f20"/>
<path transform="matrix(1,0,0,-1,408.6416,281.4214)" d="M0 0C0 .479-.389 .868-.868 .868-1.348 .868-1.736 .479-1.736 0-1.736-.479-1.348-.868-.868-.868-.389-.868 0-.479 0 0" fill="#231f20"/>
<path transform="matrix(1,0,0,-1,408.6416,267.8158)" d="M0 0C0 .479-.389 .868-.868 .868-1.348 .868-1.736 .479-1.736 0-1.736-.479-1.348-.868-.868-.868-.389-.868 0-.479 0 0" fill="#231f20"/>
<path transform="matrix(1,0,0,-1,408.6416,254.2102)" d="M0 0C0 .479-.389 .868-.868 .868-1.348 .868-1.736 .479-1.736 0-1.736-.479-1.348-.868-.868-.868-.389-.868 0-.479 0 0" fill="#231f20"/>
<path transform="matrix(1,0,0,-1,408.6416,240.60462)" d="M0 0C0 .479-.389 .868-.868 .868-1.348 .868-1.736 .479-1.736 0-1.736-.479-1.348-.868-.868-.868-.389-.868 0-.479 0 0" fill="#231f20"/>
<path transform="matrix(1,0,0,-1,408.6416,226.9989)" d="M0 0C0 .479-.389 .868-.868 .868-1.348 .868-1.736 .479-1.736 0-1.736-.479-1.348-.868-.868-.868-.389-.868 0-.479 0 0" fill="#231f20"/>
<path transform="matrix(1,0,0,-1,422.2473,499.1116)" d="M0 0C0 .479-.389 .868-.868 .868-1.348 .868-1.736 .479-1.736 0-1.736-.479-1.348-.868-.868-.868-.389-.868 0-.479 0 0" fill="#231f20"/>
<path transform="matrix(1,0,0,-1,422.2473,485.506)" d="M0 0C0 .479-.389 .868-.868 .868-1.348 .868-1.736 .479-1.736 0-1.736-.479-1.348-.868-.868-.868-.389-.868 0-.479 0 0" fill="#231f20"/>
<path transform="matrix(1,0,0,-1,422.2473,471.9004)" d="M0 0C0 .479-.389 .868-.868 .868-1.348 .868-1.736 .479-1.736 0-1.736-.479-1.348-.868-.868-.868-.389-.868 0-.479 0 0" fill="#231f20"/>
<path transform="matrix(1,0,0,-1,422.2473,458.2947)" d="M0 0C0 .479-.389 .868-.868 .868-1.348 .868-1.736 .479-1.736 0-1.736-.479-1.348-.868-.868-.868-.389-.868 0-.479 0 0" fill="#231f20"/>
<path transform="matrix(1,0,0,-1,422.2473,444.6891)" d="M0 0C0 .479-.389 .868-.868 .868-1.348 .868-1.736 .479-1.736 0-1.736-.479-1.348-.868-.868-.868-.389-.868 0-.479 0 0" fill="#231f20"/>
<path transform="matrix(1,0,0,-1,422.2473,431.0835)" d="M0 0C0 .479-.389 .868-.868 .868-1.348 .868-1.736 .479-1.736 0-1.736-.479-1.348-.868-.868-.868-.389-.868 0-.479 0 0" fill="#231f20"/>
<path transform="matrix(1,0,0,-1,422.2473,417.4778)" d="M0 0C0 .479-.389 .868-.868 .868-1.348 .868-1.736 .479-1.736 0-1.736-.479-1.348-.868-.868-.868-.389-.868 0-.479 0 0" fill="#231f20"/>
<path transform="matrix(1,0,0,-1,422.2473,403.8722)" d="M0 0C0 .479-.389 .868-.868 .868-1.348 .868-1.736 .479-1.736 0-1.736-.479-1.348-.868-.868-.868-.389-.868 0-.479 0 0" fill="#231f20"/>
<path transform="matrix(1,0,0,-1,422.2473,390.2665)" d="M0 0C0 .479-.389 .868-.868 .868-1.348 .868-1.736 .479-1.736 0-1.736-.479-1.348-.868-.868-.868-.389-.868 0-.479 0 0" fill="#231f20"/>
<path transform="matrix(1,0,0,-1,422.2473,376.6609)" d="M0 0C0 .479-.389 .868-.868 .868-1.348 .868-1.736 .479-1.736 0-1.736-.479-1.348-.868-.868-.868-.389-.868 0-.479 0 0" fill="#231f20"/>
<path transform="matrix(1,0,0,-1,422.2473,363.0553)" d="M0 0C0 .479-.389 .868-.868 .868-1.348 .868-1.736 .479-1.736 0-1.736-.479-1.348-.868-.868-.868-.389-.868 0-.479 0 0" fill="#231f20"/>
<path transform="matrix(1,0,0,-1,422.2473,349.4496)" d="M0 0C0 .479-.389 .868-.868 .868-1.348 .868-1.736 .479-1.736 0-1.736-.479-1.348-.868-.868-.868-.389-.868 0-.479 0 0" fill="#231f20"/>
<path transform="matrix(1,0,0,-1,422.2473,322.2384)" d="M0 0C0 .479-.389 .868-.868 .868-1.348 .868-1.736 .479-1.736 0-1.736-.479-1.348-.868-.868-.868-.389-.868 0-.479 0 0" fill="#231f20"/>
<path transform="matrix(1,0,0,-1,422.2473,308.6327)" d="M0 0C0 .479-.389 .868-.868 .868-1.348 .868-1.736 .479-1.736 0-1.736-.479-1.348-.868-.868-.868-.389-.868 0-.479 0 0" fill="#231f20"/>
<path transform="matrix(1,0,0,-1,422.2473,295.0271)" d="M0 0C0 .479-.389 .868-.868 .868-1.348 .868-1.736 .479-1.736 0-1.736-.479-1.348-.868-.868-.868-.389-.868 0-.479 0 0" fill="#231f20"/>
<path transform="matrix(1,0,0,-1,422.2473,281.4214)" d="M0 0C0 .479-.389 .868-.868 .868-1.348 .868-1.736 .479-1.736 0-1.736-.479-1.348-.868-.868-.868-.389-.868 0-.479 0 0" fill="#231f20"/>
<path transform="matrix(1,0,0,-1,422.2473,267.8158)" d="M0 0C0 .479-.389 .868-.868 .868-1.348 .868-1.736 .479-1.736 0-1.736-.479-1.348-.868-.868-.868-.389-.868 0-.479 0 0" fill="#231f20"/>
<path transform="matrix(1,0,0,-1,422.2473,254.2102)" d="M0 0C0 .479-.389 .868-.868 .868-1.348 .868-1.736 .479-1.736 0-1.736-.479-1.348-.868-.868-.868-.389-.868 0-.479 0 0" fill="#231f20"/>
<path transform="matrix(1,0,0,-1,422.2473,240.60462)" d="M0 0C0 .479-.389 .868-.868 .868-1.348 .868-1.736 .479-1.736 0-1.736-.479-1.348-.868-.868-.868-.389-.868 0-.479 0 0" fill="#231f20"/>
<path transform="matrix(1,0,0,-1,422.2473,226.9989)" d="M0 0C0 .479-.389 .868-.868 .868-1.348 .868-1.736 .479-1.736 0-1.736-.479-1.348-.868-.868-.868-.389-.868 0-.479 0 0" fill="#231f20"/>
<path transform="matrix(1,0,0,-1,422.2473,213.39319)" d="M0 0C0 .479-.389 .868-.868 .868-1.348 .868-1.736 .479-1.736 0-1.736-.479-1.348-.868-.868-.868-.389-.868 0-.479 0 0" fill="#231f20"/>
<path transform="matrix(1,0,0,-1,435.8529,471.9004)" d="M0 0C0 .479-.389 .868-.868 .868-1.348 .868-1.736 .479-1.736 0-1.736-.479-1.348-.868-.868-.868-.389-.868 0-.479 0 0" fill="#231f20"/>
<path transform="matrix(1,0,0,-1,435.8529,458.2947)" d="M0 0C0 .479-.389 .868-.868 .868-1.348 .868-1.736 .479-1.736 0-1.736-.479-1.348-.868-.868-.868-.389-.868 0-.479 0 0" fill="#231f20"/>
<path transform="matrix(1,0,0,-1,435.8529,444.6891)" d="M0 0C0 .479-.389 .868-.868 .868-1.348 .868-1.736 .479-1.736 0-1.736-.479-1.348-.868-.868-.868-.389-.868 0-.479 0 0" fill="#231f20"/>
<path transform="matrix(1,0,0,-1,435.8529,431.0835)" d="M0 0C0 .479-.389 .868-.868 .868-1.348 .868-1.736 .479-1.736 0-1.736-.479-1.348-.868-.868-.868-.389-.868 0-.479 0 0" fill="#231f20"/>
<path transform="matrix(1,0,0,-1,435.8529,417.4778)" d="M0 0C0 .479-.389 .868-.868 .868-1.348 .868-1.736 .479-1.736 0-1.736-.479-1.348-.868-.868-.868-.389-.868 0-.479 0 0" fill="#231f20"/>
<path transform="matrix(1,0,0,-1,435.8529,403.8722)" d="M0 0C0 .479-.389 .868-.868 .868-1.348 .868-1.736 .479-1.736 0-1.736-.479-1.348-.868-.868-.868-.389-.868 0-.479 0 0" fill="#231f20"/>
<path transform="matrix(1,0,0,-1,435.8529,390.2665)" d="M0 0C0 .479-.389 .868-.868 .868-1.348 .868-1.736 .479-1.736 0-1.736-.479-1.348-.868-.868-.868-.389-.868 0-.479 0 0" fill="#231f20"/>
<path transform="matrix(1,0,0,-1,435.8529,376.6609)" d="M0 0C0 .479-.389 .868-.868 .868-1.348 .868-1.736 .479-1.736 0-1.736-.479-1.348-.868-.868-.868-.389-.868 0-.479 0 0" fill="#231f20"/>
<path transform="matrix(1,0,0,-1,435.8529,363.0553)" d="M0 0C0 .479-.389 .868-.868 .868-1.348 .868-1.736 .479-1.736 0-1.736-.479-1.348-.868-.868-.868-.389-.868 0-.479 0 0" fill="#231f20"/>
<path transform="matrix(1,0,0,-1,435.8529,322.2384)" d="M0 0C0 .479-.389 .868-.868 .868-1.348 .868-1.736 .479-1.736 0-1.736-.479-1.348-.868-.868-.868-.389-.868 0-.479 0 0" fill="#231f20"/>
<path transform="matrix(1,0,0,-1,435.8529,308.6327)" d="M0 0C0 .479-.389 .868-.868 .868-1.348 .868-1.736 .479-1.736 0-1.736-.479-1.348-.868-.868-.868-.389-.868 0-.479 0 0" fill="#231f20"/>
<path transform="matrix(1,0,0,-1,435.8529,295.0271)" d="M0 0C0 .479-.389 .868-.868 .868-1.348 .868-1.736 .479-1.736 0-1.736-.479-1.348-.868-.868-.868-.389-.868 0-.479 0 0" fill="#231f20"/>
<path transform="matrix(1,0,0,-1,435.8529,281.4214)" d="M0 0C0 .479-.389 .868-.868 .868-1.348 .868-1.736 .479-1.736 0-1.736-.479-1.348-.868-.868-.868-.389-.868 0-.479 0 0" fill="#231f20"/>
<path transform="matrix(1,0,0,-1,435.8529,267.8158)" d="M0 0C0 .479-.389 .868-.868 .868-1.348 .868-1.736 .479-1.736 0-1.736-.479-1.348-.868-.868-.868-.389-.868 0-.479 0 0" fill="#231f20"/>
<path transform="matrix(1,0,0,-1,435.8529,254.2102)" d="M0 0C0 .479-.389 .868-.868 .868-1.348 .868-1.736 .479-1.736 0-1.736-.479-1.348-.868-.868-.868-.389-.868 0-.479 0 0" fill="#231f20"/>
<path transform="matrix(1,0,0,-1,435.8529,240.60462)" d="M0 0C0 .479-.389 .868-.868 .868-1.348 .868-1.736 .479-1.736 0-1.736-.479-1.348-.868-.868-.868-.389-.868 0-.479 0 0" fill="#231f20"/>
<path transform="matrix(1,0,0,-1,435.8529,226.9989)" d="M0 0C0 .479-.389 .868-.868 .868-1.348 .868-1.736 .479-1.736 0-1.736-.479-1.348-.868-.868-.868-.389-.868 0-.479 0 0" fill="#231f20"/>
<path transform="matrix(1,0,0,-1,435.8529,213.39319)" d="M0 0C0 .479-.389 .868-.868 .868-1.348 .868-1.736 .479-1.736 0-1.736-.479-1.348-.868-.868-.868-.389-.868 0-.479 0 0" fill="#231f20"/>
<path transform="matrix(1,0,0,-1,449.4585,444.6891)" d="M0 0C0 .479-.389 .868-.868 .868-1.348 .868-1.736 .479-1.736 0-1.736-.479-1.348-.868-.868-.868-.389-.868 0-.479 0 0" fill="#231f20"/>
<path transform="matrix(1,0,0,-1,449.4585,431.0835)" d="M0 0C0 .479-.389 .868-.868 .868-1.348 .868-1.736 .479-1.736 0-1.736-.479-1.348-.868-.868-.868-.389-.868 0-.479 0 0" fill="#231f20"/>
<path transform="matrix(1,0,0,-1,449.4585,417.4778)" d="M0 0C0 .479-.389 .868-.868 .868-1.348 .868-1.736 .479-1.736 0-1.736-.479-1.348-.868-.868-.868-.389-.868 0-.479 0 0" fill="#231f20"/>
<path transform="matrix(1,0,0,-1,449.4585,403.8722)" d="M0 0C0 .479-.389 .868-.868 .868-1.348 .868-1.736 .479-1.736 0-1.736-.479-1.348-.868-.868-.868-.389-.868 0-.479 0 0" fill="#231f20"/>
<path transform="matrix(1,0,0,-1,449.4585,390.2665)" d="M0 0C0 .479-.389 .868-.868 .868-1.348 .868-1.736 .479-1.736 0-1.736-.479-1.348-.868-.868-.868-.389-.868 0-.479 0 0" fill="#231f20"/>
<path transform="matrix(1,0,0,-1,449.4585,376.6609)" d="M0 0C0 .479-.389 .868-.868 .868-1.348 .868-1.736 .479-1.736 0-1.736-.479-1.348-.868-.868-.868-.389-.868 0-.479 0 0" fill="#231f20"/>
<path transform="matrix(1,0,0,-1,449.4585,363.0553)" d="M0 0C0 .479-.389 .868-.868 .868-1.348 .868-1.736 .479-1.736 0-1.736-.479-1.348-.868-.868-.868-.389-.868 0-.479 0 0" fill="#231f20"/>
<path transform="matrix(1,0,0,-1,449.4585,322.2384)" d="M0 0C0 .479-.389 .868-.868 .868-1.348 .868-1.736 .479-1.736 0-1.736-.479-1.348-.868-.868-.868-.389-.868 0-.479 0 0" fill="#231f20"/>
<path transform="matrix(1,0,0,-1,449.4585,308.6327)" d="M0 0C0 .479-.389 .868-.868 .868-1.348 .868-1.736 .479-1.736 0-1.736-.479-1.348-.868-.868-.868-.389-.868 0-.479 0 0" fill="#231f20"/>
<path transform="matrix(1,0,0,-1,449.4585,295.0271)" d="M0 0C0 .479-.389 .868-.868 .868-1.348 .868-1.736 .479-1.736 0-1.736-.479-1.348-.868-.868-.868-.389-.868 0-.479 0 0" fill="#231f20"/>
<path transform="matrix(1,0,0,-1,449.4585,281.4214)" d="M0 0C0 .479-.389 .868-.868 .868-1.348 .868-1.736 .479-1.736 0-1.736-.479-1.348-.868-.868-.868-.389-.868 0-.479 0 0" fill="#231f20"/>
<path transform="matrix(1,0,0,-1,449.4585,267.8158)" d="M0 0C0 .479-.389 .868-.868 .868-1.348 .868-1.736 .479-1.736 0-1.736-.479-1.348-.868-.868-.868-.389-.868 0-.479 0 0" fill="#231f20"/>
<path transform="matrix(1,0,0,-1,449.4585,254.2102)" d="M0 0C0 .479-.389 .868-.868 .868-1.348 .868-1.736 .479-1.736 0-1.736-.479-1.348-.868-.868-.868-.389-.868 0-.479 0 0" fill="#231f20"/>
<path transform="matrix(1,0,0,-1,449.4585,240.60462)" d="M0 0C0 .479-.389 .868-.868 .868-1.348 .868-1.736 .479-1.736 0-1.736-.479-1.348-.868-.868-.868-.389-.868 0-.479 0 0" fill="#231f20"/>
<path transform="matrix(1,0,0,-1,449.4585,226.9989)" d="M0 0C0 .479-.389 .868-.868 .868-1.348 .868-1.736 .479-1.736 0-1.736-.479-1.348-.868-.868-.868-.389-.868 0-.479 0 0" fill="#231f20"/>
<path transform="matrix(1,0,0,-1,449.4585,213.39319)" d="M0 0C0 .479-.389 .868-.868 .868-1.348 .868-1.736 .479-1.736 0-1.736-.479-1.348-.868-.868-.868-.389-.868 0-.479 0 0" fill="#231f20"/>
<path transform="matrix(1,0,0,-1,463.0642,444.6891)" d="M0 0C0 .479-.389 .868-.868 .868-1.348 .868-1.736 .479-1.736 0-1.736-.479-1.348-.868-.868-.868-.389-.868 0-.479 0 0" fill="#231f20"/>
<path transform="matrix(1,0,0,-1,463.0642,417.4778)" d="M0 0C0 .479-.389 .868-.868 .868-1.348 .868-1.736 .479-1.736 0-1.736-.479-1.348-.868-.868-.868-.389-.868 0-.479 0 0" fill="#231f20"/>
<path transform="matrix(1,0,0,-1,463.0642,403.8722)" d="M0 0C0 .479-.389 .868-.868 .868-1.348 .868-1.736 .479-1.736 0-1.736-.479-1.348-.868-.868-.868-.389-.868 0-.479 0 0" fill="#231f20"/>
<path transform="matrix(1,0,0,-1,463.0642,390.2665)" d="M0 0C0 .479-.389 .868-.868 .868-1.348 .868-1.736 .479-1.736 0-1.736-.479-1.348-.868-.868-.868-.389-.868 0-.479 0 0" fill="#231f20"/>
<path transform="matrix(1,0,0,-1,463.0642,376.6609)" d="M0 0C0 .479-.389 .868-.868 .868-1.348 .868-1.736 .479-1.736 0-1.736-.479-1.348-.868-.868-.868-.389-.868 0-.479 0 0" fill="#231f20"/>
<path transform="matrix(1,0,0,-1,463.0642,363.0553)" d="M0 0C0 .479-.389 .868-.868 .868-1.348 .868-1.736 .479-1.736 0-1.736-.479-1.348-.868-.868-.868-.389-.868 0-.479 0 0" fill="#231f20"/>
<path transform="matrix(1,0,0,-1,463.0642,308.6327)" d="M0 0C0 .479-.389 .868-.868 .868-1.348 .868-1.736 .479-1.736 0-1.736-.479-1.348-.868-.868-.868-.389-.868 0-.479 0 0" fill="#231f20"/>
<path transform="matrix(1,0,0,-1,463.0642,295.0271)" d="M0 0C0 .479-.389 .868-.868 .868-1.348 .868-1.736 .479-1.736 0-1.736-.479-1.348-.868-.868-.868-.389-.868 0-.479 0 0" fill="#231f20"/>
<path transform="matrix(1,0,0,-1,463.0642,281.4214)" d="M0 0C0 .479-.389 .868-.868 .868-1.348 .868-1.736 .479-1.736 0-1.736-.479-1.348-.868-.868-.868-.389-.868 0-.479 0 0" fill="#231f20"/>
<path transform="matrix(1,0,0,-1,463.0642,267.8158)" d="M0 0C0 .479-.389 .868-.868 .868-1.348 .868-1.736 .479-1.736 0-1.736-.479-1.348-.868-.868-.868-.389-.868 0-.479 0 0" fill="#231f20"/>
<path transform="matrix(1,0,0,-1,463.0642,254.2102)" d="M0 0C0 .479-.389 .868-.868 .868-1.348 .868-1.736 .479-1.736 0-1.736-.479-1.348-.868-.868-.868-.389-.868 0-.479 0 0" fill="#231f20"/>
<path transform="matrix(1,0,0,-1,463.0642,240.60462)" d="M0 0C0 .479-.389 .868-.868 .868-1.348 .868-1.736 .479-1.736 0-1.736-.479-1.348-.868-.868-.868-.389-.868 0-.479 0 0" fill="#231f20"/>
<path transform="matrix(1,0,0,-1,463.0642,226.9989)" d="M0 0C0 .479-.389 .868-.868 .868-1.348 .868-1.736 .479-1.736 0-1.736-.479-1.348-.868-.868-.868-.389-.868 0-.479 0 0" fill="#231f20"/>
<path transform="matrix(1,0,0,-1,463.0642,213.39319)" d="M0 0C0 .479-.389 .868-.868 .868-1.348 .868-1.736 .479-1.736 0-1.736-.479-1.348-.868-.868-.868-.389-.868 0-.479 0 0" fill="#231f20"/>
<path transform="matrix(1,0,0,-1,476.6698,417.4778)" d="M0 0C0 .479-.389 .868-.868 .868-1.348 .868-1.736 .479-1.736 0-1.736-.479-1.348-.868-.868-.868-.389-.868 0-.479 0 0" fill="#231f20"/>
<path transform="matrix(1,0,0,-1,476.6698,403.8722)" d="M0 0C0 .479-.389 .868-.868 .868-1.348 .868-1.736 .479-1.736 0-1.736-.479-1.348-.868-.868-.868-.389-.868 0-.479 0 0" fill="#231f20"/>
<path transform="matrix(1,0,0,-1,476.6698,376.6609)" d="M0 0C0 .479-.389 .868-.868 .868-1.348 .868-1.736 .479-1.736 0-1.736-.479-1.348-.868-.868-.868-.389-.868 0-.479 0 0" fill="#231f20"/>
<path transform="matrix(1,0,0,-1,476.6698,363.0553)" d="M0 0C0 .479-.389 .868-.868 .868-1.348 .868-1.736 .479-1.736 0-1.736-.479-1.348-.868-.868-.868-.389-.868 0-.479 0 0" fill="#231f20"/>
<path transform="matrix(1,0,0,-1,476.6698,308.6327)" d="M0 0C0 .479-.389 .868-.868 .868-1.348 .868-1.736 .479-1.736 0-1.736-.479-1.348-.868-.868-.868-.389-.868 0-.479 0 0" fill="#231f20"/>
<path transform="matrix(1,0,0,-1,476.6698,295.0271)" d="M0 0C0 .479-.389 .868-.868 .868-1.348 .868-1.736 .479-1.736 0-1.736-.479-1.348-.868-.868-.868-.389-.868 0-.479 0 0" fill="#231f20"/>
<path transform="matrix(1,0,0,-1,476.6698,281.4214)" d="M0 0C0 .479-.389 .868-.868 .868-1.348 .868-1.736 .479-1.736 0-1.736-.479-1.348-.868-.868-.868-.389-.868 0-.479 0 0" fill="#231f20"/>
<path transform="matrix(1,0,0,-1,476.6698,267.8158)" d="M0 0C0 .479-.389 .868-.868 .868-1.348 .868-1.736 .479-1.736 0-1.736-.479-1.348-.868-.868-.868-.389-.868 0-.479 0 0" fill="#231f20"/>
<path transform="matrix(1,0,0,-1,476.6698,254.2102)" d="M0 0C0 .479-.389 .868-.868 .868-1.348 .868-1.736 .479-1.736 0-1.736-.479-1.348-.868-.868-.868-.389-.868 0-.479 0 0" fill="#231f20"/>
<path transform="matrix(1,0,0,-1,476.6698,240.60462)" d="M0 0C0 .479-.389 .868-.868 .868-1.348 .868-1.736 .479-1.736 0-1.736-.479-1.348-.868-.868-.868-.389-.868 0-.479 0 0" fill="#231f20"/>
<path transform="matrix(1,0,0,-1,476.6698,226.9989)" d="M0 0C0 .479-.389 .868-.868 .868-1.348 .868-1.736 .479-1.736 0-1.736-.479-1.348-.868-.868-.868-.389-.868 0-.479 0 0" fill="#231f20"/>
<path transform="matrix(1,0,0,-1,476.6698,213.39319)" d="M0 0C0 .479-.389 .868-.868 .868-1.348 .868-1.736 .479-1.736 0-1.736-.479-1.348-.868-.868-.868-.389-.868 0-.479 0 0" fill="#231f20"/>
<path transform="matrix(1,0,0,-1,490.2755,403.8722)" d="M0 0C0 .479-.389 .868-.868 .868-1.348 .868-1.736 .479-1.736 0-1.736-.479-1.348-.868-.868-.868-.389-.868 0-.479 0 0" fill="#231f20"/>
<path transform="matrix(1,0,0,-1,490.2755,308.6327)" d="M0 0C0 .479-.389 .868-.868 .868-1.348 .868-1.736 .479-1.736 0-1.736-.479-1.348-.868-.868-.868-.389-.868 0-.479 0 0" fill="#231f20"/>
<path transform="matrix(1,0,0,-1,490.2755,295.0271)" d="M0 0C0 .479-.389 .868-.868 .868-1.348 .868-1.736 .479-1.736 0-1.736-.479-1.348-.868-.868-.868-.389-.868 0-.479 0 0" fill="#231f20"/>
<path transform="matrix(1,0,0,-1,490.2755,281.4214)" d="M0 0C0 .479-.389 .868-.868 .868-1.348 .868-1.736 .479-1.736 0-1.736-.479-1.348-.868-.868-.868-.389-.868 0-.479 0 0" fill="#231f20"/>
<path transform="matrix(1,0,0,-1,490.2755,267.8158)" d="M0 0C0 .479-.389 .868-.868 .868-1.348 .868-1.736 .479-1.736 0-1.736-.479-1.348-.868-.868-.868-.389-.868 0-.479 0 0" fill="#231f20"/>
<path transform="matrix(1,0,0,-1,490.2755,254.2102)" d="M0 0C0 .479-.389 .868-.868 .868-1.348 .868-1.736 .479-1.736 0-1.736-.479-1.348-.868-.868-.868-.389-.868 0-.479 0 0" fill="#231f20"/>
<path transform="matrix(1,0,0,-1,490.2755,240.60462)" d="M0 0C0 .479-.389 .868-.868 .868-1.348 .868-1.736 .479-1.736 0-1.736-.479-1.348-.868-.868-.868-.389-.868 0-.479 0 0" fill="#231f20"/>
<path transform="matrix(1,0,0,-1,490.2755,226.9989)" d="M0 0C0 .479-.389 .868-.868 .868-1.348 .868-1.736 .479-1.736 0-1.736-.479-1.348-.868-.868-.868-.389-.868 0-.479 0 0" fill="#231f20"/>
<path transform="matrix(1,0,0,-1,490.2755,213.39319)" d="M0 0C0 .479-.389 .868-.868 .868-1.348 .868-1.736 .479-1.736 0-1.736-.479-1.348-.868-.868-.868-.389-.868 0-.479 0 0" fill="#231f20"/>
<path transform="matrix(1,0,0,-1,503.8811,403.8722)" d="M0 0C0 .479-.389 .868-.868 .868-1.348 .868-1.736 .479-1.736 0-1.736-.479-1.348-.868-.868-.868-.389-.868 0-.479 0 0" fill="#231f20"/>
<path transform="matrix(1,0,0,-1,503.8811,308.6327)" d="M0 0C0 .479-.389 .868-.868 .868-1.348 .868-1.736 .479-1.736 0-1.736-.479-1.348-.868-.868-.868-.389-.868 0-.479 0 0" fill="#231f20"/>
<path transform="matrix(1,0,0,-1,503.8811,295.0271)" d="M0 0C0 .479-.389 .868-.868 .868-1.348 .868-1.736 .479-1.736 0-1.736-.479-1.348-.868-.868-.868-.389-.868 0-.479 0 0" fill="#231f20"/>
<path transform="matrix(1,0,0,-1,503.8811,281.4214)" d="M0 0C0 .479-.389 .868-.868 .868-1.348 .868-1.736 .479-1.736 0-1.736-.479-1.348-.868-.868-.868-.389-.868 0-.479 0 0" fill="#231f20"/>
<path transform="matrix(1,0,0,-1,503.8811,267.8158)" d="M0 0C0 .479-.389 .868-.868 .868-1.348 .868-1.736 .479-1.736 0-1.736-.479-1.348-.868-.868-.868-.389-.868 0-.479 0 0" fill="#231f20"/>
<path transform="matrix(1,0,0,-1,503.8811,254.2102)" d="M0 0C0 .479-.389 .868-.868 .868-1.348 .868-1.736 .479-1.736 0-1.736-.479-1.348-.868-.868-.868-.389-.868 0-.479 0 0" fill="#231f20"/>
<path transform="matrix(1,0,0,-1,503.8811,240.60462)" d="M0 0C0 .479-.389 .868-.868 .868-1.348 .868-1.736 .479-1.736 0-1.736-.479-1.348-.868-.868-.868-.389-.868 0-.479 0 0" fill="#231f20"/>
<path transform="matrix(1,0,0,-1,503.8811,226.9989)" d="M0 0C0 .479-.389 .868-.868 .868-1.348 .868-1.736 .479-1.736 0-1.736-.479-1.348-.868-.868-.868-.389-.868 0-.479 0 0" fill="#231f20"/>
<path transform="matrix(1,0,0,-1,503.8811,213.39319)" d="M0 0C0 .479-.389 .868-.868 .868-1.348 .868-1.736 .479-1.736 0-1.736-.479-1.348-.868-.868-.868-.389-.868 0-.479 0 0" fill="#231f20"/>
<path transform="matrix(1,0,0,-1,517.4867,267.8158)" d="M0 0C0 .479-.389 .868-.868 .868-1.348 .868-1.736 .479-1.736 0-1.736-.479-1.348-.868-.868-.868-.389-.868 0-.479 0 0" fill="#231f20"/>
<path transform="matrix(1,0,0,-1,517.4867,254.2102)" d="M0 0C0 .479-.389 .868-.868 .868-1.348 .868-1.736 .479-1.736 0-1.736-.479-1.348-.868-.868-.868-.389-.868 0-.479 0 0" fill="#231f20"/>
<path transform="matrix(1,0,0,-1,517.4867,240.60462)" d="M0 0C0 .479-.389 .868-.868 .868-1.348 .868-1.736 .479-1.736 0-1.736-.479-1.348-.868-.868-.868-.389-.868 0-.479 0 0" fill="#231f20"/>
<path transform="matrix(1,0,0,-1,517.4867,226.9989)" d="M0 0C0 .479-.389 .868-.868 .868-1.348 .868-1.736 .479-1.736 0-1.736-.479-1.348-.868-.868-.868-.389-.868 0-.479 0 0" fill="#231f20"/>
<path transform="matrix(1,0,0,-1,517.4867,213.39319)" d="M0 0C0 .479-.389 .868-.868 .868-1.348 .868-1.736 .479-1.736 0-1.736-.479-1.348-.868-.868-.868-.389-.868 0-.479 0 0" fill="#231f20"/>
<path transform="matrix(1,0,0,-1,531.0923,267.8158)" d="M0 0C0 .479-.389 .868-.868 .868-1.348 .868-1.736 .479-1.736 0-1.736-.479-1.348-.868-.868-.868-.389-.868 0-.479 0 0" fill="#231f20"/>
<path transform="matrix(1,0,0,-1,531.0923,254.2102)" d="M0 0C0 .479-.389 .868-.868 .868-1.348 .868-1.736 .479-1.736 0-1.736-.479-1.348-.868-.868-.868-.389-.868 0-.479 0 0" fill="#231f20"/>
<path transform="matrix(1,0,0,-1,531.0923,240.60462)" d="M0 0C0 .479-.389 .868-.868 .868-1.348 .868-1.736 .479-1.736 0-1.736-.479-1.348-.868-.868-.868-.389-.868 0-.479 0 0" fill="#231f20"/>
<path transform="matrix(1,0,0,-1,531.0923,226.9989)" d="M0 0C0 .479-.389 .868-.868 .868-1.348 .868-1.736 .479-1.736 0-1.736-.479-1.348-.868-.868-.868-.389-.868 0-.479 0 0" fill="#231f20"/>
<path transform="matrix(1,0,0,-1,531.0923,213.39319)" d="M0 0C0 .479-.389 .868-.868 .868-1.348 .868-1.736 .479-1.736 0-1.736-.479-1.348-.868-.868-.868-.389-.868 0-.479 0 0" fill="#231f20"/>
<path transform="matrix(1,0,0,-1,544.698,295.0271)" d="M0 0C0 .479-.389 .868-.868 .868-1.348 .868-1.736 .479-1.736 0-1.736-.479-1.348-.868-.868-.868-.389-.868 0-.479 0 0" fill="#231f20"/>
<path transform="matrix(1,0,0,-1,544.698,281.4214)" d="M0 0C0 .479-.389 .868-.868 .868-1.348 .868-1.736 .479-1.736 0-1.736-.479-1.348-.868-.868-.868-.389-.868 0-.479 0 0" fill="#231f20"/>
<path transform="matrix(1,0,0,-1,544.698,267.8158)" d="M0 0C0 .479-.389 .868-.868 .868-1.348 .868-1.736 .479-1.736 0-1.736-.479-1.348-.868-.868-.868-.389-.868 0-.479 0 0" fill="#231f20"/>
<path transform="matrix(1,0,0,-1,544.698,254.2102)" d="M0 0C0 .479-.389 .868-.868 .868-1.348 .868-1.736 .479-1.736 0-1.736-.479-1.348-.868-.868-.868-.389-.868 0-.479 0 0" fill="#231f20"/>
<path transform="matrix(1,0,0,-1,544.698,240.60462)" d="M0 0C0 .479-.389 .868-.868 .868-1.348 .868-1.736 .479-1.736 0-1.736-.479-1.348-.868-.868-.868-.389-.868 0-.479 0 0" fill="#231f20"/>
<path transform="matrix(1,0,0,-1,544.698,226.9989)" d="M0 0C0 .479-.389 .868-.868 .868-1.348 .868-1.736 .479-1.736 0-1.736-.479-1.348-.868-.868-.868-.389-.868 0-.479 0 0" fill="#231f20"/>
<path transform="matrix(1,0,0,-1,544.698,213.39319)" d="M0 0C0 .479-.389 .868-.868 .868-1.348 .868-1.736 .479-1.736 0-1.736-.479-1.348-.868-.868-.868-.389-.868 0-.479 0 0" fill="#231f20"/>
<path transform="matrix(1,0,0,-1,558.3036,267.8158)" d="M0 0C0 .479-.389 .868-.868 .868-1.348 .868-1.736 .479-1.736 0-1.736-.479-1.348-.868-.868-.868-.389-.868 0-.479 0 0" fill="#231f20"/>
<path transform="matrix(1,0,0,-1,558.3036,254.2102)" d="M0 0C0 .479-.389 .868-.868 .868-1.348 .868-1.736 .479-1.736 0-1.736-.479-1.348-.868-.868-.868-.389-.868 0-.479 0 0" fill="#231f20"/>
<path transform="matrix(1,0,0,-1,558.3036,240.60462)" d="M0 0C0 .479-.389 .868-.868 .868-1.348 .868-1.736 .479-1.736 0-1.736-.479-1.348-.868-.868-.868-.389-.868 0-.479 0 0" fill="#231f20"/>
<path transform="matrix(1,0,0,-1,558.3036,226.9989)" d="M0 0C0 .479-.389 .868-.868 .868-1.348 .868-1.736 .479-1.736 0-1.736-.479-1.348-.868-.868-.868-.389-.868 0-.479 0 0" fill="#231f20"/>
<path transform="matrix(1,0,0,-1,558.3036,213.39319)" d="M0 0C0 .479-.389 .868-.868 .868-1.348 .868-1.736 .479-1.736 0-1.736-.479-1.348-.868-.868-.868-.389-.868 0-.479 0 0" fill="#231f20"/>
<path transform="matrix(1,0,0,-1,571.9092,254.2102)" d="M0 0C0 .479-.389 .868-.868 .868-1.348 .868-1.736 .479-1.736 0-1.736-.479-1.348-.868-.868-.868-.389-.868 0-.479 0 0" fill="#231f20"/>
<path transform="matrix(1,0,0,-1,571.9092,226.9989)" d="M0 0C0 .479-.389 .868-.868 .868-1.348 .868-1.736 .479-1.736 0-1.736-.479-1.348-.868-.868-.868-.389-.868 0-.479 0 0" fill="#231f20"/>
<path transform="matrix(1,0,0,-1,571.9092,213.39319)" d="M0 0C0 .479-.389 .868-.868 .868-1.348 .868-1.736 .479-1.736 0-1.736-.479-1.348-.868-.868-.868-.389-.868 0-.479 0 0" fill="#231f20"/>
<path transform="matrix(1,0,0,-1,585.5149,254.2102)" d="M0 0C0 .479-.389 .868-.868 .868-1.348 .868-1.736 .479-1.736 0-1.736-.479-1.348-.868-.868-.868-.389-.868 0-.479 0 0" fill="#231f20"/>
<path transform="matrix(1,0,0,-1,585.5149,213.39319)" d="M0 0C0 .479-.389 .868-.868 .868-1.348 .868-1.736 .479-1.736 0-1.736-.479-1.348-.868-.868-.868-.389-.868 0-.479 0 0" fill="#231f20"/>
<path transform="matrix(1,0,0,-1,395.036,131.75952)" d="M0 0C0 .479-.389 .868-.868 .868-1.348 .868-1.736 .479-1.736 0-1.736-.479-1.348-.868-.868-.868-.389-.868 0-.479 0 0" fill="#231f20"/>
<path transform="matrix(1,0,0,-1,408.6416,186.182)" d="M0 0C0 .479-.389 .868-.868 .868-1.348 .868-1.736 .479-1.736 0-1.736-.479-1.348-.868-.868-.868-.389-.868 0-.479 0 0" fill="#231f20"/>
<path transform="matrix(1,0,0,-1,408.6416,172.57642)" d="M0 0C0 .479-.389 .868-.868 .868-1.348 .868-1.736 .479-1.736 0-1.736-.479-1.348-.868-.868-.868-.389-.868 0-.479 0 0" fill="#231f20"/>
<path transform="matrix(1,0,0,-1,422.2473,186.182)" d="M0 0C0 .479-.389 .868-.868 .868-1.348 .868-1.736 .479-1.736 0-1.736-.479-1.348-.868-.868-.868-.389-.868 0-.479 0 0" fill="#231f20"/>
<path transform="matrix(1,0,0,-1,422.2473,172.57642)" d="M0 0C0 .479-.389 .868-.868 .868-1.348 .868-1.736 .479-1.736 0-1.736-.479-1.348-.868-.868-.868-.389-.868 0-.479 0 0" fill="#231f20"/>
<path transform="matrix(1,0,0,-1,422.2473,158.9707)" d="M0 0C0 .479-.389 .868-.868 .868-1.348 .868-1.736 .479-1.736 0-1.736-.479-1.348-.868-.868-.868-.389-.868 0-.479 0 0" fill="#231f20"/>
<path transform="matrix(1,0,0,-1,422.2473,131.75952)" d="M0 0C0 .479-.389 .868-.868 .868-1.348 .868-1.736 .479-1.736 0-1.736-.479-1.348-.868-.868-.868-.389-.868 0-.479 0 0" fill="#231f20"/>
<path transform="matrix(1,0,0,-1,422.2473,118.15381)" d="M0 0C0 .479-.389 .868-.868 .868-1.348 .868-1.736 .479-1.736 0-1.736-.479-1.348-.868-.868-.868-.389-.868 0-.479 0 0" fill="#231f20"/>
<path transform="matrix(1,0,0,-1,435.8529,199.78772)" d="M0 0C0 .479-.389 .868-.868 .868-1.348 .868-1.736 .479-1.736 0-1.736-.479-1.348-.868-.868-.868-.389-.868 0-.479 0 0" fill="#231f20"/>
<path transform="matrix(1,0,0,-1,435.8529,186.182)" d="M0 0C0 .479-.389 .868-.868 .868-1.348 .868-1.736 .479-1.736 0-1.736-.479-1.348-.868-.868-.868-.389-.868 0-.479 0 0" fill="#231f20"/>
<path transform="matrix(1,0,0,-1,435.8529,172.57642)" d="M0 0C0 .479-.389 .868-.868 .868-1.348 .868-1.736 .479-1.736 0-1.736-.479-1.348-.868-.868-.868-.389-.868 0-.479 0 0" fill="#231f20"/>
<path transform="matrix(1,0,0,-1,449.4585,199.78772)" d="M0 0C0 .479-.389 .868-.868 .868-1.348 .868-1.736 .479-1.736 0-1.736-.479-1.348-.868-.868-.868-.389-.868 0-.479 0 0" fill="#231f20"/>
<path transform="matrix(1,0,0,-1,463.0642,199.78772)" d="M0 0C0 .479-.389 .868-.868 .868-1.348 .868-1.736 .479-1.736 0-1.736-.479-1.348-.868-.868-.868-.389-.868 0-.479 0 0" fill="#231f20"/>
<path transform="matrix(1,0,0,-1,463.0642,186.182)" d="M0 0C0 .479-.389 .868-.868 .868-1.348 .868-1.736 .479-1.736 0-1.736-.479-1.348-.868-.868-.868-.389-.868 0-.479 0 0" fill="#231f20"/>
<path transform="matrix(1,0,0,-1,476.6698,199.78772)" d="M0 0C0 .479-.389 .868-.868 .868-1.348 .868-1.736 .479-1.736 0-1.736-.479-1.348-.868-.868-.868-.389-.868 0-.479 0 0" fill="#231f20"/>
<path transform="matrix(1,0,0,-1,476.6698,186.182)" d="M0 0C0 .479-.389 .868-.868 .868-1.348 .868-1.736 .479-1.736 0-1.736-.479-1.348-.868-.868-.868-.389-.868 0-.479 0 0" fill="#231f20"/>
<path transform="matrix(1,0,0,-1,476.6698,172.57642)" d="M0 0C0 .479-.389 .868-.868 .868-1.348 .868-1.736 .479-1.736 0-1.736-.479-1.348-.868-.868-.868-.389-.868 0-.479 0 0" fill="#231f20"/>
<path transform="matrix(1,0,0,-1,490.2755,199.78772)" d="M0 0C0 .479-.389 .868-.868 .868-1.348 .868-1.736 .479-1.736 0-1.736-.479-1.348-.868-.868-.868-.389-.868 0-.479 0 0" fill="#231f20"/>
<path transform="matrix(1,0,0,-1,490.2755,186.182)" d="M0 0C0 .479-.389 .868-.868 .868-1.348 .868-1.736 .479-1.736 0-1.736-.479-1.348-.868-.868-.868-.389-.868 0-.479 0 0" fill="#231f20"/>
<path transform="matrix(1,0,0,-1,503.8811,199.78772)" d="M0 0C0 .479-.389 .868-.868 .868-1.348 .868-1.736 .479-1.736 0-1.736-.479-1.348-.868-.868-.868-.389-.868 0-.479 0 0" fill="#231f20"/>
<path transform="matrix(1,0,0,-1,112.042,247.73407)" d="M0 0C0 .479 .389 .868 .868 .868 1.348 .868 1.736 .479 1.736 0 1.736-.479 1.348-.868 .868-.868 .389-.868 0-.479 0 0" fill="#231f20"/>
<path transform="matrix(1,0,0,-1,544.698,199.78772)" d="M0 0C0 .479-.389 .868-.868 .868-1.348 .868-1.736 .479-1.736 0-1.736-.479-1.348-.868-.868-.868-.389-.868 0-.479 0 0" fill="#231f20"/>
<path transform="matrix(1,0,0,-1,544.698,186.182)" d="M0 0C0 .479-.389 .868-.868 .868-1.348 .868-1.736 .479-1.736 0-1.736-.479-1.348-.868-.868-.868-.389-.868 0-.479 0 0" fill="#231f20"/>
<path transform="matrix(1,0,0,-1,98.4363,247.73407)" d="M0 0C0 .479 .389 .868 .868 .868 1.348 .868 1.736 .479 1.736 0 1.736-.479 1.348-.868 .868-.868 .389-.868 0-.479 0 0" fill="#231f20"/>
<path transform="matrix(1,0,0,-1,558.3036,199.78772)" d="M0 0C0 .479-.389 .868-.868 .868-1.348 .868-1.736 .479-1.736 0-1.736-.479-1.348-.868-.868-.868-.389-.868 0-.479 0 0" fill="#231f20"/>
<path transform="matrix(1,0,0,-1,558.3036,186.182)" d="M0 0C0 .479-.389 .868-.868 .868-1.348 .868-1.736 .479-1.736 0-1.736-.479-1.348-.868-.868-.868-.389-.868 0-.479 0 0" fill="#231f20"/>
<path transform="matrix(1,0,0,-1,84.8307,247.73407)" d="M0 0C0 .479 .389 .868 .868 .868 1.348 .868 1.736 .479 1.736 0 1.736-.479 1.348-.868 .868-.868 .389-.868 0-.479 0 0" fill="#231f20"/>
<path transform="matrix(1,0,0,-1,84.8307,234.12848)" d="M0 0C0 .479 .389 .868 .868 .868 1.348 .868 1.736 .479 1.736 0 1.736-.479 1.348-.868 .868-.868 .389-.868 0-.479 0 0" fill="#231f20"/>
<path transform="matrix(1,0,0,-1,84.8307,220.52283)" d="M0 0C0 .479 .389 .868 .868 .868 1.348 .868 1.736 .479 1.736 0 1.736-.479 1.348-.868 .868-.868 .389-.868 0-.479 0 0" fill="#231f20"/>
<path transform="matrix(1,0,0,-1,571.9092,199.78772)" d="M0 0C0 .479-.389 .868-.868 .868-1.348 .868-1.736 .479-1.736 0-1.736-.479-1.348-.868-.868-.868-.389-.868 0-.479 0 0" fill="#231f20"/>
<path transform="matrix(1,0,0,-1,571.9092,186.182)" d="M0 0C0 .479-.389 .868-.868 .868-1.348 .868-1.736 .479-1.736 0-1.736-.479-1.348-.868-.868-.868-.389-.868 0-.479 0 0" fill="#231f20"/>
<path transform="matrix(1,0,0,-1,71.2251,261.33973)" d="M0 0C0 .479 .389 .868 .868 .868 1.348 .868 1.736 .479 1.736 0 1.736-.479 1.348-.868 .868-.868 .389-.868 0-.479 0 0" fill="#231f20"/>
<path transform="matrix(1,0,0,-1,71.2251,247.73407)" d="M0 0C0 .479 .389 .868 .868 .868 1.348 .868 1.736 .479 1.736 0 1.736-.479 1.348-.868 .868-.868 .389-.868 0-.479 0 0" fill="#231f20"/>
<path transform="matrix(1,0,0,-1,71.2251,234.12848)" d="M0 0C0 .479 .389 .868 .868 .868 1.348 .868 1.736 .479 1.736 0 1.736-.479 1.348-.868 .868-.868 .389-.868 0-.479 0 0" fill="#231f20"/>
<path transform="matrix(1,0,0,-1,585.5149,199.78772)" d="M0 0C0 .479-.389 .868-.868 .868-1.348 .868-1.736 .479-1.736 0-1.736-.479-1.348-.868-.868-.868-.389-.868 0-.479 0 0" fill="#231f20"/>
<path transform="matrix(1,0,0,-1,57.6194,234.12848)" d="M0 0C0 .479 .389 .868 .868 .868 1.348 .868 1.736 .479 1.736 0 1.736-.479 1.348-.868 .868-.868 .389-.868 0-.479 0 0" fill="#231f20"/>
<path transform="matrix(1,0,0,-1,599.1205,199.78772)" d="M0 0C0 .479-.389 .868-.868 .868-1.348 .868-1.736 .479-1.736 0-1.736-.479-1.348-.868-.868-.868-.389-.868 0-.479 0 0" fill="#231f20"/>
<path transform="matrix(1,0,0,-1,44.0138,274.94538)" d="M0 0C0 .479 .389 .868 .868 .868 1.348 .868 1.736 .479 1.736 0 1.736-.479 1.348-.868 .868-.868 .389-.868 0-.479 0 0" fill="#231f20"/>
<path transform="matrix(1,0,0,-1,44.0138,220.52283)" d="M0 0C0 .479 .389 .868 .868 .868 1.348 .868 1.736 .479 1.736 0 1.736-.479 1.348-.868 .868-.868 .389-.868 0-.479 0 0" fill="#231f20"/>
<path transform="matrix(1,0,0,-1,299.7965,526.3229)" d="M0 0C0 .479-.389 .868-.868 .868-1.348 .868-1.736 .479-1.736 0-1.736-.479-1.348-.868-.868-.868-.389-.868 0-.479 0 0" fill="#231f20"/>
<path transform="matrix(1,0,0,-1,313.4022,526.3229)" d="M0 0C0 .479-.389 .868-.868 .868-1.348 .868-1.736 .479-1.736 0-1.736-.479-1.348-.868-.868-.868-.389-.868 0-.479 0 0" fill="#231f20"/>
<path transform="matrix(1,0,0,-1,218.1627,390.2665)" d="M0 0C0 .479-.389 .868-.868 .868-1.348 .868-1.736 .479-1.736 0-1.736-.479-1.348-.868-.868-.868-.389-.868 0-.479 0 0" fill="#231f20"/>
<path transform="matrix(1,0,0,-1,231.7683,512.7173)" d="M0 0C0 .479-.389 .868-.868 .868-1.348 .868-1.736 .479-1.736 0-1.736-.479-1.348-.868-.868-.868-.389-.868 0-.479 0 0" fill="#231f20"/>
<path transform="matrix(1,0,0,-1,231.7683,417.4778)" d="M0 0C0 .479-.389 .868-.868 .868-1.348 .868-1.736 .479-1.736 0-1.736-.479-1.348-.868-.868-.868-.389-.868 0-.479 0 0" fill="#231f20"/>
<path transform="matrix(1,0,0,-1,231.7683,390.2665)" d="M0 0C0 .479-.389 .868-.868 .868-1.348 .868-1.736 .479-1.736 0-1.736-.479-1.348-.868-.868-.868-.389-.868 0-.479 0 0" fill="#231f20"/>
<path transform="matrix(1,0,0,-1,245.374,417.4778)" d="M0 0C0 .479-.389 .868-.868 .868-1.348 .868-1.736 .479-1.736 0-1.736-.479-1.348-.868-.868-.868-.389-.868 0-.479 0 0" fill="#231f20"/>
<path transform="matrix(1,0,0,-1,245.374,403.8722)" d="M0 0C0 .479-.389 .868-.868 .868-1.348 .868-1.736 .479-1.736 0-1.736-.479-1.348-.868-.868-.868-.389-.868 0-.479 0 0" fill="#231f20"/>
<path transform="matrix(1,0,0,-1,245.374,390.2665)" d="M0 0C0 .479-.389 .868-.868 .868-1.348 .868-1.736 .479-1.736 0-1.736-.479-1.348-.868-.868-.868-.389-.868 0-.479 0 0" fill="#231f20"/>
<path transform="matrix(1,0,0,-1,245.374,376.6609)" d="M0 0C0 .479-.389 .868-.868 .868-1.348 .868-1.736 .479-1.736 0-1.736-.479-1.348-.868-.868-.868-.389-.868 0-.479 0 0" fill="#231f20"/>
<path transform="matrix(1,0,0,-1,245.374,281.4214)" d="M0 0C0 .479-.389 .868-.868 .868-1.348 .868-1.736 .479-1.736 0-1.736-.479-1.348-.868-.868-.868-.389-.868 0-.479 0 0" fill="#231f20"/>
<path transform="matrix(1,0,0,-1,258.9796,431.0835)" d="M0 0C0 .479-.389 .868-.868 .868-1.348 .868-1.736 .479-1.736 0-1.736-.479-1.348-.868-.868-.868-.389-.868 0-.479 0 0" fill="#231f20"/>
<path transform="matrix(1,0,0,-1,258.9796,417.4778)" d="M0 0C0 .479-.389 .868-.868 .868-1.348 .868-1.736 .479-1.736 0-1.736-.479-1.348-.868-.868-.868-.389-.868 0-.479 0 0" fill="#231f20"/>
<path transform="matrix(1,0,0,-1,258.9796,403.8722)" d="M0 0C0 .479-.389 .868-.868 .868-1.348 .868-1.736 .479-1.736 0-1.736-.479-1.348-.868-.868-.868-.389-.868 0-.479 0 0" fill="#231f20"/>
<path transform="matrix(1,0,0,-1,258.9796,390.2665)" d="M0 0C0 .479-.389 .868-.868 .868-1.348 .868-1.736 .479-1.736 0-1.736-.479-1.348-.868-.868-.868-.389-.868 0-.479 0 0" fill="#231f20"/>
<path transform="matrix(1,0,0,-1,258.9796,376.6609)" d="M0 0C0 .479-.389 .868-.868 .868-1.348 .868-1.736 .479-1.736 0-1.736-.479-1.348-.868-.868-.868-.389-.868 0-.479 0 0" fill="#231f20"/>
<path transform="matrix(1,0,0,-1,258.9796,295.0271)" d="M0 0C0 .479-.389 .868-.868 .868-1.348 .868-1.736 .479-1.736 0-1.736-.479-1.348-.868-.868-.868-.389-.868 0-.479 0 0" fill="#231f20"/>
<path transform="matrix(1,0,0,-1,258.9796,281.4214)" d="M0 0C0 .479-.389 .868-.868 .868-1.348 .868-1.736 .479-1.736 0-1.736-.479-1.348-.868-.868-.868-.389-.868 0-.479 0 0" fill="#231f20"/>
<path transform="matrix(1,0,0,-1,258.9796,254.2102)" d="M0 0C0 .479-.389 .868-.868 .868-1.348 .868-1.736 .479-1.736 0-1.736-.479-1.348-.868-.868-.868-.389-.868 0-.479 0 0" fill="#231f20"/>
<path transform="matrix(1,0,0,-1,258.9796,240.60462)" d="M0 0C0 .479-.389 .868-.868 .868-1.348 .868-1.736 .479-1.736 0-1.736-.479-1.348-.868-.868-.868-.389-.868 0-.479 0 0" fill="#231f20"/>
<path transform="matrix(1,0,0,-1,272.5853,512.7173)" d="M0 0C0 .479-.389 .868-.868 .868-1.348 .868-1.736 .479-1.736 0-1.736-.479-1.348-.868-.868-.868-.389-.868 0-.479 0 0" fill="#231f20"/>
<path transform="matrix(1,0,0,-1,272.5853,471.9004)" d="M0 0C0 .479-.389 .868-.868 .868-1.348 .868-1.736 .479-1.736 0-1.736-.479-1.348-.868-.868-.868-.389-.868 0-.479 0 0" fill="#231f20"/>
<path transform="matrix(1,0,0,-1,272.5853,444.6891)" d="M0 0C0 .479-.389 .868-.868 .868-1.348 .868-1.736 .479-1.736 0-1.736-.479-1.348-.868-.868-.868-.389-.868 0-.479 0 0" fill="#231f20"/>
<path transform="matrix(1,0,0,-1,272.5853,431.0835)" d="M0 0C0 .479-.389 .868-.868 .868-1.348 .868-1.736 .479-1.736 0-1.736-.479-1.348-.868-.868-.868-.389-.868 0-.479 0 0" fill="#231f20"/>
<path transform="matrix(1,0,0,-1,272.5853,417.4778)" d="M0 0C0 .479-.389 .868-.868 .868-1.348 .868-1.736 .479-1.736 0-1.736-.479-1.348-.868-.868-.868-.389-.868 0-.479 0 0" fill="#231f20"/>
<path transform="matrix(1,0,0,-1,272.5853,403.8722)" d="M0 0C0 .479-.389 .868-.868 .868-1.348 .868-1.736 .479-1.736 0-1.736-.479-1.348-.868-.868-.868-.389-.868 0-.479 0 0" fill="#231f20"/>
<path transform="matrix(1,0,0,-1,272.5853,390.2665)" d="M0 0C0 .479-.389 .868-.868 .868-1.348 .868-1.736 .479-1.736 0-1.736-.479-1.348-.868-.868-.868-.389-.868 0-.479 0 0" fill="#231f20"/>
<path transform="matrix(1,0,0,-1,272.5853,376.6609)" d="M0 0C0 .479-.389 .868-.868 .868-1.348 .868-1.736 .479-1.736 0-1.736-.479-1.348-.868-.868-.868-.389-.868 0-.479 0 0" fill="#231f20"/>
<path transform="matrix(1,0,0,-1,272.5853,335.844)" d="M0 0C0 .479-.389 .868-.868 .868-1.348 .868-1.736 .479-1.736 0-1.736-.479-1.348-.868-.868-.868-.389-.868 0-.479 0 0" fill="#231f20"/>
<path transform="matrix(1,0,0,-1,272.5853,308.6327)" d="M0 0C0 .479-.389 .868-.868 .868-1.348 .868-1.736 .479-1.736 0-1.736-.479-1.348-.868-.868-.868-.389-.868 0-.479 0 0" fill="#231f20"/>
<path transform="matrix(1,0,0,-1,272.5853,295.0271)" d="M0 0C0 .479-.389 .868-.868 .868-1.348 .868-1.736 .479-1.736 0-1.736-.479-1.348-.868-.868-.868-.389-.868 0-.479 0 0" fill="#231f20"/>
<path transform="matrix(1,0,0,-1,272.5853,281.4214)" d="M0 0C0 .479-.389 .868-.868 .868-1.348 .868-1.736 .479-1.736 0-1.736-.479-1.348-.868-.868-.868-.389-.868 0-.479 0 0" fill="#231f20"/>
<path transform="matrix(1,0,0,-1,272.5853,267.8158)" d="M0 0C0 .479-.389 .868-.868 .868-1.348 .868-1.736 .479-1.736 0-1.736-.479-1.348-.868-.868-.868-.389-.868 0-.479 0 0" fill="#231f20"/>
<path transform="matrix(1,0,0,-1,272.5853,254.2102)" d="M0 0C0 .479-.389 .868-.868 .868-1.348 .868-1.736 .479-1.736 0-1.736-.479-1.348-.868-.868-.868-.389-.868 0-.479 0 0" fill="#231f20"/>
<path transform="matrix(1,0,0,-1,286.1909,512.7173)" d="M0 0C0 .479-.389 .868-.868 .868-1.348 .868-1.736 .479-1.736 0-1.736-.479-1.348-.868-.868-.868-.389-.868 0-.479 0 0" fill="#231f20"/>
<path transform="matrix(1,0,0,-1,286.1909,485.506)" d="M0 0C0 .479-.389 .868-.868 .868-1.348 .868-1.736 .479-1.736 0-1.736-.479-1.348-.868-.868-.868-.389-.868 0-.479 0 0" fill="#231f20"/>
<path transform="matrix(1,0,0,-1,286.1909,471.9004)" d="M0 0C0 .479-.389 .868-.868 .868-1.348 .868-1.736 .479-1.736 0-1.736-.479-1.348-.868-.868-.868-.389-.868 0-.479 0 0" fill="#231f20"/>
<path transform="matrix(1,0,0,-1,286.1909,444.6891)" d="M0 0C0 .479-.389 .868-.868 .868-1.348 .868-1.736 .479-1.736 0-1.736-.479-1.348-.868-.868-.868-.389-.868 0-.479 0 0" fill="#231f20"/>
<path transform="matrix(1,0,0,-1,286.1909,431.0835)" d="M0 0C0 .479-.389 .868-.868 .868-1.348 .868-1.736 .479-1.736 0-1.736-.479-1.348-.868-.868-.868-.389-.868 0-.479 0 0" fill="#231f20"/>
<path transform="matrix(1,0,0,-1,286.1909,417.4778)" d="M0 0C0 .479-.389 .868-.868 .868-1.348 .868-1.736 .479-1.736 0-1.736-.479-1.348-.868-.868-.868-.389-.868 0-.479 0 0" fill="#231f20"/>
<path transform="matrix(1,0,0,-1,286.1909,403.8722)" d="M0 0C0 .479-.389 .868-.868 .868-1.348 .868-1.736 .479-1.736 0-1.736-.479-1.348-.868-.868-.868-.389-.868 0-.479 0 0" fill="#231f20"/>
<path transform="matrix(1,0,0,-1,286.1909,390.2665)" d="M0 0C0 .479-.389 .868-.868 .868-1.348 .868-1.736 .479-1.736 0-1.736-.479-1.348-.868-.868-.868-.389-.868 0-.479 0 0" fill="#231f20"/>
<path transform="matrix(1,0,0,-1,286.1909,376.6609)" d="M0 0C0 .479-.389 .868-.868 .868-1.348 .868-1.736 .479-1.736 0-1.736-.479-1.348-.868-.868-.868-.389-.868 0-.479 0 0" fill="#231f20"/>
<path transform="matrix(1,0,0,-1,286.1909,335.844)" d="M0 0C0 .479-.389 .868-.868 .868-1.348 .868-1.736 .479-1.736 0-1.736-.479-1.348-.868-.868-.868-.389-.868 0-.479 0 0" fill="#231f20"/>
<path transform="matrix(1,0,0,-1,286.1909,322.2384)" d="M0 0C0 .479-.389 .868-.868 .868-1.348 .868-1.736 .479-1.736 0-1.736-.479-1.348-.868-.868-.868-.389-.868 0-.479 0 0" fill="#231f20"/>
<path transform="matrix(1,0,0,-1,286.1909,308.6327)" d="M0 0C0 .479-.389 .868-.868 .868-1.348 .868-1.736 .479-1.736 0-1.736-.479-1.348-.868-.868-.868-.389-.868 0-.479 0 0" fill="#231f20"/>
<path transform="matrix(1,0,0,-1,286.1909,295.0271)" d="M0 0C0 .479-.389 .868-.868 .868-1.348 .868-1.736 .479-1.736 0-1.736-.479-1.348-.868-.868-.868-.389-.868 0-.479 0 0" fill="#231f20"/>
<path transform="matrix(1,0,0,-1,299.7965,512.7173)" d="M0 0C0 .479-.389 .868-.868 .868-1.348 .868-1.736 .479-1.736 0-1.736-.479-1.348-.868-.868-.868-.389-.868 0-.479 0 0" fill="#231f20"/>
<path transform="matrix(1,0,0,-1,299.7965,499.1116)" d="M0 0C0 .479-.389 .868-.868 .868-1.348 .868-1.736 .479-1.736 0-1.736-.479-1.348-.868-.868-.868-.389-.868 0-.479 0 0" fill="#231f20"/>
<path transform="matrix(1,0,0,-1,299.7965,485.506)" d="M0 0C0 .479-.389 .868-.868 .868-1.348 .868-1.736 .479-1.736 0-1.736-.479-1.348-.868-.868-.868-.389-.868 0-.479 0 0" fill="#231f20"/>
<path transform="matrix(1,0,0,-1,299.7965,471.9004)" d="M0 0C0 .479-.389 .868-.868 .868-1.348 .868-1.736 .479-1.736 0-1.736-.479-1.348-.868-.868-.868-.389-.868 0-.479 0 0" fill="#231f20"/>
<path transform="matrix(1,0,0,-1,299.7965,458.2947)" d="M0 0C0 .479-.389 .868-.868 .868-1.348 .868-1.736 .479-1.736 0-1.736-.479-1.348-.868-.868-.868-.389-.868 0-.479 0 0" fill="#231f20"/>
<path transform="matrix(1,0,0,-1,299.7965,444.6891)" d="M0 0C0 .479-.389 .868-.868 .868-1.348 .868-1.736 .479-1.736 0-1.736-.479-1.348-.868-.868-.868-.389-.868 0-.479 0 0" fill="#231f20"/>
<path transform="matrix(1,0,0,-1,299.7965,431.0835)" d="M0 0C0 .479-.389 .868-.868 .868-1.348 .868-1.736 .479-1.736 0-1.736-.479-1.348-.868-.868-.868-.389-.868 0-.479 0 0" fill="#231f20"/>
<path transform="matrix(1,0,0,-1,299.7965,417.4778)" d="M0 0C0 .479-.389 .868-.868 .868-1.348 .868-1.736 .479-1.736 0-1.736-.479-1.348-.868-.868-.868-.389-.868 0-.479 0 0" fill="#231f20"/>
<path transform="matrix(1,0,0,-1,299.7965,403.8722)" d="M0 0C0 .479-.389 .868-.868 .868-1.348 .868-1.736 .479-1.736 0-1.736-.479-1.348-.868-.868-.868-.389-.868 0-.479 0 0" fill="#231f20"/>
<path transform="matrix(1,0,0,-1,299.7965,390.2665)" d="M0 0C0 .479-.389 .868-.868 .868-1.348 .868-1.736 .479-1.736 0-1.736-.479-1.348-.868-.868-.868-.389-.868 0-.479 0 0" fill="#231f20"/>
<path transform="matrix(1,0,0,-1,299.7965,376.6609)" d="M0 0C0 .479-.389 .868-.868 .868-1.348 .868-1.736 .479-1.736 0-1.736-.479-1.348-.868-.868-.868-.389-.868 0-.479 0 0" fill="#231f20"/>
<path transform="matrix(1,0,0,-1,299.7965,349.4496)" d="M0 0C0 .479-.389 .868-.868 .868-1.348 .868-1.736 .479-1.736 0-1.736-.479-1.348-.868-.868-.868-.389-.868 0-.479 0 0" fill="#231f20"/>
<path transform="matrix(1,0,0,-1,299.7965,335.844)" d="M0 0C0 .479-.389 .868-.868 .868-1.348 .868-1.736 .479-1.736 0-1.736-.479-1.348-.868-.868-.868-.389-.868 0-.479 0 0" fill="#231f20"/>
<path transform="matrix(1,0,0,-1,299.7965,322.2384)" d="M0 0C0 .479-.389 .868-.868 .868-1.348 .868-1.736 .479-1.736 0-1.736-.479-1.348-.868-.868-.868-.389-.868 0-.479 0 0" fill="#231f20"/>
<path transform="matrix(1,0,0,-1,299.7965,308.6327)" d="M0 0C0 .479-.389 .868-.868 .868-1.348 .868-1.736 .479-1.736 0-1.736-.479-1.348-.868-.868-.868-.389-.868 0-.479 0 0" fill="#231f20"/>
<path transform="matrix(1,0,0,-1,299.7965,295.0271)" d="M0 0C0 .479-.389 .868-.868 .868-1.348 .868-1.736 .479-1.736 0-1.736-.479-1.348-.868-.868-.868-.389-.868 0-.479 0 0" fill="#231f20"/>
<path transform="matrix(1,0,0,-1,299.7965,281.4214)" d="M0 0C0 .479-.389 .868-.868 .868-1.348 .868-1.736 .479-1.736 0-1.736-.479-1.348-.868-.868-.868-.389-.868 0-.479 0 0" fill="#231f20"/>
<path transform="matrix(1,0,0,-1,299.7965,267.8158)" d="M0 0C0 .479-.389 .868-.868 .868-1.348 .868-1.736 .479-1.736 0-1.736-.479-1.348-.868-.868-.868-.389-.868 0-.479 0 0" fill="#231f20"/>
<path transform="matrix(1,0,0,-1,313.4022,512.7173)" d="M0 0C0 .479-.389 .868-.868 .868-1.348 .868-1.736 .479-1.736 0-1.736-.479-1.348-.868-.868-.868-.389-.868 0-.479 0 0" fill="#231f20"/>
<path transform="matrix(1,0,0,-1,313.4022,499.1116)" d="M0 0C0 .479-.389 .868-.868 .868-1.348 .868-1.736 .479-1.736 0-1.736-.479-1.348-.868-.868-.868-.389-.868 0-.479 0 0" fill="#231f20"/>
<path transform="matrix(1,0,0,-1,313.4022,485.506)" d="M0 0C0 .479-.389 .868-.868 .868-1.348 .868-1.736 .479-1.736 0-1.736-.479-1.348-.868-.868-.868-.389-.868 0-.479 0 0" fill="#231f20"/>
<path transform="matrix(1,0,0,-1,313.4022,471.9004)" d="M0 0C0 .479-.389 .868-.868 .868-1.348 .868-1.736 .479-1.736 0-1.736-.479-1.348-.868-.868-.868-.389-.868 0-.479 0 0" fill="#231f20"/>
<path transform="matrix(1,0,0,-1,313.4022,458.2947)" d="M0 0C0 .479-.389 .868-.868 .868-1.348 .868-1.736 .479-1.736 0-1.736-.479-1.348-.868-.868-.868-.389-.868 0-.479 0 0" fill="#231f20"/>
<path transform="matrix(1,0,0,-1,313.4022,444.6891)" d="M0 0C0 .479-.389 .868-.868 .868-1.348 .868-1.736 .479-1.736 0-1.736-.479-1.348-.868-.868-.868-.389-.868 0-.479 0 0" fill="#231f20"/>
<path transform="matrix(1,0,0,-1,313.4022,431.0835)" d="M0 0C0 .479-.389 .868-.868 .868-1.348 .868-1.736 .479-1.736 0-1.736-.479-1.348-.868-.868-.868-.389-.868 0-.479 0 0" fill="#231f20"/>
<path transform="matrix(1,0,0,-1,313.4022,417.4778)" d="M0 0C0 .479-.389 .868-.868 .868-1.348 .868-1.736 .479-1.736 0-1.736-.479-1.348-.868-.868-.868-.389-.868 0-.479 0 0" fill="#231f20"/>
<path transform="matrix(1,0,0,-1,313.4022,403.8722)" d="M0 0C0 .479-.389 .868-.868 .868-1.348 .868-1.736 .479-1.736 0-1.736-.479-1.348-.868-.868-.868-.389-.868 0-.479 0 0" fill="#231f20"/>
<path transform="matrix(1,0,0,-1,313.4022,390.2665)" d="M0 0C0 .479-.389 .868-.868 .868-1.348 .868-1.736 .479-1.736 0-1.736-.479-1.348-.868-.868-.868-.389-.868 0-.479 0 0" fill="#231f20"/>
<path transform="matrix(1,0,0,-1,313.4022,376.6609)" d="M0 0C0 .479-.389 .868-.868 .868-1.348 .868-1.736 .479-1.736 0-1.736-.479-1.348-.868-.868-.868-.389-.868 0-.479 0 0" fill="#231f20"/>
<path transform="matrix(1,0,0,-1,313.4022,363.0553)" d="M0 0C0 .479-.389 .868-.868 .868-1.348 .868-1.736 .479-1.736 0-1.736-.479-1.348-.868-.868-.868-.389-.868 0-.479 0 0" fill="#231f20"/>
<path transform="matrix(1,0,0,-1,313.4022,349.4496)" d="M0 0C0 .479-.389 .868-.868 .868-1.348 .868-1.736 .479-1.736 0-1.736-.479-1.348-.868-.868-.868-.389-.868 0-.479 0 0" fill="#231f20"/>
<path transform="matrix(1,0,0,-1,313.4022,335.844)" d="M0 0C0 .479-.389 .868-.868 .868-1.348 .868-1.736 .479-1.736 0-1.736-.479-1.348-.868-.868-.868-.389-.868 0-.479 0 0" fill="#231f20"/>
<path transform="matrix(1,0,0,-1,313.4022,322.2384)" d="M0 0C0 .479-.389 .868-.868 .868-1.348 .868-1.736 .479-1.736 0-1.736-.479-1.348-.868-.868-.868-.389-.868 0-.479 0 0" fill="#231f20"/>
<path transform="matrix(1,0,0,-1,313.4022,308.6327)" d="M0 0C0 .479-.389 .868-.868 .868-1.348 .868-1.736 .479-1.736 0-1.736-.479-1.348-.868-.868-.868-.389-.868 0-.479 0 0" fill="#231f20"/>
<path transform="matrix(1,0,0,-1,313.4022,295.0271)" d="M0 0C0 .479-.389 .868-.868 .868-1.348 .868-1.736 .479-1.736 0-1.736-.479-1.348-.868-.868-.868-.389-.868 0-.479 0 0" fill="#231f20"/>
<path transform="matrix(1,0,0,-1,313.4022,281.4214)" d="M0 0C0 .479-.389 .868-.868 .868-1.348 .868-1.736 .479-1.736 0-1.736-.479-1.348-.868-.868-.868-.389-.868 0-.479 0 0" fill="#231f20"/>
<path transform="matrix(1,0,0,-1,313.4022,267.8158)" d="M0 0C0 .479-.389 .868-.868 .868-1.348 .868-1.736 .479-1.736 0-1.736-.479-1.348-.868-.868-.868-.389-.868 0-.479 0 0" fill="#231f20"/>
<path transform="matrix(1,0,0,-1,313.4022,254.2102)" d="M0 0C0 .479-.389 .868-.868 .868-1.348 .868-1.736 .479-1.736 0-1.736-.479-1.348-.868-.868-.868-.389-.868 0-.479 0 0" fill="#231f20"/>
<path transform="matrix(1,0,0,-1,327.0078,512.7173)" d="M0 0C0 .479-.389 .868-.868 .868-1.348 .868-1.736 .479-1.736 0-1.736-.479-1.348-.868-.868-.868-.389-.868 0-.479 0 0" fill="#231f20"/>
<path transform="matrix(1,0,0,-1,327.0078,499.1116)" d="M0 0C0 .479-.389 .868-.868 .868-1.348 .868-1.736 .479-1.736 0-1.736-.479-1.348-.868-.868-.868-.389-.868 0-.479 0 0" fill="#231f20"/>
<path transform="matrix(1,0,0,-1,327.0078,485.506)" d="M0 0C0 .479-.389 .868-.868 .868-1.348 .868-1.736 .479-1.736 0-1.736-.479-1.348-.868-.868-.868-.389-.868 0-.479 0 0" fill="#231f20"/>
<path transform="matrix(1,0,0,-1,327.0078,471.9004)" d="M0 0C0 .479-.389 .868-.868 .868-1.348 .868-1.736 .479-1.736 0-1.736-.479-1.348-.868-.868-.868-.389-.868 0-.479 0 0" fill="#231f20"/>
<path transform="matrix(1,0,0,-1,327.0078,458.2947)" d="M0 0C0 .479-.389 .868-.868 .868-1.348 .868-1.736 .479-1.736 0-1.736-.479-1.348-.868-.868-.868-.389-.868 0-.479 0 0" fill="#231f20"/>
<path transform="matrix(1,0,0,-1,327.0078,444.6891)" d="M0 0C0 .479-.389 .868-.868 .868-1.348 .868-1.736 .479-1.736 0-1.736-.479-1.348-.868-.868-.868-.389-.868 0-.479 0 0" fill="#231f20"/>
<path transform="matrix(1,0,0,-1,327.0078,431.0835)" d="M0 0C0 .479-.389 .868-.868 .868-1.348 .868-1.736 .479-1.736 0-1.736-.479-1.348-.868-.868-.868-.389-.868 0-.479 0 0" fill="#231f20"/>
<path transform="matrix(1,0,0,-1,327.0078,417.4778)" d="M0 0C0 .479-.389 .868-.868 .868-1.348 .868-1.736 .479-1.736 0-1.736-.479-1.348-.868-.868-.868-.389-.868 0-.479 0 0" fill="#231f20"/>
<path transform="matrix(1,0,0,-1,327.0078,403.8722)" d="M0 0C0 .479-.389 .868-.868 .868-1.348 .868-1.736 .479-1.736 0-1.736-.479-1.348-.868-.868-.868-.389-.868 0-.479 0 0" fill="#231f20"/>
<path transform="matrix(1,0,0,-1,327.0078,390.2665)" d="M0 0C0 .479-.389 .868-.868 .868-1.348 .868-1.736 .479-1.736 0-1.736-.479-1.348-.868-.868-.868-.389-.868 0-.479 0 0" fill="#231f20"/>
<path transform="matrix(1,0,0,-1,327.0078,376.6609)" d="M0 0C0 .479-.389 .868-.868 .868-1.348 .868-1.736 .479-1.736 0-1.736-.479-1.348-.868-.868-.868-.389-.868 0-.479 0 0" fill="#231f20"/>
<path transform="matrix(1,0,0,-1,327.0078,363.0553)" d="M0 0C0 .479-.389 .868-.868 .868-1.348 .868-1.736 .479-1.736 0-1.736-.479-1.348-.868-.868-.868-.389-.868 0-.479 0 0" fill="#231f20"/>
<path transform="matrix(1,0,0,-1,327.0078,349.4496)" d="M0 0C0 .479-.389 .868-.868 .868-1.348 .868-1.736 .479-1.736 0-1.736-.479-1.348-.868-.868-.868-.389-.868 0-.479 0 0" fill="#231f20"/>
<path transform="matrix(1,0,0,-1,327.0078,335.844)" d="M0 0C0 .479-.389 .868-.868 .868-1.348 .868-1.736 .479-1.736 0-1.736-.479-1.348-.868-.868-.868-.389-.868 0-.479 0 0" fill="#231f20"/>
<path transform="matrix(1,0,0,-1,327.0078,322.2384)" d="M0 0C0 .479-.389 .868-.868 .868-1.348 .868-1.736 .479-1.736 0-1.736-.479-1.348-.868-.868-.868-.389-.868 0-.479 0 0" fill="#231f20"/>
<path transform="matrix(1,0,0,-1,327.0078,308.6327)" d="M0 0C0 .479-.389 .868-.868 .868-1.348 .868-1.736 .479-1.736 0-1.736-.479-1.348-.868-.868-.868-.389-.868 0-.479 0 0" fill="#231f20"/>
<path transform="matrix(1,0,0,-1,327.0078,295.0271)" d="M0 0C0 .479-.389 .868-.868 .868-1.348 .868-1.736 .479-1.736 0-1.736-.479-1.348-.868-.868-.868-.389-.868 0-.479 0 0" fill="#231f20"/>
<path transform="matrix(1,0,0,-1,327.0078,281.4214)" d="M0 0C0 .479-.389 .868-.868 .868-1.348 .868-1.736 .479-1.736 0-1.736-.479-1.348-.868-.868-.868-.389-.868 0-.479 0 0" fill="#231f20"/>
<path transform="matrix(1,0,0,-1,327.0078,267.8158)" d="M0 0C0 .479-.389 .868-.868 .868-1.348 .868-1.736 .479-1.736 0-1.736-.479-1.348-.868-.868-.868-.389-.868 0-.479 0 0" fill="#231f20"/>
</g>
</g>
</g>
</svg>
