<svg xmlns="http://www.w3.org/2000/svg" xmlns:xlink="http://www.w3.org/1999/xlink" xmlns:inkscape="http://www.inkscape.org/namespaces/inkscape" version="1.1" width="582" height="781" viewBox="-10 -10 582 781">
<defs>
<clipPath id="clip_1">
<path transform="matrix(1,0,0,-1,0,792)" d="M0 792H612V0H0Z"/>
</clipPath>
</defs>
<g>
<g inkscape:groupmode="layer" inkscape:label="Layer 1">
<g clip-path="url(#clip_1)">
<path transform="matrix(1,0,0,-1,326.8719,125.02197)" d="M0 0C0-.415 .337-.752 .752-.752 1.167-.752 1.503-.415 1.503 0 1.503 .415 1.167 .752 .752 .752 .337 .752 0 .415 0 0" fill="#231f20"/>
<path transform="matrix(1,0,0,-1,326.8719,136.80359)" d="M0 0C0-.415 .337-.752 .752-.752 1.167-.752 1.503-.415 1.503 0 1.503 .415 1.167 .752 .752 .752 .337 .752 0 .415 0 0" fill="#231f20"/>
<path transform="matrix(1,0,0,-1,326.8719,148.58533)" d="M0 0C0-.415 .337-.752 .752-.752 1.167-.752 1.503-.415 1.503 0 1.503 .415 1.167 .752 .752 .752 .337 .752 0 .415 0 0" fill="#231f20"/>
<path transform="matrix(1,0,0,-1,326.8719,160.36688)" d="M0 0C0-.415 .337-.752 .752-.752 1.167-.752 1.503-.415 1.503 0 1.503 .415 1.167 .752 .752 .752 .337 .752 0 .415 0 0" fill="#231f20"/>
<path transform="matrix(1,0,0,-1,326.8719,172.14862)" d="M0 0C0-.415 .337-.752 .752-.752 1.167-.752 1.503-.415 1.503 0 1.503 .415 1.167 .752 .752 .752 .337 .752 0 .415 0 0" fill="#231f20"/>
<path transform="matrix(1,0,0,-1,326.8719,183.93018)" d="M0 0C0-.415 .337-.752 .752-.752 1.167-.752 1.503-.415 1.503 0 1.503 .415 1.167 .752 .752 .752 .337 .752 0 .415 0 0" fill="#231f20"/>
<path transform="matrix(1,0,0,-1,326.8719,195.71192)" d="M0 0C0-.415 .337-.752 .752-.752 1.167-.752 1.503-.415 1.503 0 1.503 .415 1.167 .752 .752 .752 .337 .752 0 .415 0 0" fill="#231f20"/>
<path transform="matrix(1,0,0,-1,326.8719,313.5284)" d="M0 0C0-.415 .337-.752 .752-.752 1.167-.752 1.503-.415 1.503 0 1.503 .415 1.167 .752 .752 .752 .337 .752 0 .415 0 0" fill="#231f20"/>
<path transform="matrix(1,0,0,-1,326.8719,325.3101)" d="M0 0C0-.415 .337-.752 .752-.752 1.167-.752 1.503-.415 1.503 0 1.503 .415 1.167 .752 .752 .752 .337 .752 0 .415 0 0" fill="#231f20"/>
<path transform="matrix(1,0,0,-1,326.8719,337.0917)" d="M0 0C0-.415 .337-.752 .752-.752 1.167-.752 1.503-.415 1.503 0 1.503 .415 1.167 .752 .752 .752 .337 .752 0 .415 0 0" fill="#231f20"/>
<path transform="matrix(1,0,0,-1,326.8719,360.655)" d="M0 0C0-.415 .337-.752 .752-.752 1.167-.752 1.503-.415 1.503 0 1.503 .415 1.167 .752 .752 .752 .337 .752 0 .415 0 0" fill="#231f20"/>
<path transform="matrix(1,0,0,-1,315.0902,183.93018)" d="M0 0C0-.415 .337-.752 .752-.752 1.167-.752 1.503-.415 1.503 0 1.503 .415 1.167 .752 .752 .752 .337 .752 0 .415 0 0" fill="#231f20"/>
<path transform="matrix(1,0,0,-1,315.0902,195.71192)" d="M0 0C0-.415 .337-.752 .752-.752 1.167-.752 1.503-.415 1.503 0 1.503 .415 1.167 .752 .752 .752 .337 .752 0 .415 0 0" fill="#231f20"/>
<path transform="matrix(1,0,0,-1,315.0902,254.62018)" d="M0 0C0-.415 .337-.752 .752-.752 1.167-.752 1.503-.415 1.503 0 1.503 .415 1.167 .752 .752 .752 .337 .752 0 .415 0 0" fill="#231f20"/>
<path transform="matrix(1,0,0,-1,315.0902,313.5284)" d="M0 0C0-.415 .337-.752 .752-.752 1.167-.752 1.503-.415 1.503 0 1.503 .415 1.167 .752 .752 .752 .337 .752 0 .415 0 0" fill="#231f20"/>
<path transform="matrix(1,0,0,-1,315.0902,325.3101)" d="M0 0C0-.415 .337-.752 .752-.752 1.167-.752 1.503-.415 1.503 0 1.503 .415 1.167 .752 .752 .752 .337 .752 0 .415 0 0" fill="#231f20"/>
<path transform="matrix(1,0,0,-1,315.0902,337.0917)" d="M0 0C0-.415 .337-.752 .752-.752 1.167-.752 1.503-.415 1.503 0 1.503 .415 1.167 .752 .752 .752 .337 .752 0 .415 0 0" fill="#231f20"/>
<path transform="matrix(1,0,0,-1,315.0902,360.655)" d="M0 0C0-.415 .337-.752 .752-.752 1.167-.752 1.503-.415 1.503 0 1.503 .415 1.167 .752 .752 .752 .337 .752 0 .415 0 0" fill="#231f20"/>
<path transform="matrix(1,0,0,-1,303.3086,160.36688)" d="M0 0C0-.415 .337-.752 .752-.752 1.167-.752 1.503-.415 1.503 0 1.503 .415 1.167 .752 .752 .752 .337 .752 0 .415 0 0" fill="#231f20"/>
<path transform="matrix(1,0,0,-1,303.3086,172.14862)" d="M0 0C0-.415 .337-.752 .752-.752 1.167-.752 1.503-.415 1.503 0 1.503 .415 1.167 .752 .752 .752 .337 .752 0 .415 0 0" fill="#231f20"/>
<path transform="matrix(1,0,0,-1,303.3086,183.93018)" d="M0 0C0-.415 .337-.752 .752-.752 1.167-.752 1.503-.415 1.503 0 1.503 .415 1.167 .752 .752 .752 .337 .752 0 .415 0 0" fill="#231f20"/>
<path transform="matrix(1,0,0,-1,303.3086,231.05683)" d="M0 0C0-.415 .337-.752 .752-.752 1.167-.752 1.503-.415 1.503 0 1.503 .415 1.167 .752 .752 .752 .337 .752 0 .415 0 0" fill="#231f20"/>
<path transform="matrix(1,0,0,-1,303.3086,242.8385)" d="M0 0C0-.415 .337-.752 .752-.752 1.167-.752 1.503-.415 1.503 0 1.503 .415 1.167 .752 .752 .752 .337 .752 0 .415 0 0" fill="#231f20"/>
<path transform="matrix(1,0,0,-1,303.3086,325.3101)" d="M0 0C0-.415 .337-.752 .752-.752 1.167-.752 1.503-.415 1.503 0 1.503 .415 1.167 .752 .752 .752 .337 .752 0 .415 0 0" fill="#231f20"/>
<path transform="matrix(1,0,0,-1,303.3086,337.0917)" d="M0 0C0-.415 .337-.752 .752-.752 1.167-.752 1.503-.415 1.503 0 1.503 .415 1.167 .752 .752 .752 .337 .752 0 .415 0 0" fill="#231f20"/>
<path transform="matrix(1,0,0,-1,291.5269,172.14862)" d="M0 0C0-.415 .337-.752 .752-.752 1.167-.752 1.503-.415 1.503 0 1.503 .415 1.167 .752 .752 .752 .337 .752 0 .415 0 0" fill="#231f20"/>
<path transform="matrix(1,0,0,-1,291.5269,183.93018)" d="M0 0C0-.415 .337-.752 .752-.752 1.167-.752 1.503-.415 1.503 0 1.503 .415 1.167 .752 .752 .752 .337 .752 0 .415 0 0" fill="#231f20"/>
<path transform="matrix(1,0,0,-1,291.5269,325.3101)" d="M0 0C0-.415 .337-.752 .752-.752 1.167-.752 1.503-.415 1.503 0 1.503 .415 1.167 .752 .752 .752 .337 .752 0 .415 0 0" fill="#231f20"/>
<path transform="matrix(1,0,0,-1,291.5269,337.0917)" d="M0 0C0-.415 .337-.752 .752-.752 1.167-.752 1.503-.415 1.503 0 1.503 .415 1.167 .752 .752 .752 .337 .752 0 .415 0 0" fill="#231f20"/>
<path transform="matrix(1,0,0,-1,279.7453,172.14862)" d="M0 0C0-.415 .337-.752 .752-.752 1.167-.752 1.503-.415 1.503 0 1.503 .415 1.167 .752 .752 .752 .337 .752 0 .415 0 0" fill="#231f20"/>
<path transform="matrix(1,0,0,-1,279.7453,183.93018)" d="M0 0C0-.415 .337-.752 .752-.752 1.167-.752 1.503-.415 1.503 0 1.503 .415 1.167 .752 .752 .752 .337 .752 0 .415 0 0" fill="#231f20"/>
<path transform="matrix(1,0,0,-1,279.7453,337.0917)" d="M0 0C0-.415 .337-.752 .752-.752 1.167-.752 1.503-.415 1.503 0 1.503 .415 1.167 .752 .752 .752 .337 .752 0 .415 0 0" fill="#231f20"/>
<path transform="matrix(1,0,0,-1,267.9636,183.93018)" d="M0 0C0-.415 .337-.752 .752-.752 1.167-.752 1.503-.415 1.503 0 1.503 .415 1.167 .752 .752 .752 .337 .752 0 .415 0 0" fill="#231f20"/>
<path transform="matrix(1,0,0,-1,150.1471,242.8385)" d="M0 0C0-.415 .337-.752 .752-.752 1.167-.752 1.503-.415 1.503 0 1.503 .415 1.167 .752 .752 .752 .337 .752 0 .415 0 0" fill="#231f20"/>
<path transform="matrix(1,0,0,-1,150.1471,254.62018)" d="M0 0C0-.415 .337-.752 .752-.752 1.167-.752 1.503-.415 1.503 0 1.503 .415 1.167 .752 .752 .752 .337 .752 0 .415 0 0" fill="#231f20"/>
<path transform="matrix(1,0,0,-1,138.3654,242.8385)" d="M0 0C0-.415 .337-.752 .752-.752 1.167-.752 1.503-.415 1.503 0 1.503 .415 1.167 .752 .752 .752 .337 .752 0 .415 0 0" fill="#231f20"/>
<path transform="matrix(1,0,0,-1,114.8021,195.71192)" d="M0 0C0-.415 .337-.752 .752-.752 1.167-.752 1.503-.415 1.503 0 1.503 .415 1.167 .752 .752 .752 .337 .752 0 .415 0 0" fill="#231f20"/>
<path transform="matrix(1,0,0,-1,114.8021,207.49353)" d="M0 0C0-.415 .337-.752 .752-.752 1.167-.752 1.503-.415 1.503 0 1.503 .415 1.167 .752 .752 .752 .337 .752 0 .415 0 0" fill="#231f20"/>
<path transform="matrix(1,0,0,-1,114.8021,219.2752)" d="M0 0C0-.415 .337-.752 .752-.752 1.167-.752 1.503-.415 1.503 0 1.503 .415 1.167 .752 .752 .752 .337 .752 0 .415 0 0" fill="#231f20"/>
<path transform="matrix(1,0,0,-1,103.0204,219.2752)" d="M0 0C0-.415 .337-.752 .752-.752 1.167-.752 1.503-.415 1.503 0 1.503 .415 1.167 .752 .752 .752 .337 .752 0 .415 0 0" fill="#231f20"/>
<path transform="matrix(1,0,0,-1,103.0204,231.05683)" d="M0 0C0-.415 .337-.752 .752-.752 1.167-.752 1.503-.415 1.503 0 1.503 .415 1.167 .752 .752 .752 .337 .752 0 .415 0 0" fill="#231f20"/>
<path transform="matrix(1,0,0,-1,91.2388,231.05683)" d="M0 0C0-.415 .337-.752 .752-.752 1.167-.752 1.503-.415 1.503 0 1.503 .415 1.167 .752 .752 .752 .337 .752 0 .415 0 0" fill="#231f20"/>
<path transform="matrix(1,0,0,-1,326.8719,372.4367)" d="M0 0C0-.415 .337-.752 .752-.752 1.167-.752 1.503-.415 1.503 0 1.503 .415 1.167 .752 .752 .752 .337 .752 0 .415 0 0" fill="#231f20"/>
<path transform="matrix(1,0,0,-1,326.8719,384.2184)" d="M0 0C0-.415 .337-.752 .752-.752 1.167-.752 1.503-.415 1.503 0 1.503 .415 1.167 .752 .752 .752 .337 .752 0 .415 0 0" fill="#231f20"/>
<path transform="matrix(1,0,0,-1,326.8719,396)" d="M0 0C0-.415 .337-.752 .752-.752 1.167-.752 1.503-.415 1.503 0 1.503 .415 1.167 .752 .752 .752 .337 .752 0 .415 0 0" fill="#231f20"/>
<path transform="matrix(1,0,0,-1,326.8719,407.7816)" d="M0 0C0-.415 .337-.752 .752-.752 1.167-.752 1.503-.415 1.503 0 1.503 .415 1.167 .752 .752 .752 .337 .752 0 .415 0 0" fill="#231f20"/>
<path transform="matrix(1,0,0,-1,326.8719,419.5633)" d="M0 0C0-.415 .337-.752 .752-.752 1.167-.752 1.503-.415 1.503 0 1.503 .415 1.167 .752 .752 .752 .337 .752 0 .415 0 0" fill="#231f20"/>
<path transform="matrix(1,0,0,-1,326.8719,431.345)" d="M0 0C0-.415 .337-.752 .752-.752 1.167-.752 1.503-.415 1.503 0 1.503 .415 1.167 .752 .752 .752 .337 .752 0 .415 0 0" fill="#231f20"/>
<path transform="matrix(1,0,0,-1,326.8719,443.1266)" d="M0 0C0-.415 .337-.752 .752-.752 1.167-.752 1.503-.415 1.503 0 1.503 .415 1.167 .752 .752 .752 .337 .752 0 .415 0 0" fill="#231f20"/>
<path transform="matrix(1,0,0,-1,326.8719,454.9083)" d="M0 0C0-.415 .337-.752 .752-.752 1.167-.752 1.503-.415 1.503 0 1.503 .415 1.167 .752 .752 .752 .337 .752 0 .415 0 0" fill="#231f20"/>
<path transform="matrix(1,0,0,-1,326.8719,466.6899)" d="M0 0C0-.415 .337-.752 .752-.752 1.167-.752 1.503-.415 1.503 0 1.503 .415 1.167 .752 .752 .752 .337 .752 0 .415 0 0" fill="#231f20"/>
<path transform="matrix(1,0,0,-1,326.8719,478.4716)" d="M0 0C0-.415 .337-.752 .752-.752 1.167-.752 1.503-.415 1.503 0 1.503 .415 1.167 .752 .752 .752 .337 .752 0 .415 0 0" fill="#231f20"/>
<path transform="matrix(1,0,0,-1,326.8719,490.2532)" d="M0 0C0-.415 .337-.752 .752-.752 1.167-.752 1.503-.415 1.503 0 1.503 .415 1.167 .752 .752 .752 .337 .752 0 .415 0 0" fill="#231f20"/>
<path transform="matrix(1,0,0,-1,315.0902,384.2184)" d="M0 0C0-.415 .337-.752 .752-.752 1.167-.752 1.503-.415 1.503 0 1.503 .415 1.167 .752 .752 .752 .337 .752 0 .415 0 0" fill="#231f20"/>
<path transform="matrix(1,0,0,-1,315.0902,396)" d="M0 0C0-.415 .337-.752 .752-.752 1.167-.752 1.503-.415 1.503 0 1.503 .415 1.167 .752 .752 .752 .337 .752 0 .415 0 0" fill="#231f20"/>
<path transform="matrix(1,0,0,-1,315.0902,407.7816)" d="M0 0C0-.415 .337-.752 .752-.752 1.167-.752 1.503-.415 1.503 0 1.503 .415 1.167 .752 .752 .752 .337 .752 0 .415 0 0" fill="#231f20"/>
<path transform="matrix(1,0,0,-1,315.0902,419.5633)" d="M0 0C0-.415 .337-.752 .752-.752 1.167-.752 1.503-.415 1.503 0 1.503 .415 1.167 .752 .752 .752 .337 .752 0 .415 0 0" fill="#231f20"/>
<path transform="matrix(1,0,0,-1,315.0902,431.345)" d="M0 0C0-.415 .337-.752 .752-.752 1.167-.752 1.503-.415 1.503 0 1.503 .415 1.167 .752 .752 .752 .337 .752 0 .415 0 0" fill="#231f20"/>
<path transform="matrix(1,0,0,-1,315.0902,443.1266)" d="M0 0C0-.415 .337-.752 .752-.752 1.167-.752 1.503-.415 1.503 0 1.503 .415 1.167 .752 .752 .752 .337 .752 0 .415 0 0" fill="#231f20"/>
<path transform="matrix(1,0,0,-1,315.0902,454.9083)" d="M0 0C0-.415 .337-.752 .752-.752 1.167-.752 1.503-.415 1.503 0 1.503 .415 1.167 .752 .752 .752 .337 .752 0 .415 0 0" fill="#231f20"/>
<path transform="matrix(1,0,0,-1,315.0902,466.6899)" d="M0 0C0-.415 .337-.752 .752-.752 1.167-.752 1.503-.415 1.503 0 1.503 .415 1.167 .752 .752 .752 .337 .752 0 .415 0 0" fill="#231f20"/>
<path transform="matrix(1,0,0,-1,315.0902,478.4716)" d="M0 0C0-.415 .337-.752 .752-.752 1.167-.752 1.503-.415 1.503 0 1.503 .415 1.167 .752 .752 .752 .337 .752 0 .415 0 0" fill="#231f20"/>
<path transform="matrix(1,0,0,-1,315.0902,490.2532)" d="M0 0C0-.415 .337-.752 .752-.752 1.167-.752 1.503-.415 1.503 0 1.503 .415 1.167 .752 .752 .752 .337 .752 0 .415 0 0" fill="#231f20"/>
<path transform="matrix(1,0,0,-1,315.0902,502.0349)" d="M0 0C0-.415 .337-.752 .752-.752 1.167-.752 1.503-.415 1.503 0 1.503 .415 1.167 .752 .752 .752 .337 .752 0 .415 0 0" fill="#231f20"/>
<path transform="matrix(1,0,0,-1,303.3086,396)" d="M0 0C0-.415 .337-.752 .752-.752 1.167-.752 1.503-.415 1.503 0 1.503 .415 1.167 .752 .752 .752 .337 .752 0 .415 0 0" fill="#231f20"/>
<path transform="matrix(1,0,0,-1,303.3086,407.7816)" d="M0 0C0-.415 .337-.752 .752-.752 1.167-.752 1.503-.415 1.503 0 1.503 .415 1.167 .752 .752 .752 .337 .752 0 .415 0 0" fill="#231f20"/>
<path transform="matrix(1,0,0,-1,303.3086,419.5633)" d="M0 0C0-.415 .337-.752 .752-.752 1.167-.752 1.503-.415 1.503 0 1.503 .415 1.167 .752 .752 .752 .337 .752 0 .415 0 0" fill="#231f20"/>
<path transform="matrix(1,0,0,-1,303.3086,431.345)" d="M0 0C0-.415 .337-.752 .752-.752 1.167-.752 1.503-.415 1.503 0 1.503 .415 1.167 .752 .752 .752 .337 .752 0 .415 0 0" fill="#231f20"/>
<path transform="matrix(1,0,0,-1,303.3086,443.1266)" d="M0 0C0-.415 .337-.752 .752-.752 1.167-.752 1.503-.415 1.503 0 1.503 .415 1.167 .752 .752 .752 .337 .752 0 .415 0 0" fill="#231f20"/>
<path transform="matrix(1,0,0,-1,303.3086,454.9083)" d="M0 0C0-.415 .337-.752 .752-.752 1.167-.752 1.503-.415 1.503 0 1.503 .415 1.167 .752 .752 .752 .337 .752 0 .415 0 0" fill="#231f20"/>
<path transform="matrix(1,0,0,-1,303.3086,466.6899)" d="M0 0C0-.415 .337-.752 .752-.752 1.167-.752 1.503-.415 1.503 0 1.503 .415 1.167 .752 .752 .752 .337 .752 0 .415 0 0" fill="#231f20"/>
<path transform="matrix(1,0,0,-1,303.3086,478.4716)" d="M0 0C0-.415 .337-.752 .752-.752 1.167-.752 1.503-.415 1.503 0 1.503 .415 1.167 .752 .752 .752 .337 .752 0 .415 0 0" fill="#231f20"/>
<path transform="matrix(1,0,0,-1,303.3086,490.2532)" d="M0 0C0-.415 .337-.752 .752-.752 1.167-.752 1.503-.415 1.503 0 1.503 .415 1.167 .752 .752 .752 .337 .752 0 .415 0 0" fill="#231f20"/>
<path transform="matrix(1,0,0,-1,303.3086,502.0349)" d="M0 0C0-.415 .337-.752 .752-.752 1.167-.752 1.503-.415 1.503 0 1.503 .415 1.167 .752 .752 .752 .337 .752 0 .415 0 0" fill="#231f20"/>
<path transform="matrix(1,0,0,-1,303.3086,513.8165)" d="M0 0C0-.415 .337-.752 .752-.752 1.167-.752 1.503-.415 1.503 0 1.503 .415 1.167 .752 .752 .752 .337 .752 0 .415 0 0" fill="#231f20"/>
<path transform="matrix(1,0,0,-1,291.5269,419.5633)" d="M0 0C0-.415 .337-.752 .752-.752 1.167-.752 1.503-.415 1.503 0 1.503 .415 1.167 .752 .752 .752 .337 .752 0 .415 0 0" fill="#231f20"/>
<path transform="matrix(1,0,0,-1,291.5269,431.345)" d="M0 0C0-.415 .337-.752 .752-.752 1.167-.752 1.503-.415 1.503 0 1.503 .415 1.167 .752 .752 .752 .337 .752 0 .415 0 0" fill="#231f20"/>
<path transform="matrix(1,0,0,-1,291.5269,443.1266)" d="M0 0C0-.415 .337-.752 .752-.752 1.167-.752 1.503-.415 1.503 0 1.503 .415 1.167 .752 .752 .752 .337 .752 0 .415 0 0" fill="#231f20"/>
<path transform="matrix(1,0,0,-1,291.5269,454.9083)" d="M0 0C0-.415 .337-.752 .752-.752 1.167-.752 1.503-.415 1.503 0 1.503 .415 1.167 .752 .752 .752 .337 .752 0 .415 0 0" fill="#231f20"/>
<path transform="matrix(1,0,0,-1,291.5269,466.6899)" d="M0 0C0-.415 .337-.752 .752-.752 1.167-.752 1.503-.415 1.503 0 1.503 .415 1.167 .752 .752 .752 .337 .752 0 .415 0 0" fill="#231f20"/>
<path transform="matrix(1,0,0,-1,291.5269,478.4716)" d="M0 0C0-.415 .337-.752 .752-.752 1.167-.752 1.503-.415 1.503 0 1.503 .415 1.167 .752 .752 .752 .337 .752 0 .415 0 0" fill="#231f20"/>
<path transform="matrix(1,0,0,-1,291.5269,490.2532)" d="M0 0C0-.415 .337-.752 .752-.752 1.167-.752 1.503-.415 1.503 0 1.503 .415 1.167 .752 .752 .752 .337 .752 0 .415 0 0" fill="#231f20"/>
<path transform="matrix(1,0,0,-1,291.5269,502.0349)" d="M0 0C0-.415 .337-.752 .752-.752 1.167-.752 1.503-.415 1.503 0 1.503 .415 1.167 .752 .752 .752 .337 .752 0 .415 0 0" fill="#231f20"/>
<path transform="matrix(1,0,0,-1,291.5269,513.8165)" d="M0 0C0-.415 .337-.752 .752-.752 1.167-.752 1.503-.415 1.503 0 1.503 .415 1.167 .752 .752 .752 .337 .752 0 .415 0 0" fill="#231f20"/>
<path transform="matrix(1,0,0,-1,279.7453,407.7816)" d="M0 0C0-.415 .337-.752 .752-.752 1.167-.752 1.503-.415 1.503 0 1.503 .415 1.167 .752 .752 .752 .337 .752 0 .415 0 0" fill="#231f20"/>
<path transform="matrix(1,0,0,-1,279.7453,419.5633)" d="M0 0C0-.415 .337-.752 .752-.752 1.167-.752 1.503-.415 1.503 0 1.503 .415 1.167 .752 .752 .752 .337 .752 0 .415 0 0" fill="#231f20"/>
<path transform="matrix(1,0,0,-1,279.7453,431.345)" d="M0 0C0-.415 .337-.752 .752-.752 1.167-.752 1.503-.415 1.503 0 1.503 .415 1.167 .752 .752 .752 .337 .752 0 .415 0 0" fill="#231f20"/>
<path transform="matrix(1,0,0,-1,279.7453,443.1266)" d="M0 0C0-.415 .337-.752 .752-.752 1.167-.752 1.503-.415 1.503 0 1.503 .415 1.167 .752 .752 .752 .337 .752 0 .415 0 0" fill="#231f20"/>
<path transform="matrix(1,0,0,-1,279.7453,454.9083)" d="M0 0C0-.415 .337-.752 .752-.752 1.167-.752 1.503-.415 1.503 0 1.503 .415 1.167 .752 .752 .752 .337 .752 0 .415 0 0" fill="#231f20"/>
<path transform="matrix(1,0,0,-1,279.7453,466.6899)" d="M0 0C0-.415 .337-.752 .752-.752 1.167-.752 1.503-.415 1.503 0 1.503 .415 1.167 .752 .752 .752 .337 .752 0 .415 0 0" fill="#231f20"/>
<path transform="matrix(1,0,0,-1,279.7453,478.4716)" d="M0 0C0-.415 .337-.752 .752-.752 1.167-.752 1.503-.415 1.503 0 1.503 .415 1.167 .752 .752 .752 .337 .752 0 .415 0 0" fill="#231f20"/>
<path transform="matrix(1,0,0,-1,279.7453,490.2532)" d="M0 0C0-.415 .337-.752 .752-.752 1.167-.752 1.503-.415 1.503 0 1.503 .415 1.167 .752 .752 .752 .337 .752 0 .415 0 0" fill="#231f20"/>
<path transform="matrix(1,0,0,-1,279.7453,502.0349)" d="M0 0C0-.415 .337-.752 .752-.752 1.167-.752 1.503-.415 1.503 0 1.503 .415 1.167 .752 .752 .752 .337 .752 0 .415 0 0" fill="#231f20"/>
<path transform="matrix(1,0,0,-1,279.7453,513.8165)" d="M0 0C0-.415 .337-.752 .752-.752 1.167-.752 1.503-.415 1.503 0 1.503 .415 1.167 .752 .752 .752 .337 .752 0 .415 0 0" fill="#231f20"/>
<path transform="matrix(1,0,0,-1,279.7453,549.1615)" d="M0 0C0-.415 .337-.752 .752-.752 1.167-.752 1.503-.415 1.503 0 1.503 .415 1.167 .752 .752 .752 .337 .752 0 .415 0 0" fill="#231f20"/>
<path transform="matrix(1,0,0,-1,267.9636,419.5633)" d="M0 0C0-.415 .337-.752 .752-.752 1.167-.752 1.503-.415 1.503 0 1.503 .415 1.167 .752 .752 .752 .337 .752 0 .415 0 0" fill="#231f20"/>
<path transform="matrix(1,0,0,-1,267.9636,431.345)" d="M0 0C0-.415 .337-.752 .752-.752 1.167-.752 1.503-.415 1.503 0 1.503 .415 1.167 .752 .752 .752 .337 .752 0 .415 0 0" fill="#231f20"/>
<path transform="matrix(1,0,0,-1,267.9636,443.1266)" d="M0 0C0-.415 .337-.752 .752-.752 1.167-.752 1.503-.415 1.503 0 1.503 .415 1.167 .752 .752 .752 .337 .752 0 .415 0 0" fill="#231f20"/>
<path transform="matrix(1,0,0,-1,267.9636,454.9083)" d="M0 0C0-.415 .337-.752 .752-.752 1.167-.752 1.503-.415 1.503 0 1.503 .415 1.167 .752 .752 .752 .337 .752 0 .415 0 0" fill="#231f20"/>
<path transform="matrix(1,0,0,-1,267.9636,466.6899)" d="M0 0C0-.415 .337-.752 .752-.752 1.167-.752 1.503-.415 1.503 0 1.503 .415 1.167 .752 .752 .752 .337 .752 0 .415 0 0" fill="#231f20"/>
<path transform="matrix(1,0,0,-1,267.9636,478.4716)" d="M0 0C0-.415 .337-.752 .752-.752 1.167-.752 1.503-.415 1.503 0 1.503 .415 1.167 .752 .752 .752 .337 .752 0 .415 0 0" fill="#231f20"/>
<path transform="matrix(1,0,0,-1,267.9636,490.2532)" d="M0 0C0-.415 .337-.752 .752-.752 1.167-.752 1.503-.415 1.503 0 1.503 .415 1.167 .752 .752 .752 .337 .752 0 .415 0 0" fill="#231f20"/>
<path transform="matrix(1,0,0,-1,267.9636,502.0349)" d="M0 0C0-.415 .337-.752 .752-.752 1.167-.752 1.503-.415 1.503 0 1.503 .415 1.167 .752 .752 .752 .337 .752 0 .415 0 0" fill="#231f20"/>
<path transform="matrix(1,0,0,-1,267.9636,537.3798)" d="M0 0C0-.415 .337-.752 .752-.752 1.167-.752 1.503-.415 1.503 0 1.503 .415 1.167 .752 .752 .752 .337 .752 0 .415 0 0" fill="#231f20"/>
<path transform="matrix(1,0,0,-1,267.9636,549.1615)" d="M0 0C0-.415 .337-.752 .752-.752 1.167-.752 1.503-.415 1.503 0 1.503 .415 1.167 .752 .752 .752 .337 .752 0 .415 0 0" fill="#231f20"/>
<path transform="matrix(1,0,0,-1,267.9636,560.9431)" d="M0 0C0-.415 .337-.752 .752-.752 1.167-.752 1.503-.415 1.503 0 1.503 .415 1.167 .752 .752 .752 .337 .752 0 .415 0 0" fill="#231f20"/>
<path transform="matrix(1,0,0,-1,267.9636,572.7248)" d="M0 0C0-.415 .337-.752 .752-.752 1.167-.752 1.503-.415 1.503 0 1.503 .415 1.167 .752 .752 .752 .337 .752 0 .415 0 0" fill="#231f20"/>
<path transform="matrix(1,0,0,-1,256.1819,396)" d="M0 0C0-.415 .337-.752 .752-.752 1.167-.752 1.503-.415 1.503 0 1.503 .415 1.167 .752 .752 .752 .337 .752 0 .415 0 0" fill="#231f20"/>
<path transform="matrix(1,0,0,-1,256.1819,407.7816)" d="M0 0C0-.415 .337-.752 .752-.752 1.167-.752 1.503-.415 1.503 0 1.503 .415 1.167 .752 .752 .752 .337 .752 0 .415 0 0" fill="#231f20"/>
<path transform="matrix(1,0,0,-1,256.1819,419.5633)" d="M0 0C0-.415 .337-.752 .752-.752 1.167-.752 1.503-.415 1.503 0 1.503 .415 1.167 .752 .752 .752 .337 .752 0 .415 0 0" fill="#231f20"/>
<path transform="matrix(1,0,0,-1,256.1819,431.345)" d="M0 0C0-.415 .337-.752 .752-.752 1.167-.752 1.503-.415 1.503 0 1.503 .415 1.167 .752 .752 .752 .337 .752 0 .415 0 0" fill="#231f20"/>
<path transform="matrix(1,0,0,-1,256.1819,443.1266)" d="M0 0C0-.415 .337-.752 .752-.752 1.167-.752 1.503-.415 1.503 0 1.503 .415 1.167 .752 .752 .752 .337 .752 0 .415 0 0" fill="#231f20"/>
<path transform="matrix(1,0,0,-1,256.1819,454.9083)" d="M0 0C0-.415 .337-.752 .752-.752 1.167-.752 1.503-.415 1.503 0 1.503 .415 1.167 .752 .752 .752 .337 .752 0 .415 0 0" fill="#231f20"/>
<path transform="matrix(1,0,0,-1,256.1819,466.6899)" d="M0 0C0-.415 .337-.752 .752-.752 1.167-.752 1.503-.415 1.503 0 1.503 .415 1.167 .752 .752 .752 .337 .752 0 .415 0 0" fill="#231f20"/>
<path transform="matrix(1,0,0,-1,256.1819,478.4716)" d="M0 0C0-.415 .337-.752 .752-.752 1.167-.752 1.503-.415 1.503 0 1.503 .415 1.167 .752 .752 .752 .337 .752 0 .415 0 0" fill="#231f20"/>
<path transform="matrix(1,0,0,-1,256.1819,490.2532)" d="M0 0C0-.415 .337-.752 .752-.752 1.167-.752 1.503-.415 1.503 0 1.503 .415 1.167 .752 .752 .752 .337 .752 0 .415 0 0" fill="#231f20"/>
<path transform="matrix(1,0,0,-1,256.1819,502.0349)" d="M0 0C0-.415 .337-.752 .752-.752 1.167-.752 1.503-.415 1.503 0 1.503 .415 1.167 .752 .752 .752 .337 .752 0 .415 0 0" fill="#231f20"/>
<path transform="matrix(1,0,0,-1,256.1819,560.9431)" d="M0 0C0-.415 .337-.752 .752-.752 1.167-.752 1.503-.415 1.503 0 1.503 .415 1.167 .752 .752 .752 .337 .752 0 .415 0 0" fill="#231f20"/>
<path transform="matrix(1,0,0,-1,256.1819,572.7248)" d="M0 0C0-.415 .337-.752 .752-.752 1.167-.752 1.503-.415 1.503 0 1.503 .415 1.167 .752 .752 .752 .337 .752 0 .415 0 0" fill="#231f20"/>
<path transform="matrix(1,0,0,-1,244.4003,419.5633)" d="M0 0C0-.415 .337-.752 .752-.752 1.167-.752 1.503-.415 1.503 0 1.503 .415 1.167 .752 .752 .752 .337 .752 0 .415 0 0" fill="#231f20"/>
<path transform="matrix(1,0,0,-1,244.4003,431.345)" d="M0 0C0-.415 .337-.752 .752-.752 1.167-.752 1.503-.415 1.503 0 1.503 .415 1.167 .752 .752 .752 .337 .752 0 .415 0 0" fill="#231f20"/>
<path transform="matrix(1,0,0,-1,244.4003,454.9083)" d="M0 0C0-.415 .337-.752 .752-.752 1.167-.752 1.503-.415 1.503 0 1.503 .415 1.167 .752 .752 .752 .337 .752 0 .415 0 0" fill="#231f20"/>
<path transform="matrix(1,0,0,-1,244.4003,466.6899)" d="M0 0C0-.415 .337-.752 .752-.752 1.167-.752 1.503-.415 1.503 0 1.503 .415 1.167 .752 .752 .752 .337 .752 0 .415 0 0" fill="#231f20"/>
<path transform="matrix(1,0,0,-1,244.4003,478.4716)" d="M0 0C0-.415 .337-.752 .752-.752 1.167-.752 1.503-.415 1.503 0 1.503 .415 1.167 .752 .752 .752 .337 .752 0 .415 0 0" fill="#231f20"/>
<path transform="matrix(1,0,0,-1,244.4003,490.2532)" d="M0 0C0-.415 .337-.752 .752-.752 1.167-.752 1.503-.415 1.503 0 1.503 .415 1.167 .752 .752 .752 .337 .752 0 .415 0 0" fill="#231f20"/>
<path transform="matrix(1,0,0,-1,244.4003,502.0349)" d="M0 0C0-.415 .337-.752 .752-.752 1.167-.752 1.503-.415 1.503 0 1.503 .415 1.167 .752 .752 .752 .337 .752 0 .415 0 0" fill="#231f20"/>
<path transform="matrix(1,0,0,-1,244.4003,560.9431)" d="M0 0C0-.415 .337-.752 .752-.752 1.167-.752 1.503-.415 1.503 0 1.503 .415 1.167 .752 .752 .752 .337 .752 0 .415 0 0" fill="#231f20"/>
<path transform="matrix(1,0,0,-1,232.6186,431.345)" d="M0 0C0-.415 .337-.752 .752-.752 1.167-.752 1.503-.415 1.503 0 1.503 .415 1.167 .752 .752 .752 .337 .752 0 .415 0 0" fill="#231f20"/>
<path transform="matrix(1,0,0,-1,232.6186,454.9083)" d="M0 0C0-.415 .337-.752 .752-.752 1.167-.752 1.503-.415 1.503 0 1.503 .415 1.167 .752 .752 .752 .337 .752 0 .415 0 0" fill="#231f20"/>
<path transform="matrix(1,0,0,-1,232.6186,466.6899)" d="M0 0C0-.415 .337-.752 .752-.752 1.167-.752 1.503-.415 1.503 0 1.503 .415 1.167 .752 .752 .752 .337 .752 0 .415 0 0" fill="#231f20"/>
<path transform="matrix(1,0,0,-1,232.6186,478.4716)" d="M0 0C0-.415 .337-.752 .752-.752 1.167-.752 1.503-.415 1.503 0 1.503 .415 1.167 .752 .752 .752 .337 .752 0 .415 0 0" fill="#231f20"/>
<path transform="matrix(1,0,0,-1,232.6186,502.0349)" d="M0 0C0-.415 .337-.752 .752-.752 1.167-.752 1.503-.415 1.503 0 1.503 .415 1.167 .752 .752 .752 .337 .752 0 .415 0 0" fill="#231f20"/>
<path transform="matrix(1,0,0,-1,232.6186,560.9431)" d="M0 0C0-.415 .337-.752 .752-.752 1.167-.752 1.503-.415 1.503 0 1.503 .415 1.167 .752 .752 .752 .337 .752 0 .415 0 0" fill="#231f20"/>
<path transform="matrix(1,0,0,-1,220.837,454.9083)" d="M0 0C0-.415 .337-.752 .752-.752 1.167-.752 1.503-.415 1.503 0 1.503 .415 1.167 .752 .752 .752 .337 .752 0 .415 0 0" fill="#231f20"/>
<path transform="matrix(1,0,0,-1,220.837,466.6899)" d="M0 0C0-.415 .337-.752 .752-.752 1.167-.752 1.503-.415 1.503 0 1.503 .415 1.167 .752 .752 .752 .337 .752 0 .415 0 0" fill="#231f20"/>
<path transform="matrix(1,0,0,-1,220.837,478.4716)" d="M0 0C0-.415 .337-.752 .752-.752 1.167-.752 1.503-.415 1.503 0 1.503 .415 1.167 .752 .752 .752 .337 .752 0 .415 0 0" fill="#231f20"/>
<path transform="matrix(1,0,0,-1,209.0553,454.9083)" d="M0 0C0-.415 .337-.752 .752-.752 1.167-.752 1.503-.415 1.503 0 1.503 .415 1.167 .752 .752 .752 .337 .752 0 .415 0 0" fill="#231f20"/>
<path transform="matrix(1,0,0,-1,209.0553,466.6899)" d="M0 0C0-.415 .337-.752 .752-.752 1.167-.752 1.503-.415 1.503 0 1.503 .415 1.167 .752 .752 .752 .337 .752 0 .415 0 0" fill="#231f20"/>
<path transform="matrix(1,0,0,-1,197.2737,466.6899)" d="M0 0C0-.415 .337-.752 .752-.752 1.167-.752 1.503-.415 1.503 0 1.503 .415 1.167 .752 .752 .752 .337 .752 0 .415 0 0" fill="#231f20"/>
<path transform="matrix(1,0,0,-1,185.492,466.6899)" d="M0 0C0-.415 .337-.752 .752-.752 1.167-.752 1.503-.415 1.503 0 1.503 .415 1.167 .752 .752 .752 .337 .752 0 .415 0 0" fill="#231f20"/>
<path transform="matrix(1,0,0,-1,138.3654,737.66799)" d="M0 0C0-.415 .337-.752 .752-.752 1.167-.752 1.503-.415 1.503 0 1.503 .415 1.167 .752 .752 .752 .337 .752 0 .415 0 0" fill="#231f20"/>
<path transform="matrix(1,0,0,-1,114.8021,749.4496)" d="M0 0C0-.415 .337-.752 .752-.752 1.167-.752 1.503-.415 1.503 0 1.503 .415 1.167 .752 .752 .752 .337 .752 0 .415 0 0" fill="#231f20"/>
<path transform="matrix(1,0,0,-1,103.0204,737.66799)" d="M0 0C0-.415 .337-.752 .752-.752 1.167-.752 1.503-.415 1.503 0 1.503 .415 1.167 .752 .752 .752 .337 .752 0 .415 0 0" fill="#231f20"/>
<path transform="matrix(1,0,0,-1,103.0204,749.4496)" d="M0 0C0-.415 .337-.752 .752-.752 1.167-.752 1.503-.415 1.503 0 1.503 .415 1.167 .752 .752 .752 .337 .752 0 .415 0 0" fill="#231f20"/>
<path transform="matrix(1,0,0,-1,103.0204,761.2313)" d="M0 0C0-.415 .337-.752 .752-.752 1.167-.752 1.503-.415 1.503 0 1.503 .415 1.167 .752 .752 .752 .337 .752 0 .415 0 0" fill="#231f20"/>
<path transform="matrix(1,0,0,-1,91.2388,737.66799)" d="M0 0C0-.415 .337-.752 .752-.752 1.167-.752 1.503-.415 1.503 0 1.503 .415 1.167 .752 .752 .752 .337 .752 0 .415 0 0" fill="#231f20"/>
<path transform="matrix(1,0,0,-1,91.2388,749.4496)" d="M0 0C0-.415 .337-.752 .752-.752 1.167-.752 1.503-.415 1.503 0 1.503 .415 1.167 .752 .752 .752 .337 .752 0 .415 0 0" fill="#231f20"/>
<path transform="matrix(1,0,0,-1,79.4572,749.4496)" d="M0 0C0-.415 .337-.752 .752-.752 1.167-.752 1.503-.415 1.503 0 1.503 .415 1.167 .752 .752 .752 .337 .752 0 .415 0 0" fill="#231f20"/>
<path transform="matrix(1,0,0,-1,562.5049,54.33197)" d="M0 0C0-.415 .337-.752 .752-.752 1.167-.752 1.503-.415 1.503 0 1.503 .415 1.167 .752 .752 .752 .337 .752 0 .415 0 0" fill="#231f20"/>
<path transform="matrix(1,0,0,-1,550.7233,42.550416)" d="M0 0C0-.415 .337-.752 .752-.752 1.167-.752 1.503-.415 1.503 0 1.503 .415 1.167 .752 .752 .752 .337 .752 0 .415 0 0" fill="#231f20"/>
<path transform="matrix(1,0,0,-1,550.7233,54.33197)" d="M0 0C0-.415 .337-.752 .752-.752 1.167-.752 1.503-.415 1.503 0 1.503 .415 1.167 .752 .752 .752 .337 .752 0 .415 0 0" fill="#231f20"/>
<path transform="matrix(1,0,0,-1,538.9417,30.768677)" d="M0 0C0-.415 .337-.752 .752-.752 1.167-.752 1.503-.415 1.503 0 1.503 .415 1.167 .752 .752 .752 .337 .752 0 .415 0 0" fill="#231f20"/>
<path transform="matrix(1,0,0,-1,538.9417,42.550416)" d="M0 0C0-.415 .337-.752 .752-.752 1.167-.752 1.503-.415 1.503 0 1.503 .415 1.167 .752 .752 .752 .337 .752 0 .415 0 0" fill="#231f20"/>
<path transform="matrix(1,0,0,-1,538.9417,54.33197)" d="M0 0C0-.415 .337-.752 .752-.752 1.167-.752 1.503-.415 1.503 0 1.503 .415 1.167 .752 .752 .752 .337 .752 0 .415 0 0" fill="#231f20"/>
<path transform="matrix(1,0,0,-1,527.16,42.550416)" d="M0 0C0-.415 .337-.752 .752-.752 1.167-.752 1.503-.415 1.503 0 1.503 .415 1.167 .752 .752 .752 .337 .752 0 .415 0 0" fill="#231f20"/>
<path transform="matrix(1,0,0,-1,515.3784,42.550416)" d="M0 0C0-.415 .337-.752 .752-.752 1.167-.752 1.503-.415 1.503 0 1.503 .415 1.167 .752 .752 .752 .337 .752 0 .415 0 0" fill="#231f20"/>
<path transform="matrix(1,0,0,-1,491.815,89.677)" d="M0 0C0-.415 .337-.752 .752-.752 1.167-.752 1.503-.415 1.503 0 1.503 .415 1.167 .752 .752 .752 .337 .752 0 .415 0 0" fill="#231f20"/>
<path transform="matrix(1,0,0,-1,480.0334,30.768677)" d="M0 0C0-.415 .337-.752 .752-.752 1.167-.752 1.503-.415 1.503 0 1.503 .415 1.167 .752 .752 .752 .337 .752 0 .415 0 0" fill="#231f20"/>
<path transform="matrix(1,0,0,-1,480.0334,42.550416)" d="M0 0C0-.415 .337-.752 .752-.752 1.167-.752 1.503-.415 1.503 0 1.503 .415 1.167 .752 .752 .752 .337 .752 0 .415 0 0" fill="#231f20"/>
<path transform="matrix(1,0,0,-1,480.0334,54.33197)" d="M0 0C0-.415 .337-.752 .752-.752 1.167-.752 1.503-.415 1.503 0 1.503 .415 1.167 .752 .752 .752 .337 .752 0 .415 0 0" fill="#231f20"/>
<path transform="matrix(1,0,0,-1,480.0334,66.11371)" d="M0 0C0-.415 .337-.752 .752-.752 1.167-.752 1.503-.415 1.503 0 1.503 .415 1.167 .752 .752 .752 .337 .752 0 .415 0 0" fill="#231f20"/>
<path transform="matrix(1,0,0,-1,480.0334,89.677)" d="M0 0C0-.415 .337-.752 .752-.752 1.167-.752 1.503-.415 1.503 0 1.503 .415 1.167 .752 .752 .752 .337 .752 0 .415 0 0" fill="#231f20"/>
<path transform="matrix(1,0,0,-1,468.2517,42.550416)" d="M0 0C0-.415 .337-.752 .752-.752 1.167-.752 1.503-.415 1.503 0 1.503 .415 1.167 .752 .752 .752 .337 .752 0 .415 0 0" fill="#231f20"/>
<path transform="matrix(1,0,0,-1,468.2517,54.33197)" d="M0 0C0-.415 .337-.752 .752-.752 1.167-.752 1.503-.415 1.503 0 1.503 .415 1.167 .752 .752 .752 .337 .752 0 .415 0 0" fill="#231f20"/>
<path transform="matrix(1,0,0,-1,468.2517,66.11371)" d="M0 0C0-.415 .337-.752 .752-.752 1.167-.752 1.503-.415 1.503 0 1.503 .415 1.167 .752 .752 .752 .337 .752 0 .415 0 0" fill="#231f20"/>
<path transform="matrix(1,0,0,-1,468.2517,77.895328)" d="M0 0C0-.415 .337-.752 .752-.752 1.167-.752 1.503-.415 1.503 0 1.503 .415 1.167 .752 .752 .752 .337 .752 0 .415 0 0" fill="#231f20"/>
<path transform="matrix(1,0,0,-1,468.2517,89.677)" d="M0 0C0-.415 .337-.752 .752-.752 1.167-.752 1.503-.415 1.503 0 1.503 .415 1.167 .752 .752 .752 .337 .752 0 .415 0 0" fill="#231f20"/>
<path transform="matrix(1,0,0,-1,456.4701,54.33197)" d="M0 0C0-.415 .337-.752 .752-.752 1.167-.752 1.503-.415 1.503 0 1.503 .415 1.167 .752 .752 .752 .337 .752 0 .415 0 0" fill="#231f20"/>
<path transform="matrix(1,0,0,-1,456.4701,66.11371)" d="M0 0C0-.415 .337-.752 .752-.752 1.167-.752 1.503-.415 1.503 0 1.503 .415 1.167 .752 .752 .752 .337 .752 0 .415 0 0" fill="#231f20"/>
<path transform="matrix(1,0,0,-1,456.4701,77.895328)" d="M0 0C0-.415 .337-.752 .752-.752 1.167-.752 1.503-.415 1.503 0 1.503 .415 1.167 .752 .752 .752 .337 .752 0 .415 0 0" fill="#231f20"/>
<path transform="matrix(1,0,0,-1,444.6884,77.895328)" d="M0 0C0-.415 .337-.752 .752-.752 1.167-.752 1.503-.415 1.503 0 1.503 .415 1.167 .752 .752 .752 .337 .752 0 .415 0 0" fill="#231f20"/>
<path transform="matrix(1,0,0,-1,432.9068,77.895328)" d="M0 0C0-.415 .337-.752 .752-.752 1.167-.752 1.503-.415 1.503 0 1.503 .415 1.167 .752 .752 .752 .337 .752 0 .415 0 0" fill="#231f20"/>
<path transform="matrix(1,0,0,-1,421.1251,66.11371)" d="M0 0C0-.415 .337-.752 .752-.752 1.167-.752 1.503-.415 1.503 0 1.503 .415 1.167 .752 .752 .752 .337 .752 0 .415 0 0" fill="#231f20"/>
<path transform="matrix(1,0,0,-1,421.1251,77.895328)" d="M0 0C0-.415 .337-.752 .752-.752 1.167-.752 1.503-.415 1.503 0 1.503 .415 1.167 .752 .752 .752 .337 .752 0 .415 0 0" fill="#231f20"/>
<path transform="matrix(1,0,0,-1,409.3434,77.895328)" d="M0 0C0-.415 .337-.752 .752-.752 1.167-.752 1.503-.415 1.503 0 1.503 .415 1.167 .752 .752 .752 .337 .752 0 .415 0 0" fill="#231f20"/>
<path transform="matrix(1,0,0,-1,491.815,101.45868)" d="M0 0C0-.415 .337-.752 .752-.752 1.167-.752 1.503-.415 1.503 0 1.503 .415 1.167 .752 .752 .752 .337 .752 0 .415 0 0" fill="#231f20"/>
<path transform="matrix(1,0,0,-1,480.0334,101.45868)" d="M0 0C0-.415 .337-.752 .752-.752 1.167-.752 1.503-.415 1.503 0 1.503 .415 1.167 .752 .752 .752 .337 .752 0 .415 0 0" fill="#231f20"/>
<path transform="matrix(1,0,0,-1,480.0334,113.240299)" d="M0 0C0-.415 .337-.752 .752-.752 1.167-.752 1.503-.415 1.503 0 1.503 .415 1.167 .752 .752 .752 .337 .752 0 .415 0 0" fill="#231f20"/>
<path transform="matrix(1,0,0,-1,468.2517,101.45868)" d="M0 0C0-.415 .337-.752 .752-.752 1.167-.752 1.503-.415 1.503 0 1.503 .415 1.167 .752 .752 .752 .337 .752 0 .415 0 0" fill="#231f20"/>
<path transform="matrix(1,0,0,-1,456.4701,101.45868)" d="M0 0C0-.415 .337-.752 .752-.752 1.167-.752 1.503-.415 1.503 0 1.503 .415 1.167 .752 .752 .752 .337 .752 0 .415 0 0" fill="#231f20"/>
<path transform="matrix(1,0,0,-1,456.4701,301.7468)" d="M0 0C0-.415 .337-.752 .752-.752 1.167-.752 1.503-.415 1.503 0 1.503 .415 1.167 .752 .752 .752 .337 .752 0 .415 0 0" fill="#231f20"/>
<path transform="matrix(1,0,0,-1,456.4701,348.8734)" d="M0 0C0-.415 .337-.752 .752-.752 1.167-.752 1.503-.415 1.503 0 1.503 .415 1.167 .752 .752 .752 .337 .752 0 .415 0 0" fill="#231f20"/>
<path transform="matrix(1,0,0,-1,444.6884,136.80359)" d="M0 0C0-.415 .337-.752 .752-.752 1.167-.752 1.503-.415 1.503 0 1.503 .415 1.167 .752 .752 .752 .337 .752 0 .415 0 0" fill="#231f20"/>
<path transform="matrix(1,0,0,-1,444.6884,301.7468)" d="M0 0C0-.415 .337-.752 .752-.752 1.167-.752 1.503-.415 1.503 0 1.503 .415 1.167 .752 .752 .752 .337 .752 0 .415 0 0" fill="#231f20"/>
<path transform="matrix(1,0,0,-1,444.6884,313.5284)" d="M0 0C0-.415 .337-.752 .752-.752 1.167-.752 1.503-.415 1.503 0 1.503 .415 1.167 .752 .752 .752 .337 .752 0 .415 0 0" fill="#231f20"/>
<path transform="matrix(1,0,0,-1,444.6884,348.8734)" d="M0 0C0-.415 .337-.752 .752-.752 1.167-.752 1.503-.415 1.503 0 1.503 .415 1.167 .752 .752 .752 .337 .752 0 .415 0 0" fill="#231f20"/>
<path transform="matrix(1,0,0,-1,432.9068,125.02197)" d="M0 0C0-.415 .337-.752 .752-.752 1.167-.752 1.503-.415 1.503 0 1.503 .415 1.167 .752 .752 .752 .337 .752 0 .415 0 0" fill="#231f20"/>
<path transform="matrix(1,0,0,-1,432.9068,219.2752)" d="M0 0C0-.415 .337-.752 .752-.752 1.167-.752 1.503-.415 1.503 0 1.503 .415 1.167 .752 .752 .752 .337 .752 0 .415 0 0" fill="#231f20"/>
<path transform="matrix(1,0,0,-1,432.9068,242.8385)" d="M0 0C0-.415 .337-.752 .752-.752 1.167-.752 1.503-.415 1.503 0 1.503 .415 1.167 .752 .752 .752 .337 .752 0 .415 0 0" fill="#231f20"/>
<path transform="matrix(1,0,0,-1,432.9068,348.8734)" d="M0 0C0-.415 .337-.752 .752-.752 1.167-.752 1.503-.415 1.503 0 1.503 .415 1.167 .752 .752 .752 .337 .752 0 .415 0 0" fill="#231f20"/>
<path transform="matrix(1,0,0,-1,432.9068,360.655)" d="M0 0C0-.415 .337-.752 .752-.752 1.167-.752 1.503-.415 1.503 0 1.503 .415 1.167 .752 .752 .752 .337 .752 0 .415 0 0" fill="#231f20"/>
<path transform="matrix(1,0,0,-1,421.1251,125.02197)" d="M0 0C0-.415 .337-.752 .752-.752 1.167-.752 1.503-.415 1.503 0 1.503 .415 1.167 .752 .752 .752 .337 .752 0 .415 0 0" fill="#231f20"/>
<path transform="matrix(1,0,0,-1,421.1251,136.80359)" d="M0 0C0-.415 .337-.752 .752-.752 1.167-.752 1.503-.415 1.503 0 1.503 .415 1.167 .752 .752 .752 .337 .752 0 .415 0 0" fill="#231f20"/>
<path transform="matrix(1,0,0,-1,421.1251,219.2752)" d="M0 0C0-.415 .337-.752 .752-.752 1.167-.752 1.503-.415 1.503 0 1.503 .415 1.167 .752 .752 .752 .337 .752 0 .415 0 0" fill="#231f20"/>
<path transform="matrix(1,0,0,-1,421.1251,231.05683)" d="M0 0C0-.415 .337-.752 .752-.752 1.167-.752 1.503-.415 1.503 0 1.503 .415 1.167 .752 .752 .752 .337 .752 0 .415 0 0" fill="#231f20"/>
<path transform="matrix(1,0,0,-1,421.1251,242.8385)" d="M0 0C0-.415 .337-.752 .752-.752 1.167-.752 1.503-.415 1.503 0 1.503 .415 1.167 .752 .752 .752 .337 .752 0 .415 0 0" fill="#231f20"/>
<path transform="matrix(1,0,0,-1,421.1251,348.8734)" d="M0 0C0-.415 .337-.752 .752-.752 1.167-.752 1.503-.415 1.503 0 1.503 .415 1.167 .752 .752 .752 .337 .752 0 .415 0 0" fill="#231f20"/>
<path transform="matrix(1,0,0,-1,421.1251,360.655)" d="M0 0C0-.415 .337-.752 .752-.752 1.167-.752 1.503-.415 1.503 0 1.503 .415 1.167 .752 .752 .752 .337 .752 0 .415 0 0" fill="#231f20"/>
<path transform="matrix(1,0,0,-1,409.3434,125.02197)" d="M0 0C0-.415 .337-.752 .752-.752 1.167-.752 1.503-.415 1.503 0 1.503 .415 1.167 .752 .752 .752 .337 .752 0 .415 0 0" fill="#231f20"/>
<path transform="matrix(1,0,0,-1,409.3434,136.80359)" d="M0 0C0-.415 .337-.752 .752-.752 1.167-.752 1.503-.415 1.503 0 1.503 .415 1.167 .752 .752 .752 .337 .752 0 .415 0 0" fill="#231f20"/>
<path transform="matrix(1,0,0,-1,409.3434,148.58533)" d="M0 0C0-.415 .337-.752 .752-.752 1.167-.752 1.503-.415 1.503 0 1.503 .415 1.167 .752 .752 .752 .337 .752 0 .415 0 0" fill="#231f20"/>
<path transform="matrix(1,0,0,-1,409.3434,160.36688)" d="M0 0C0-.415 .337-.752 .752-.752 1.167-.752 1.503-.415 1.503 0 1.503 .415 1.167 .752 .752 .752 .337 .752 0 .415 0 0" fill="#231f20"/>
<path transform="matrix(1,0,0,-1,409.3434,207.49353)" d="M0 0C0-.415 .337-.752 .752-.752 1.167-.752 1.503-.415 1.503 0 1.503 .415 1.167 .752 .752 .752 .337 .752 0 .415 0 0" fill="#231f20"/>
<path transform="matrix(1,0,0,-1,409.3434,219.2752)" d="M0 0C0-.415 .337-.752 .752-.752 1.167-.752 1.503-.415 1.503 0 1.503 .415 1.167 .752 .752 .752 .337 .752 0 .415 0 0" fill="#231f20"/>
<path transform="matrix(1,0,0,-1,409.3434,231.05683)" d="M0 0C0-.415 .337-.752 .752-.752 1.167-.752 1.503-.415 1.503 0 1.503 .415 1.167 .752 .752 .752 .337 .752 0 .415 0 0" fill="#231f20"/>
<path transform="matrix(1,0,0,-1,409.3434,242.8385)" d="M0 0C0-.415 .337-.752 .752-.752 1.167-.752 1.503-.415 1.503 0 1.503 .415 1.167 .752 .752 .752 .337 .752 0 .415 0 0" fill="#231f20"/>
<path transform="matrix(1,0,0,-1,409.3434,325.3101)" d="M0 0C0-.415 .337-.752 .752-.752 1.167-.752 1.503-.415 1.503 0 1.503 .415 1.167 .752 .752 .752 .337 .752 0 .415 0 0" fill="#231f20"/>
<path transform="matrix(1,0,0,-1,409.3434,337.0917)" d="M0 0C0-.415 .337-.752 .752-.752 1.167-.752 1.503-.415 1.503 0 1.503 .415 1.167 .752 .752 .752 .337 .752 0 .415 0 0" fill="#231f20"/>
<path transform="matrix(1,0,0,-1,409.3434,348.8734)" d="M0 0C0-.415 .337-.752 .752-.752 1.167-.752 1.503-.415 1.503 0 1.503 .415 1.167 .752 .752 .752 .337 .752 0 .415 0 0" fill="#231f20"/>
<path transform="matrix(1,0,0,-1,409.3434,360.655)" d="M0 0C0-.415 .337-.752 .752-.752 1.167-.752 1.503-.415 1.503 0 1.503 .415 1.167 .752 .752 .752 .337 .752 0 .415 0 0" fill="#231f20"/>
<path transform="matrix(1,0,0,-1,397.5618,136.80359)" d="M0 0C0-.415 .337-.752 .752-.752 1.167-.752 1.503-.415 1.503 0 1.503 .415 1.167 .752 .752 .752 .337 .752 0 .415 0 0" fill="#231f20"/>
<path transform="matrix(1,0,0,-1,397.5618,148.58533)" d="M0 0C0-.415 .337-.752 .752-.752 1.167-.752 1.503-.415 1.503 0 1.503 .415 1.167 .752 .752 .752 .337 .752 0 .415 0 0" fill="#231f20"/>
<path transform="matrix(1,0,0,-1,397.5618,160.36688)" d="M0 0C0-.415 .337-.752 .752-.752 1.167-.752 1.503-.415 1.503 0 1.503 .415 1.167 .752 .752 .752 .337 .752 0 .415 0 0" fill="#231f20"/>
<path transform="matrix(1,0,0,-1,397.5618,183.93018)" d="M0 0C0-.415 .337-.752 .752-.752 1.167-.752 1.503-.415 1.503 0 1.503 .415 1.167 .752 .752 .752 .337 .752 0 .415 0 0" fill="#231f20"/>
<path transform="matrix(1,0,0,-1,397.5618,207.49353)" d="M0 0C0-.415 .337-.752 .752-.752 1.167-.752 1.503-.415 1.503 0 1.503 .415 1.167 .752 .752 .752 .337 .752 0 .415 0 0" fill="#231f20"/>
<path transform="matrix(1,0,0,-1,397.5618,219.2752)" d="M0 0C0-.415 .337-.752 .752-.752 1.167-.752 1.503-.415 1.503 0 1.503 .415 1.167 .752 .752 .752 .337 .752 0 .415 0 0" fill="#231f20"/>
<path transform="matrix(1,0,0,-1,397.5618,231.05683)" d="M0 0C0-.415 .337-.752 .752-.752 1.167-.752 1.503-.415 1.503 0 1.503 .415 1.167 .752 .752 .752 .337 .752 0 .415 0 0" fill="#231f20"/>
<path transform="matrix(1,0,0,-1,397.5618,242.8385)" d="M0 0C0-.415 .337-.752 .752-.752 1.167-.752 1.503-.415 1.503 0 1.503 .415 1.167 .752 .752 .752 .337 .752 0 .415 0 0" fill="#231f20"/>
<path transform="matrix(1,0,0,-1,397.5618,254.62018)" d="M0 0C0-.415 .337-.752 .752-.752 1.167-.752 1.503-.415 1.503 0 1.503 .415 1.167 .752 .752 .752 .337 .752 0 .415 0 0" fill="#231f20"/>
<path transform="matrix(1,0,0,-1,397.5618,337.0917)" d="M0 0C0-.415 .337-.752 .752-.752 1.167-.752 1.503-.415 1.503 0 1.503 .415 1.167 .752 .752 .752 .337 .752 0 .415 0 0" fill="#231f20"/>
<path transform="matrix(1,0,0,-1,397.5618,348.8734)" d="M0 0C0-.415 .337-.752 .752-.752 1.167-.752 1.503-.415 1.503 0 1.503 .415 1.167 .752 .752 .752 .337 .752 0 .415 0 0" fill="#231f20"/>
<path transform="matrix(1,0,0,-1,385.7802,125.02197)" d="M0 0C0-.415 .337-.752 .752-.752 1.167-.752 1.503-.415 1.503 0 1.503 .415 1.167 .752 .752 .752 .337 .752 0 .415 0 0" fill="#231f20"/>
<path transform="matrix(1,0,0,-1,385.7802,136.80359)" d="M0 0C0-.415 .337-.752 .752-.752 1.167-.752 1.503-.415 1.503 0 1.503 .415 1.167 .752 .752 .752 .337 .752 0 .415 0 0" fill="#231f20"/>
<path transform="matrix(1,0,0,-1,385.7802,148.58533)" d="M0 0C0-.415 .337-.752 .752-.752 1.167-.752 1.503-.415 1.503 0 1.503 .415 1.167 .752 .752 .752 .337 .752 0 .415 0 0" fill="#231f20"/>
<path transform="matrix(1,0,0,-1,385.7802,160.36688)" d="M0 0C0-.415 .337-.752 .752-.752 1.167-.752 1.503-.415 1.503 0 1.503 .415 1.167 .752 .752 .752 .337 .752 0 .415 0 0" fill="#231f20"/>
<path transform="matrix(1,0,0,-1,385.7802,172.14862)" d="M0 0C0-.415 .337-.752 .752-.752 1.167-.752 1.503-.415 1.503 0 1.503 .415 1.167 .752 .752 .752 .337 .752 0 .415 0 0" fill="#231f20"/>
<path transform="matrix(1,0,0,-1,385.7802,183.93018)" d="M0 0C0-.415 .337-.752 .752-.752 1.167-.752 1.503-.415 1.503 0 1.503 .415 1.167 .752 .752 .752 .337 .752 0 .415 0 0" fill="#231f20"/>
<path transform="matrix(1,0,0,-1,385.7802,195.71192)" d="M0 0C0-.415 .337-.752 .752-.752 1.167-.752 1.503-.415 1.503 0 1.503 .415 1.167 .752 .752 .752 .337 .752 0 .415 0 0" fill="#231f20"/>
<path transform="matrix(1,0,0,-1,385.7802,219.2752)" d="M0 0C0-.415 .337-.752 .752-.752 1.167-.752 1.503-.415 1.503 0 1.503 .415 1.167 .752 .752 .752 .337 .752 0 .415 0 0" fill="#231f20"/>
<path transform="matrix(1,0,0,-1,385.7802,231.05683)" d="M0 0C0-.415 .337-.752 .752-.752 1.167-.752 1.503-.415 1.503 0 1.503 .415 1.167 .752 .752 .752 .337 .752 0 .415 0 0" fill="#231f20"/>
<path transform="matrix(1,0,0,-1,385.7802,242.8385)" d="M0 0C0-.415 .337-.752 .752-.752 1.167-.752 1.503-.415 1.503 0 1.503 .415 1.167 .752 .752 .752 .337 .752 0 .415 0 0" fill="#231f20"/>
<path transform="matrix(1,0,0,-1,385.7802,254.62018)" d="M0 0C0-.415 .337-.752 .752-.752 1.167-.752 1.503-.415 1.503 0 1.503 .415 1.167 .752 .752 .752 .337 .752 0 .415 0 0" fill="#231f20"/>
<path transform="matrix(1,0,0,-1,373.9985,136.80359)" d="M0 0C0-.415 .337-.752 .752-.752 1.167-.752 1.503-.415 1.503 0 1.503 .415 1.167 .752 .752 .752 .337 .752 0 .415 0 0" fill="#231f20"/>
<path transform="matrix(1,0,0,-1,373.9985,148.58533)" d="M0 0C0-.415 .337-.752 .752-.752 1.167-.752 1.503-.415 1.503 0 1.503 .415 1.167 .752 .752 .752 .337 .752 0 .415 0 0" fill="#231f20"/>
<path transform="matrix(1,0,0,-1,373.9985,160.36688)" d="M0 0C0-.415 .337-.752 .752-.752 1.167-.752 1.503-.415 1.503 0 1.503 .415 1.167 .752 .752 .752 .337 .752 0 .415 0 0" fill="#231f20"/>
<path transform="matrix(1,0,0,-1,373.9985,231.05683)" d="M0 0C0-.415 .337-.752 .752-.752 1.167-.752 1.503-.415 1.503 0 1.503 .415 1.167 .752 .752 .752 .337 .752 0 .415 0 0" fill="#231f20"/>
<path transform="matrix(1,0,0,-1,373.9985,242.8385)" d="M0 0C0-.415 .337-.752 .752-.752 1.167-.752 1.503-.415 1.503 0 1.503 .415 1.167 .752 .752 .752 .337 .752 0 .415 0 0" fill="#231f20"/>
<path transform="matrix(1,0,0,-1,373.9985,254.62018)" d="M0 0C0-.415 .337-.752 .752-.752 1.167-.752 1.503-.415 1.503 0 1.503 .415 1.167 .752 .752 .752 .337 .752 0 .415 0 0" fill="#231f20"/>
<path transform="matrix(1,0,0,-1,373.9985,266.4018)" d="M0 0C0-.415 .337-.752 .752-.752 1.167-.752 1.503-.415 1.503 0 1.503 .415 1.167 .752 .752 .752 .337 .752 0 .415 0 0" fill="#231f20"/>
<path transform="matrix(1,0,0,-1,373.9985,337.0917)" d="M0 0C0-.415 .337-.752 .752-.752 1.167-.752 1.503-.415 1.503 0 1.503 .415 1.167 .752 .752 .752 .337 .752 0 .415 0 0" fill="#231f20"/>
<path transform="matrix(1,0,0,-1,373.9985,348.8734)" d="M0 0C0-.415 .337-.752 .752-.752 1.167-.752 1.503-.415 1.503 0 1.503 .415 1.167 .752 .752 .752 .337 .752 0 .415 0 0" fill="#231f20"/>
<path transform="matrix(1,0,0,-1,373.9985,360.655)" d="M0 0C0-.415 .337-.752 .752-.752 1.167-.752 1.503-.415 1.503 0 1.503 .415 1.167 .752 .752 .752 .337 .752 0 .415 0 0" fill="#231f20"/>
<path transform="matrix(1,0,0,-1,362.2168,160.36688)" d="M0 0C0-.415 .337-.752 .752-.752 1.167-.752 1.503-.415 1.503 0 1.503 .415 1.167 .752 .752 .752 .337 .752 0 .415 0 0" fill="#231f20"/>
<path transform="matrix(1,0,0,-1,362.2168,172.14862)" d="M0 0C0-.415 .337-.752 .752-.752 1.167-.752 1.503-.415 1.503 0 1.503 .415 1.167 .752 .752 .752 .337 .752 0 .415 0 0" fill="#231f20"/>
<path transform="matrix(1,0,0,-1,362.2168,231.05683)" d="M0 0C0-.415 .337-.752 .752-.752 1.167-.752 1.503-.415 1.503 0 1.503 .415 1.167 .752 .752 .752 .337 .752 0 .415 0 0" fill="#231f20"/>
<path transform="matrix(1,0,0,-1,362.2168,242.8385)" d="M0 0C0-.415 .337-.752 .752-.752 1.167-.752 1.503-.415 1.503 0 1.503 .415 1.167 .752 .752 .752 .337 .752 0 .415 0 0" fill="#231f20"/>
<path transform="matrix(1,0,0,-1,362.2168,313.5284)" d="M0 0C0-.415 .337-.752 .752-.752 1.167-.752 1.503-.415 1.503 0 1.503 .415 1.167 .752 .752 .752 .337 .752 0 .415 0 0" fill="#231f20"/>
<path transform="matrix(1,0,0,-1,362.2168,325.3101)" d="M0 0C0-.415 .337-.752 .752-.752 1.167-.752 1.503-.415 1.503 0 1.503 .415 1.167 .752 .752 .752 .337 .752 0 .415 0 0" fill="#231f20"/>
<path transform="matrix(1,0,0,-1,362.2168,337.0917)" d="M0 0C0-.415 .337-.752 .752-.752 1.167-.752 1.503-.415 1.503 0 1.503 .415 1.167 .752 .752 .752 .337 .752 0 .415 0 0" fill="#231f20"/>
<path transform="matrix(1,0,0,-1,362.2168,348.8734)" d="M0 0C0-.415 .337-.752 .752-.752 1.167-.752 1.503-.415 1.503 0 1.503 .415 1.167 .752 .752 .752 .337 .752 0 .415 0 0" fill="#231f20"/>
<path transform="matrix(1,0,0,-1,362.2168,360.655)" d="M0 0C0-.415 .337-.752 .752-.752 1.167-.752 1.503-.415 1.503 0 1.503 .415 1.167 .752 .752 .752 .337 .752 0 .415 0 0" fill="#231f20"/>
<path transform="matrix(1,0,0,-1,350.4352,136.80359)" d="M0 0C0-.415 .337-.752 .752-.752 1.167-.752 1.503-.415 1.503 0 1.503 .415 1.167 .752 .752 .752 .337 .752 0 .415 0 0" fill="#231f20"/>
<path transform="matrix(1,0,0,-1,350.4352,148.58533)" d="M0 0C0-.415 .337-.752 .752-.752 1.167-.752 1.503-.415 1.503 0 1.503 .415 1.167 .752 .752 .752 .337 .752 0 .415 0 0" fill="#231f20"/>
<path transform="matrix(1,0,0,-1,350.4352,160.36688)" d="M0 0C0-.415 .337-.752 .752-.752 1.167-.752 1.503-.415 1.503 0 1.503 .415 1.167 .752 .752 .752 .337 .752 0 .415 0 0" fill="#231f20"/>
<path transform="matrix(1,0,0,-1,350.4352,172.14862)" d="M0 0C0-.415 .337-.752 .752-.752 1.167-.752 1.503-.415 1.503 0 1.503 .415 1.167 .752 .752 .752 .337 .752 0 .415 0 0" fill="#231f20"/>
<path transform="matrix(1,0,0,-1,350.4352,183.93018)" d="M0 0C0-.415 .337-.752 .752-.752 1.167-.752 1.503-.415 1.503 0 1.503 .415 1.167 .752 .752 .752 .337 .752 0 .415 0 0" fill="#231f20"/>
<path transform="matrix(1,0,0,-1,350.4352,242.8385)" d="M0 0C0-.415 .337-.752 .752-.752 1.167-.752 1.503-.415 1.503 0 1.503 .415 1.167 .752 .752 .752 .337 .752 0 .415 0 0" fill="#231f20"/>
<path transform="matrix(1,0,0,-1,350.4352,254.62018)" d="M0 0C0-.415 .337-.752 .752-.752 1.167-.752 1.503-.415 1.503 0 1.503 .415 1.167 .752 .752 .752 .337 .752 0 .415 0 0" fill="#231f20"/>
<path transform="matrix(1,0,0,-1,350.4352,337.0917)" d="M0 0C0-.415 .337-.752 .752-.752 1.167-.752 1.503-.415 1.503 0 1.503 .415 1.167 .752 .752 .752 .337 .752 0 .415 0 0" fill="#231f20"/>
<path transform="matrix(1,0,0,-1,350.4352,348.8734)" d="M0 0C0-.415 .337-.752 .752-.752 1.167-.752 1.503-.415 1.503 0 1.503 .415 1.167 .752 .752 .752 .337 .752 0 .415 0 0" fill="#231f20"/>
<path transform="matrix(1,0,0,-1,350.4352,360.655)" d="M0 0C0-.415 .337-.752 .752-.752 1.167-.752 1.503-.415 1.503 0 1.503 .415 1.167 .752 .752 .752 .337 .752 0 .415 0 0" fill="#231f20"/>
<path transform="matrix(1,0,0,-1,338.6535,148.58533)" d="M0 0C0-.415 .337-.752 .752-.752 1.167-.752 1.503-.415 1.503 0 1.503 .415 1.167 .752 .752 .752 .337 .752 0 .415 0 0" fill="#231f20"/>
<path transform="matrix(1,0,0,-1,338.6535,160.36688)" d="M0 0C0-.415 .337-.752 .752-.752 1.167-.752 1.503-.415 1.503 0 1.503 .415 1.167 .752 .752 .752 .337 .752 0 .415 0 0" fill="#231f20"/>
<path transform="matrix(1,0,0,-1,338.6535,172.14862)" d="M0 0C0-.415 .337-.752 .752-.752 1.167-.752 1.503-.415 1.503 0 1.503 .415 1.167 .752 .752 .752 .337 .752 0 .415 0 0" fill="#231f20"/>
<path transform="matrix(1,0,0,-1,338.6535,325.3101)" d="M0 0C0-.415 .337-.752 .752-.752 1.167-.752 1.503-.415 1.503 0 1.503 .415 1.167 .752 .752 .752 .337 .752 0 .415 0 0" fill="#231f20"/>
<path transform="matrix(1,0,0,-1,338.6535,337.0917)" d="M0 0C0-.415 .337-.752 .752-.752 1.167-.752 1.503-.415 1.503 0 1.503 .415 1.167 .752 .752 .752 .337 .752 0 .415 0 0" fill="#231f20"/>
<path transform="matrix(1,0,0,-1,338.6535,360.655)" d="M0 0C0-.415 .337-.752 .752-.752 1.167-.752 1.503-.415 1.503 0 1.503 .415 1.167 .752 .752 .752 .337 .752 0 .415 0 0" fill="#231f20"/>
<path transform="matrix(1,0,0,-1,432.9068,478.4716)" d="M0 0C0-.415 .337-.752 .752-.752 1.167-.752 1.503-.415 1.503 0 1.503 .415 1.167 .752 .752 .752 .337 .752 0 .415 0 0" fill="#231f20"/>
<path transform="matrix(1,0,0,-1,421.1251,372.4367)" d="M0 0C0-.415 .337-.752 .752-.752 1.167-.752 1.503-.415 1.503 0 1.503 .415 1.167 .752 .752 .752 .337 .752 0 .415 0 0" fill="#231f20"/>
<path transform="matrix(1,0,0,-1,421.1251,478.4716)" d="M0 0C0-.415 .337-.752 .752-.752 1.167-.752 1.503-.415 1.503 0 1.503 .415 1.167 .752 .752 .752 .337 .752 0 .415 0 0" fill="#231f20"/>
<path transform="matrix(1,0,0,-1,409.3434,478.4716)" d="M0 0C0-.415 .337-.752 .752-.752 1.167-.752 1.503-.415 1.503 0 1.503 .415 1.167 .752 .752 .752 .337 .752 0 .415 0 0" fill="#231f20"/>
<path transform="matrix(1,0,0,-1,409.3434,490.2532)" d="M0 0C0-.415 .337-.752 .752-.752 1.167-.752 1.503-.415 1.503 0 1.503 .415 1.167 .752 .752 .752 .337 .752 0 .415 0 0" fill="#231f20"/>
<path transform="matrix(1,0,0,-1,409.3434,572.7248)" d="M0 0C0-.415 .337-.752 .752-.752 1.167-.752 1.503-.415 1.503 0 1.503 .415 1.167 .752 .752 .752 .337 .752 0 .415 0 0" fill="#231f20"/>
<path transform="matrix(1,0,0,-1,397.5618,443.1266)" d="M0 0C0-.415 .337-.752 .752-.752 1.167-.752 1.503-.415 1.503 0 1.503 .415 1.167 .752 .752 .752 .337 .752 0 .415 0 0" fill="#231f20"/>
<path transform="matrix(1,0,0,-1,397.5618,466.6899)" d="M0 0C0-.415 .337-.752 .752-.752 1.167-.752 1.503-.415 1.503 0 1.503 .415 1.167 .752 .752 .752 .337 .752 0 .415 0 0" fill="#231f20"/>
<path transform="matrix(1,0,0,-1,397.5618,478.4716)" d="M0 0C0-.415 .337-.752 .752-.752 1.167-.752 1.503-.415 1.503 0 1.503 .415 1.167 .752 .752 .752 .337 .752 0 .415 0 0" fill="#231f20"/>
<path transform="matrix(1,0,0,-1,397.5618,490.2532)" d="M0 0C0-.415 .337-.752 .752-.752 1.167-.752 1.503-.415 1.503 0 1.503 .415 1.167 .752 .752 .752 .337 .752 0 .415 0 0" fill="#231f20"/>
<path transform="matrix(1,0,0,-1,397.5618,572.7248)" d="M0 0C0-.415 .337-.752 .752-.752 1.167-.752 1.503-.415 1.503 0 1.503 .415 1.167 .752 .752 .752 .337 .752 0 .415 0 0" fill="#231f20"/>
<path transform="matrix(1,0,0,-1,385.7802,407.7816)" d="M0 0C0-.415 .337-.752 .752-.752 1.167-.752 1.503-.415 1.503 0 1.503 .415 1.167 .752 .752 .752 .337 .752 0 .415 0 0" fill="#231f20"/>
<path transform="matrix(1,0,0,-1,385.7802,431.345)" d="M0 0C0-.415 .337-.752 .752-.752 1.167-.752 1.503-.415 1.503 0 1.503 .415 1.167 .752 .752 .752 .337 .752 0 .415 0 0" fill="#231f20"/>
<path transform="matrix(1,0,0,-1,385.7802,443.1266)" d="M0 0C0-.415 .337-.752 .752-.752 1.167-.752 1.503-.415 1.503 0 1.503 .415 1.167 .752 .752 .752 .337 .752 0 .415 0 0" fill="#231f20"/>
<path transform="matrix(1,0,0,-1,385.7802,466.6899)" d="M0 0C0-.415 .337-.752 .752-.752 1.167-.752 1.503-.415 1.503 0 1.503 .415 1.167 .752 .752 .752 .337 .752 0 .415 0 0" fill="#231f20"/>
<path transform="matrix(1,0,0,-1,385.7802,478.4716)" d="M0 0C0-.415 .337-.752 .752-.752 1.167-.752 1.503-.415 1.503 0 1.503 .415 1.167 .752 .752 .752 .337 .752 0 .415 0 0" fill="#231f20"/>
<path transform="matrix(1,0,0,-1,385.7802,490.2532)" d="M0 0C0-.415 .337-.752 .752-.752 1.167-.752 1.503-.415 1.503 0 1.503 .415 1.167 .752 .752 .752 .337 .752 0 .415 0 0" fill="#231f20"/>
<path transform="matrix(1,0,0,-1,385.7802,560.9431)" d="M0 0C0-.415 .337-.752 .752-.752 1.167-.752 1.503-.415 1.503 0 1.503 .415 1.167 .752 .752 .752 .337 .752 0 .415 0 0" fill="#231f20"/>
<path transform="matrix(1,0,0,-1,385.7802,572.7248)" d="M0 0C0-.415 .337-.752 .752-.752 1.167-.752 1.503-.415 1.503 0 1.503 .415 1.167 .752 .752 .752 .337 .752 0 .415 0 0" fill="#231f20"/>
<path transform="matrix(1,0,0,-1,373.9985,372.4367)" d="M0 0C0-.415 .337-.752 .752-.752 1.167-.752 1.503-.415 1.503 0 1.503 .415 1.167 .752 .752 .752 .337 .752 0 .415 0 0" fill="#231f20"/>
<path transform="matrix(1,0,0,-1,373.9985,396)" d="M0 0C0-.415 .337-.752 .752-.752 1.167-.752 1.503-.415 1.503 0 1.503 .415 1.167 .752 .752 .752 .337 .752 0 .415 0 0" fill="#231f20"/>
<path transform="matrix(1,0,0,-1,373.9985,407.7816)" d="M0 0C0-.415 .337-.752 .752-.752 1.167-.752 1.503-.415 1.503 0 1.503 .415 1.167 .752 .752 .752 .337 .752 0 .415 0 0" fill="#231f20"/>
<path transform="matrix(1,0,0,-1,373.9985,431.345)" d="M0 0C0-.415 .337-.752 .752-.752 1.167-.752 1.503-.415 1.503 0 1.503 .415 1.167 .752 .752 .752 .337 .752 0 .415 0 0" fill="#231f20"/>
<path transform="matrix(1,0,0,-1,373.9985,443.1266)" d="M0 0C0-.415 .337-.752 .752-.752 1.167-.752 1.503-.415 1.503 0 1.503 .415 1.167 .752 .752 .752 .337 .752 0 .415 0 0" fill="#231f20"/>
<path transform="matrix(1,0,0,-1,373.9985,454.9083)" d="M0 0C0-.415 .337-.752 .752-.752 1.167-.752 1.503-.415 1.503 0 1.503 .415 1.167 .752 .752 .752 .337 .752 0 .415 0 0" fill="#231f20"/>
<path transform="matrix(1,0,0,-1,373.9985,466.6899)" d="M0 0C0-.415 .337-.752 .752-.752 1.167-.752 1.503-.415 1.503 0 1.503 .415 1.167 .752 .752 .752 .337 .752 0 .415 0 0" fill="#231f20"/>
<path transform="matrix(1,0,0,-1,373.9985,478.4716)" d="M0 0C0-.415 .337-.752 .752-.752 1.167-.752 1.503-.415 1.503 0 1.503 .415 1.167 .752 .752 .752 .337 .752 0 .415 0 0" fill="#231f20"/>
<path transform="matrix(1,0,0,-1,373.9985,560.9431)" d="M0 0C0-.415 .337-.752 .752-.752 1.167-.752 1.503-.415 1.503 0 1.503 .415 1.167 .752 .752 .752 .337 .752 0 .415 0 0" fill="#231f20"/>
<path transform="matrix(1,0,0,-1,362.2168,372.4367)" d="M0 0C0-.415 .337-.752 .752-.752 1.167-.752 1.503-.415 1.503 0 1.503 .415 1.167 .752 .752 .752 .337 .752 0 .415 0 0" fill="#231f20"/>
<path transform="matrix(1,0,0,-1,362.2168,384.2184)" d="M0 0C0-.415 .337-.752 .752-.752 1.167-.752 1.503-.415 1.503 0 1.503 .415 1.167 .752 .752 .752 .337 .752 0 .415 0 0" fill="#231f20"/>
<path transform="matrix(1,0,0,-1,362.2168,396)" d="M0 0C0-.415 .337-.752 .752-.752 1.167-.752 1.503-.415 1.503 0 1.503 .415 1.167 .752 .752 .752 .337 .752 0 .415 0 0" fill="#231f20"/>
<path transform="matrix(1,0,0,-1,362.2168,407.7816)" d="M0 0C0-.415 .337-.752 .752-.752 1.167-.752 1.503-.415 1.503 0 1.503 .415 1.167 .752 .752 .752 .337 .752 0 .415 0 0" fill="#231f20"/>
<path transform="matrix(1,0,0,-1,362.2168,419.5633)" d="M0 0C0-.415 .337-.752 .752-.752 1.167-.752 1.503-.415 1.503 0 1.503 .415 1.167 .752 .752 .752 .337 .752 0 .415 0 0" fill="#231f20"/>
<path transform="matrix(1,0,0,-1,362.2168,431.345)" d="M0 0C0-.415 .337-.752 .752-.752 1.167-.752 1.503-.415 1.503 0 1.503 .415 1.167 .752 .752 .752 .337 .752 0 .415 0 0" fill="#231f20"/>
<path transform="matrix(1,0,0,-1,362.2168,443.1266)" d="M0 0C0-.415 .337-.752 .752-.752 1.167-.752 1.503-.415 1.503 0 1.503 .415 1.167 .752 .752 .752 .337 .752 0 .415 0 0" fill="#231f20"/>
<path transform="matrix(1,0,0,-1,362.2168,454.9083)" d="M0 0C0-.415 .337-.752 .752-.752 1.167-.752 1.503-.415 1.503 0 1.503 .415 1.167 .752 .752 .752 .337 .752 0 .415 0 0" fill="#231f20"/>
<path transform="matrix(1,0,0,-1,362.2168,549.1615)" d="M0 0C0-.415 .337-.752 .752-.752 1.167-.752 1.503-.415 1.503 0 1.503 .415 1.167 .752 .752 .752 .337 .752 0 .415 0 0" fill="#231f20"/>
<path transform="matrix(1,0,0,-1,362.2168,560.9431)" d="M0 0C0-.415 .337-.752 .752-.752 1.167-.752 1.503-.415 1.503 0 1.503 .415 1.167 .752 .752 .752 .337 .752 0 .415 0 0" fill="#231f20"/>
<path transform="matrix(1,0,0,-1,350.4352,372.4367)" d="M0 0C0-.415 .337-.752 .752-.752 1.167-.752 1.503-.415 1.503 0 1.503 .415 1.167 .752 .752 .752 .337 .752 0 .415 0 0" fill="#231f20"/>
<path transform="matrix(1,0,0,-1,350.4352,384.2184)" d="M0 0C0-.415 .337-.752 .752-.752 1.167-.752 1.503-.415 1.503 0 1.503 .415 1.167 .752 .752 .752 .337 .752 0 .415 0 0" fill="#231f20"/>
<path transform="matrix(1,0,0,-1,350.4352,396)" d="M0 0C0-.415 .337-.752 .752-.752 1.167-.752 1.503-.415 1.503 0 1.503 .415 1.167 .752 .752 .752 .337 .752 0 .415 0 0" fill="#231f20"/>
<path transform="matrix(1,0,0,-1,350.4352,407.7816)" d="M0 0C0-.415 .337-.752 .752-.752 1.167-.752 1.503-.415 1.503 0 1.503 .415 1.167 .752 .752 .752 .337 .752 0 .415 0 0" fill="#231f20"/>
<path transform="matrix(1,0,0,-1,350.4352,419.5633)" d="M0 0C0-.415 .337-.752 .752-.752 1.167-.752 1.503-.415 1.503 0 1.503 .415 1.167 .752 .752 .752 .337 .752 0 .415 0 0" fill="#231f20"/>
<path transform="matrix(1,0,0,-1,350.4352,431.345)" d="M0 0C0-.415 .337-.752 .752-.752 1.167-.752 1.503-.415 1.503 0 1.503 .415 1.167 .752 .752 .752 .337 .752 0 .415 0 0" fill="#231f20"/>
<path transform="matrix(1,0,0,-1,350.4352,443.1266)" d="M0 0C0-.415 .337-.752 .752-.752 1.167-.752 1.503-.415 1.503 0 1.503 .415 1.167 .752 .752 .752 .337 .752 0 .415 0 0" fill="#231f20"/>
<path transform="matrix(1,0,0,-1,350.4352,454.9083)" d="M0 0C0-.415 .337-.752 .752-.752 1.167-.752 1.503-.415 1.503 0 1.503 .415 1.167 .752 .752 .752 .337 .752 0 .415 0 0" fill="#231f20"/>
<path transform="matrix(1,0,0,-1,350.4352,525.5982)" d="M0 0C0-.415 .337-.752 .752-.752 1.167-.752 1.503-.415 1.503 0 1.503 .415 1.167 .752 .752 .752 .337 .752 0 .415 0 0" fill="#231f20"/>
<path transform="matrix(1,0,0,-1,350.4352,537.3798)" d="M0 0C0-.415 .337-.752 .752-.752 1.167-.752 1.503-.415 1.503 0 1.503 .415 1.167 .752 .752 .752 .337 .752 0 .415 0 0" fill="#231f20"/>
<path transform="matrix(1,0,0,-1,350.4352,549.1615)" d="M0 0C0-.415 .337-.752 .752-.752 1.167-.752 1.503-.415 1.503 0 1.503 .415 1.167 .752 .752 .752 .337 .752 0 .415 0 0" fill="#231f20"/>
<path transform="matrix(1,0,0,-1,350.4352,560.9431)" d="M0 0C0-.415 .337-.752 .752-.752 1.167-.752 1.503-.415 1.503 0 1.503 .415 1.167 .752 .752 .752 .337 .752 0 .415 0 0" fill="#231f20"/>
<path transform="matrix(1,0,0,-1,350.4352,572.7248)" d="M0 0C0-.415 .337-.752 .752-.752 1.167-.752 1.503-.415 1.503 0 1.503 .415 1.167 .752 .752 .752 .337 .752 0 .415 0 0" fill="#231f20"/>
<path transform="matrix(1,0,0,-1,338.6535,372.4367)" d="M0 0C0-.415 .337-.752 .752-.752 1.167-.752 1.503-.415 1.503 0 1.503 .415 1.167 .752 .752 .752 .337 .752 0 .415 0 0" fill="#231f20"/>
<path transform="matrix(1,0,0,-1,338.6535,384.2184)" d="M0 0C0-.415 .337-.752 .752-.752 1.167-.752 1.503-.415 1.503 0 1.503 .415 1.167 .752 .752 .752 .337 .752 0 .415 0 0" fill="#231f20"/>
<path transform="matrix(1,0,0,-1,338.6535,396)" d="M0 0C0-.415 .337-.752 .752-.752 1.167-.752 1.503-.415 1.503 0 1.503 .415 1.167 .752 .752 .752 .337 .752 0 .415 0 0" fill="#231f20"/>
<path transform="matrix(1,0,0,-1,338.6535,407.7816)" d="M0 0C0-.415 .337-.752 .752-.752 1.167-.752 1.503-.415 1.503 0 1.503 .415 1.167 .752 .752 .752 .337 .752 0 .415 0 0" fill="#231f20"/>
<path transform="matrix(1,0,0,-1,338.6535,419.5633)" d="M0 0C0-.415 .337-.752 .752-.752 1.167-.752 1.503-.415 1.503 0 1.503 .415 1.167 .752 .752 .752 .337 .752 0 .415 0 0" fill="#231f20"/>
<path transform="matrix(1,0,0,-1,338.6535,431.345)" d="M0 0C0-.415 .337-.752 .752-.752 1.167-.752 1.503-.415 1.503 0 1.503 .415 1.167 .752 .752 .752 .337 .752 0 .415 0 0" fill="#231f20"/>
<path transform="matrix(1,0,0,-1,338.6535,443.1266)" d="M0 0C0-.415 .337-.752 .752-.752 1.167-.752 1.503-.415 1.503 0 1.503 .415 1.167 .752 .752 .752 .337 .752 0 .415 0 0" fill="#231f20"/>
<path transform="matrix(1,0,0,-1,338.6535,454.9083)" d="M0 0C0-.415 .337-.752 .752-.752 1.167-.752 1.503-.415 1.503 0 1.503 .415 1.167 .752 .752 .752 .337 .752 0 .415 0 0" fill="#231f20"/>
<path transform="matrix(1,0,0,-1,338.6535,466.6899)" d="M0 0C0-.415 .337-.752 .752-.752 1.167-.752 1.503-.415 1.503 0 1.503 .415 1.167 .752 .752 .752 .337 .752 0 .415 0 0" fill="#231f20"/>
<path transform="matrix(1,0,0,-1,338.6535,478.4716)" d="M0 0C0-.415 .337-.752 .752-.752 1.167-.752 1.503-.415 1.503 0 1.503 .415 1.167 .752 .752 .752 .337 .752 0 .415 0 0" fill="#231f20"/>
<path transform="matrix(1,0,0,-1,338.6535,560.9431)" d="M0 0C0-.415 .337-.752 .752-.752 1.167-.752 1.503-.415 1.503 0 1.503 .415 1.167 .752 .752 .752 .337 .752 0 .415 0 0" fill="#231f20"/>
</g>
</g>
</g>
</svg>
